<?xml version="1.0" standalone="no"?>
<!DOCTYPE svg PUBLIC "-//W3C//DTD SVG 20010904//EN"
 "http://www.w3.org/TR/2001/REC-SVG-20010904/DTD/svg10.dtd">
<svg version="1.0" xmlns="http://www.w3.org/2000/svg"
 width="1024.000000pt" height="1024.000000pt" viewBox="0 0 1024.000000 1024.000000"
 preserveAspectRatio="xMidYMid meet">

<g transform="translate(0.000000,1024.000000) scale(0.100000,-0.100000)"
fill="#000000" stroke="none">
<path d="M0 6876 c0 -3037 2 -3366 16 -3380 8 -9 18 -16 22 -16 4 0 15 -11 24
-24 16 -22 16 -24 -3 -45 -23 -24 -51 -29 -43 -6 4 8 2 15 -4 15 -16 0 -16
-218 0 -238 10 -12 10 -14 1 -8 -10 5 -13 -3 -13 -31 0 -24 3 -33 9 -25 6 10
10 10 20 -2 7 -8 10 -20 6 -26 -11 -17 5 -33 20 -20 8 7 19 9 25 5 5 -3 10 -1
10 4 0 6 7 11 15 11 17 0 20 16 5 25 -10 6 -8 60 3 71 3 3 4 -7 2 -22 -5 -45
3 -53 43 -48 44 5 44 6 46 48 0 19 5 32 9 29 5 -3 17 4 28 15 12 14 15 23 8
28 -8 4 -7 9 2 15 9 5 5 10 -13 14 -31 8 -43 31 -22 39 19 7 54 -10 54 -26 0
-6 8 -20 18 -31 9 -11 11 -17 5 -13 -18 10 -16 -9 2 -24 8 -7 15 -18 15 -24 0
-6 -4 -5 -9 3 -8 12 -12 12 -25 -2 -19 -18 -21 -37 -5 -37 6 0 9 -9 6 -20 -3
-10 0 -21 7 -24 6 -2 4 -5 -5 -5 -11 -1 -15 -12 -16 -40 -1 -33 2 -38 18 -34
13 4 22 -3 31 -22 10 -23 10 -29 -4 -39 -16 -11 -15 -14 3 -30 20 -17 20 -18
3 -37 -16 -17 -19 -18 -34 -4 -16 14 -18 14 -24 0 -8 -21 1 -35 20 -35 8 0 12
-4 9 -10 -3 -5 -15 -10 -26 -10 -11 0 -18 4 -15 9 3 5 -6 16 -20 26 -20 13
-23 19 -14 30 7 8 9 19 5 25 -3 5 -1 10 4 10 6 0 11 9 11 21 0 11 -4 18 -9 14
-10 -6 -43 34 -36 45 2 3 -7 19 -20 34 -24 28 -45 28 -45 0 0 -8 -4 -14 -10
-14 -5 0 -10 5 -10 10 0 6 -4 10 -10 10 -12 0 -2 -29 18 -52 16 -20 36 -14 28
8 -3 8 -1 14 4 14 11 0 13 -11 10 -51 -1 -16 5 -29 14 -32 10 -4 16 -18 15
-34 0 -18 -3 -23 -7 -13 -9 19 -30 24 -48 9 -7 -6 -17 -8 -23 -5 -5 3 -11 -1
-14 -9 -4 -8 -1 -12 6 -9 9 3 13 -7 14 -32 0 -20 7 -40 14 -45 20 -12 25 12 6
26 -15 10 -15 14 -2 31 14 18 15 18 21 -4 4 -13 12 -21 19 -18 8 3 12 -10 13
-40 0 -37 -3 -44 -19 -44 -10 0 -19 -4 -19 -10 0 -5 5 -10 10 -10 15 0 12 -26
-6 -41 -13 -10 -17 -10 -24 1 -5 8 -12 11 -16 8 -3 -4 1 -14 10 -23 16 -17 14
-35 -5 -35 -6 0 -8 4 -4 9 3 5 0 13 -7 17 -7 4 -10 4 -6 -1 9 -10 -9 -45 -23
-45 -6 0 -7 5 -3 11 4 7 -2 9 -17 7 -17 -2 -25 3 -27 17 -9 45 -22 37 -22 -14
0 -42 3 -52 14 -48 10 4 13 1 9 -9 -4 -10 0 -12 13 -8 16 6 17 5 6 -7 -7 -8
-18 -14 -25 -14 -16 0 -22 -251 -7 -270 7 -9 7 -15 1 -19 -5 -4 -9 -24 -9 -46
0 -22 4 -38 8 -35 4 3 11 -2 14 -11 9 -23 7 -36 -3 -30 -5 3 -11 -4 -15 -17
-9 -35 -7 -47 9 -47 19 0 19 -19 0 -26 -13 -5 -15 -130 -15 -1035 l0 -1029
2663 1 c1598 0 2653 4 2639 9 -12 5 -29 7 -37 4 -10 -4 -15 0 -15 15 0 24 -43
94 -52 86 -3 -3 -16 7 -30 22 -13 15 -31 29 -39 31 -7 2 -18 8 -24 13 -13 12
14 30 35 24 15 -5 42 18 94 78 13 15 30 48 37 72 7 25 18 45 24 45 9 0 39 -54
40 -73 0 -12 28 -26 39 -20 5 3 6 1 3 -4 -4 -6 5 -18 18 -27 15 -10 23 -22 19
-28 -5 -7 -2 -9 9 -5 11 4 20 -1 27 -14 6 -11 15 -17 20 -14 5 3 12 -1 17 -9
5 -8 24 -22 43 -30 23 -9 30 -16 20 -19 -8 -3 -34 -10 -57 -16 -24 -7 -43 -16
-43 -22 0 -6 -4 -8 -9 -4 -5 3 -12 -4 -16 -15 -4 -13 -15 -20 -31 -20 -17 0
-30 -10 -44 -33 -11 -17 -20 -35 -20 -39 0 -5 925 -8 2055 -8 l2055 0 0 80 0
80 320 0 320 0 0 -80 0 -80 80 0 80 0 0 288 c0 216 -3 291 -12 300 -10 10 -10
14 0 21 9 6 12 306 10 1442 l-3 1434 -34 -32 c-18 -18 -38 -30 -43 -27 -5 3 4
15 19 27 49 38 63 56 63 80 0 32 -54 91 -75 83 -9 -3 -13 -10 -10 -16 3 -5 2
-10 -3 -10 -5 0 -29 -18 -53 -40 -24 -22 -50 -40 -56 -40 -7 0 -13 -6 -13 -14
0 -8 -9 -18 -20 -21 -11 -3 -20 -11 -20 -16 0 -6 -9 -8 -19 -4 -11 3 -23 0
-27 -6 -5 -8 -3 -10 7 -4 8 4 1 -6 -16 -24 -16 -17 -35 -29 -43 -26 -8 3 -16
-3 -19 -13 -6 -23 -43 -48 -43 -29 0 7 5 18 12 25 30 30 -14 8 -67 -33 -32
-25 -80 -58 -107 -73 -26 -15 -48 -32 -48 -38 0 -14 -28 -26 -41 -18 -5 3 -9
1 -9 -3 0 -5 -17 -15 -37 -22 -21 -8 -45 -20 -54 -28 -9 -7 -31 -15 -49 -18
-18 -2 -40 -11 -49 -19 -10 -9 -22 -16 -28 -16 -6 0 -16 -7 -23 -15 -7 -8 -16
-13 -20 -10 -5 3 -10 2 -12 -2 -5 -13 -86 -53 -133 -67 -24 -8 -58 -24 -75
-36 -17 -12 -37 -19 -45 -16 -7 2 -25 -4 -38 -15 -14 -10 -32 -19 -41 -19 -9
0 -16 -4 -16 -9 0 -5 -11 -8 -25 -6 -14 1 -28 -1 -30 -5 -3 -4 -20 -11 -39
-14 -19 -4 -36 -13 -39 -20 -4 -9 -15 -12 -32 -8 -15 2 -30 1 -34 -4 -3 -6
-35 -15 -71 -23 -59 -11 -131 -32 -170 -48 -8 -3 -19 -7 -25 -8 -12 -1 -108
-19 -115 -20 -3 -1 -27 -5 -55 -9 -27 -4 -63 -10 -79 -12 -16 -3 -32 -7 -36
-9 -4 -3 -56 -7 -116 -10 -72 -4 -114 -11 -124 -20 -16 -14 -83 -16 -96 -3 -4
4 -16 2 -28 -4 -11 -6 -22 -11 -23 -10 -2 1 -4 2 -5 1 -16 -5 -70 -4 -96 2
-17 4 -34 4 -36 0 -6 -10 -87 -6 -126 6 -19 7 -66 14 -105 18 -76 6 -130 12
-130 15 0 1 -18 3 -40 6 -22 3 -56 10 -75 16 -19 6 -57 10 -86 9 -44 -1 -52 1
-57 19 -4 14 -13 20 -32 20 -21 0 -26 -4 -21 -16 5 -12 2 -15 -10 -10 -8 3
-19 6 -24 6 -5 0 -15 6 -22 13 -16 15 -70 41 -81 39 -4 -1 -24 5 -45 14 -20 8
-46 18 -57 21 -54 13 -101 24 -112 25 -7 1 -13 5 -13 9 0 6 -34 18 -65 24 -43
7 -74 19 -70 26 7 11 -27 29 -59 31 -15 1 -26 6 -26 10 0 3 -10 10 -22 13 -43
13 -153 56 -204 80 -28 13 -73 33 -100 44 -27 10 -62 26 -78 35 -16 8 -33 13
-38 10 -5 -3 -7 0 -6 7 2 7 -7 17 -18 24 -12 6 -29 16 -37 23 -34 28 -130 71
-143 64 -19 -10 51 -83 72 -75 8 3 14 0 14 -6 0 -6 5 -11 11 -11 24 0 64 -45
61 -68 -2 -12 0 -22 5 -21 13 3 60 -19 68 -31 17 -27 -16 -19 -95 25 -19 10
-43 18 -54 16 -13 -2 -16 1 -10 11 4 7 4 10 0 6 -12 -10 -66 13 -66 29 0 8 -4
12 -9 9 -5 -4 -11 -3 -13 1 -2 5 -15 19 -31 32 -49 44 -31 -1 26 -64 39 -42
58 -56 68 -50 11 7 12 6 2 -7 -16 -18 -7 -28 24 -28 12 0 23 -4 23 -9 0 -13
47 -56 62 -56 7 0 14 -6 14 -12 3 -26 5 -28 14 -13 6 9 10 10 10 3 0 -12 -34
-35 -57 -39 -7 -1 -13 3 -13 9 0 7 -4 6 -9 -3 -6 -8 -8 -17 -5 -21 9 -15 -57
-14 -90 2 -20 9 -36 15 -36 12 0 -4 -9 2 -20 12 -10 9 -26 15 -34 12 -8 -3
-17 -3 -20 0 -3 4 -18 8 -33 9 -14 2 -29 8 -33 14 -8 13 -40 -13 -40 -32 0
-14 -59 -2 -79 16 -9 7 -24 12 -34 11 -18 -3 -57 27 -57 43 0 11 -49 34 -58
28 -4 -2 -8 11 -9 30 -1 23 -10 41 -25 53 -22 18 -22 20 -5 38 9 11 17 27 17
35 0 9 7 21 15 28 9 8 13 21 9 32 -6 20 -73 87 -87 88 -4 0 -22 13 -40 29 -17
16 -42 38 -55 49 -13 11 -22 24 -21 28 1 5 -7 13 -17 19 -10 5 -43 36 -73 68
-43 45 -61 57 -81 55 -18 -2 -26 2 -28 17 -4 17 -2 18 12 6 9 -7 16 -10 16 -5
0 14 -117 124 -124 117 -3 -4 -6 -1 -6 5 0 6 -9 14 -20 17 -11 3 -20 12 -20
19 0 15 -74 86 -90 86 -5 0 -10 7 -10 15 0 18 -27 20 -32 3 -7 -20 -30 3 -25
24 3 11 -4 29 -19 45 -13 14 -24 34 -24 44 0 10 -7 24 -15 31 -9 7 -40 45 -69
83 -30 39 -63 79 -74 91 -23 24 -47 66 -44 77 1 4 -2 7 -8 7 -5 0 -7 7 -4 15
4 9 -3 19 -20 26 -14 7 -26 19 -26 28 0 9 -9 24 -20 34 -11 9 -17 22 -14 30 5
15 -15 36 -61 61 -16 10 -23 15 -14 13 9 -3 22 -1 30 3 11 7 10 10 -4 16 -22
8 -22 21 1 27 9 3 2 5 -16 6 -36 1 -64 21 -54 38 4 5 16 15 27 22 18 11 18 12
1 7 -15 -5 -17 -4 -7 8 14 17 3 49 -15 42 -13 -5 -18 6 -15 26 0 4 -6 29 -15
54 -11 33 -13 49 -5 57 17 17 13 38 -6 36 -34 -3 -43 1 -43 21 0 18 -26 40
-49 40 -6 0 -11 -7 -11 -15 0 -8 -8 -15 -17 -15 -10 0 -14 4 -8 8 14 10 17 32
5 32 -5 0 -10 4 -10 8 0 15 34 9 63 -11 16 -10 31 -17 34 -14 3 3 15 -5 28
-19 21 -23 42 -34 31 -16 -3 5 6 16 20 26 27 21 31 41 9 50 -24 9 -20 72 5 79
11 3 20 0 21 -6 0 -7 7 3 15 21 15 34 11 54 -9 51 -7 -1 -20 1 -29 5 -10 5
-27 1 -42 -9 -18 -12 -26 -14 -26 -5 0 10 -4 9 -16 -1 -13 -10 -17 -10 -26 2
-8 11 -9 11 -4 -3 4 -13 -2 -20 -19 -24 -16 -4 -25 -13 -25 -26 0 -14 5 -18
16 -14 11 4 15 2 11 -7 -3 -7 1 -21 9 -32 10 -13 11 -22 3 -32 -6 -7 -15 -10
-21 -7 -5 3 -4 13 4 22 11 13 11 14 -2 7 -20 -13 -33 -13 -42 0 -5 6 -8 3 -8
-6 0 -27 -46 -29 -70 -4 l-21 23 21 19 c12 12 18 26 14 36 -7 21 -30 22 -41 3
-11 -19 -50 -29 -58 -16 -4 6 -4 14 0 18 3 3 9 1 14 -6 5 -9 12 -8 27 4 18 14
18 15 -5 8 -19 -5 -23 -3 -18 10 8 20 -16 22 -32 3 -15 -19 7 -74 33 -81 12
-3 23 -1 24 4 2 6 8 10 13 10 6 0 5 -8 -1 -20 -6 -11 -19 -19 -28 -18 -11 2
-18 -5 -20 -20 -2 -12 -8 -20 -13 -17 -5 4 -9 -2 -9 -12 0 -14 -2 -15 -9 -4
-7 11 -14 9 -36 -13 -14 -14 -30 -24 -35 -21 -8 5 -47 -12 -60 -25 -3 -3 -18
-7 -34 -8 -16 -1 -35 -7 -43 -13 -11 -10 -10 -15 7 -31 11 -10 20 -22 20 -25
0 -6 -22 12 -58 45 -16 15 -29 15 -37 2 -3 -5 -13 -10 -21 -10 -8 0 -12 4 -9
10 3 6 -1 10 -9 10 -8 0 -18 -5 -22 -12 -5 -7 -2 -8 7 -3 11 6 12 5 2 -5 -10
-11 -19 -9 -47 11 -29 19 -35 30 -34 55 1 25 5 31 17 27 9 -4 4 4 -11 16 -30
24 -38 47 -13 37 10 -4 15 1 15 15 0 11 -4 17 -10 14 -5 -3 -7 0 -4 8 5 13 -7
20 -52 32 -6 1 -10 -6 -10 -18 1 -11 -5 -22 -11 -24 -8 -3 -13 4 -13 16 0 12
-5 21 -11 21 -5 0 -7 -5 -3 -12 4 -6 3 -8 -4 -5 -5 4 -8 17 -5 30 4 20 3 21
-10 5 -21 -26 -41 -24 -27 2 9 16 8 20 -5 20 -8 0 -15 5 -15 12 0 9 -3 9 -12
0 -7 -7 -22 -12 -35 -12 -17 0 -21 -4 -16 -17 5 -15 3 -16 -8 -5 -7 6 -20 12
-28 12 -14 0 -14 -1 -1 -10 13 -9 13 -10 0 -11 -64 -6 -72 -4 -81 18 -5 13
-16 26 -25 30 -19 7 -50 -10 -47 -26 2 -6 -1 -11 -6 -11 -5 0 -11 -11 -13 -25
-3 -15 -1 -25 7 -25 7 0 12 -16 13 -37 1 -20 7 -40 13 -44 6 -4 9 -12 5 -18
-5 -7 -1 -9 8 -5 11 4 16 0 16 -14 0 -25 26 -49 33 -30 2 7 8 1 12 -14 4 -16
12 -25 18 -21 5 3 15 -1 21 -10 17 -22 73 -29 80 -10 3 8 10 11 16 8 6 -4 8
-10 6 -14 -9 -13 54 -52 85 -53 24 -1 29 -5 27 -22 -2 -15 2 -20 15 -18 9 2
17 -1 16 -5 -3 -22 15 -53 32 -53 11 0 19 -5 19 -10 0 -6 -11 -8 -25 -6 -31 6
-32 -2 -2 -14 17 -7 18 -9 5 -9 -29 -1 -18 -32 15 -44 18 -7 23 -32 7 -42 -18
-11 -60 7 -60 25 0 11 -4 22 -10 25 -6 3 -7 -1 -4 -10 5 -13 -2 -15 -45 -12
-30 1 -51 -2 -52 -8 -3 -26 4 -50 18 -60 13 -10 13 -15 2 -32 l-12 -21 -20 22
c-10 11 -16 15 -12 8 4 -7 -2 -15 -12 -19 -27 -10 -34 -26 -19 -43 24 -28 26
-49 6 -60 -15 -8 -20 -8 -20 3 0 7 -17 21 -37 31 -31 15 -34 15 -24 2 12 -14
10 -15 -20 -5 -19 7 -38 17 -44 23 -13 16 -48 29 -39 15 4 -7 -3 -9 -17 -7
-15 2 -23 -2 -22 -9 3 -15 -13 -17 -22 -4 -3 5 -1 12 5 16 6 4 8 10 5 15 -3 4
5 6 17 3 23 -5 23 -5 3 10 -15 12 -23 13 -34 4 -9 -8 -10 -12 -1 -15 7 -3 5
-11 -7 -25 -10 -11 -13 -17 -7 -14 14 8 26 -30 13 -39 -5 -3 -7 -9 -4 -13 2
-5 -8 -7 -23 -5 -14 1 -32 -2 -39 -8 -10 -8 -13 -6 -13 5 0 8 6 18 13 20 7 3
4 6 -7 6 -15 1 -17 -4 -13 -29 5 -23 3 -30 -9 -30 -9 0 -12 5 -8 12 4 7 3 8
-4 4 -7 -4 -12 -13 -12 -21 0 -21 -18 -28 -79 -32 -50 -3 -58 0 -74 22 -10 14
-13 25 -7 25 6 0 8 5 5 11 -4 6 -12 8 -19 6 -6 -3 -34 -1 -61 3 -34 5 -52 4
-57 -4 -4 -6 -8 -7 -8 -1 0 6 -5 3 -10 -5 -8 -13 -10 -12 -10 3 0 12 -4 16
-13 10 -6 -4 -20 -6 -31 -4 -11 1 -16 -2 -12 -8 5 -7 -6 -9 -32 -6 -36 5 -40
3 -35 -15 3 -11 0 -20 -6 -20 -6 0 -11 6 -11 13 0 13 -62 43 -84 41 -23 -2
-46 -16 -40 -26 3 -5 -2 -8 -12 -6 -11 2 -20 -4 -22 -14 -2 -12 2 -15 17 -11
16 4 21 1 21 -14 0 -10 5 -24 12 -31 17 -17 39 -15 32 3 -4 8 -1 15 5 15 6 0
11 -13 11 -29 0 -23 -5 -30 -27 -34 -27 -5 -73 10 -73 24 0 4 -7 10 -16 13
-13 5 -15 1 -10 -18 7 -30 -12 -86 -29 -86 -7 0 -15 -3 -18 -7 -2 -5 -2 -2 -1
5 5 18 -11 15 -31 -8 -14 -16 -20 -17 -27 -8 -11 18 -10 30 1 23 15 -9 23 13
12 32 -10 17 -10 17 -11 1 0 -10 -4 -18 -10 -18 -5 0 -10 5 -10 10 0 6 -9 10
-20 10 -21 0 -40 -27 -33 -47 2 -6 -1 -15 -8 -19 -7 -4 -9 -3 -5 4 3 6 1 14
-5 17 -6 4 -13 -2 -16 -14 -4 -16 -9 -18 -23 -11 -10 5 -20 17 -24 25 -3 9 -2
14 3 10 5 -3 16 -2 25 1 12 5 13 10 5 26 -8 15 -14 17 -24 8 -9 -8 -15 -8 -20
0 -3 6 -11 7 -17 4 -6 -4 -13 -1 -17 5 -11 18 -51 23 -44 5 3 -8 -3 -17 -13
-21 -11 -3 -22 -11 -26 -17 -4 -6 -22 -11 -42 -11 -32 -1 -34 1 -34 27 1 15 7
33 14 39 16 13 9 55 -14 82 -8 9 -12 17 -7 17 4 0 2 6 -4 14 -8 10 -9 16 -1
21 17 10 31 -5 24 -27 -5 -17 -3 -18 14 -9 11 6 22 7 26 3 4 -3 4 9 1 28 -3
18 -14 39 -23 46 -13 11 -14 13 -3 14 12 0 12 3 3 12 -16 16 -15 28 3 28 8 0
15 4 15 9 0 5 9 7 20 4 24 -6 26 3 5 23 -8 9 -15 12 -15 7 0 -5 -9 -9 -20 -9
-12 0 -20 7 -20 17 0 12 6 16 20 12 18 -5 19 -3 10 21 -11 30 6 38 18 9 10
-25 29 -26 27 -1 -1 17 -55 60 -55 44 0 -3 -11 -1 -25 4 -22 8 -25 7 -23 -8 2
-11 -3 -16 -14 -14 -10 2 -18 -1 -19 -5 0 -4 -2 -18 -5 -30 -2 -12 1 -25 6
-28 6 -3 10 -12 10 -18 -1 -7 -9 -2 -20 11 -14 17 -26 22 -42 17 -22 -6 -22
-6 -4 9 11 9 14 16 7 16 -6 0 -23 -12 -36 -26 -14 -15 -25 -22 -25 -16 0 6 -3
18 -7 28 -5 13 -3 15 7 9 9 -6 11 -4 6 4 -5 7 -10 10 -13 7 -3 -3 -12 1 -20 9
-13 14 -40 20 -69 16 -7 -1 -14 5 -18 14 -3 8 -10 15 -17 15 -6 0 -8 -7 -5
-17 4 -10 4 -14 0 -10 -4 4 -14 1 -22 -6 -13 -9 -14 -9 -8 1 7 12 4 13 -41 16
-29 1 -35 -17 -8 -22 11 -2 25 -10 30 -17 6 -7 19 -14 29 -16 11 -2 21 -10 23
-16 3 -9 -8 -12 -37 -11 -33 1 -46 7 -65 32 -20 25 -26 28 -39 17 -11 -9 -16
-10 -16 -2 0 6 4 11 9 11 5 0 8 6 7 13 0 6 1 12 4 13 3 0 16 6 29 14 24 12 24
13 5 28 -16 12 -16 14 -1 9 11 -4 17 -1 17 9 0 11 6 13 19 9 17 -5 19 -2 14
35 -4 28 -2 40 7 40 7 0 10 6 6 15 -3 8 -9 22 -12 31 -5 11 -2 15 12 12 15 -2
18 2 17 19 -2 13 2 24 7 24 14 2 30 6 33 9 1 1 21 3 44 4 29 1 44 -2 48 -12 4
-10 15 -13 38 -8 18 3 26 2 19 -2 -9 -6 -5 -15 17 -34 28 -26 46 -32 85 -29
15 1 16 4 6 16 -11 13 -10 14 4 9 9 -3 16 -1 16 5 0 6 4 11 9 11 4 0 7 -12 4
-28 -3 -26 -3 -26 7 -3 9 20 12 22 27 10 12 -10 14 -10 9 -1 -4 6 -2 12 4 12
6 0 13 -7 16 -15 4 -8 10 -15 16 -15 5 0 6 6 2 13 -6 9 -4 9 7 0 20 -19 29
-16 29 12 0 27 9 32 28 13 9 -9 12 -9 12 0 0 8 7 9 26 2 22 -9 25 -8 20 5 -3
9 0 15 8 15 17 0 26 22 21 50 -2 11 0 18 4 15 5 -2 14 2 21 10 7 8 9 15 4 15
-4 0 -3 5 3 11 6 6 9 18 6 27 -4 10 -2 13 5 8 6 -3 13 -2 17 4 4 6 10 8 14 6
4 -3 7 5 7 17 -1 12 4 21 10 20 6 -1 11 3 12 10 11 82 18 102 38 105 18 3 20
8 16 75 -2 39 -9 78 -15 86 -10 11 -9 13 2 10 7 -3 21 -23 29 -44 9 -22 22
-46 29 -53 7 -7 13 -18 13 -23 0 -5 9 -1 19 8 11 9 17 21 14 27 -3 6 -3 8 2 4
11 -11 35 11 35 32 0 17 25 21 48 7 7 -5 10 -3 7 5 -3 7 4 19 16 26 12 8 18 9
15 4 -3 -5 3 -12 13 -15 12 -3 18 0 15 7 -5 13 51 40 69 33 18 -7 32 -3 29 7
-2 5 5 3 14 -5 16 -12 17 -12 11 4 -6 15 -4 16 14 6 12 -6 19 -7 16 -2 -3 5
-2 15 4 23 7 13 9 12 9 -2 0 -10 5 -18 11 -18 5 0 7 5 3 11 -4 7 -1 10 7 7 8
-3 24 -1 36 3 17 6 25 4 32 -9 7 -12 10 -13 11 -3 0 8 7 11 20 8 17 -4 24 2
22 23 -1 10 73 -2 88 -15 8 -6 23 -15 34 -19 11 -4 16 -12 12 -22 -3 -8 -2
-12 3 -9 5 3 12 1 16 -5 3 -5 14 -10 24 -10 10 0 24 -12 32 -27 15 -29 28 -43
43 -43 5 0 2 8 -5 17 -12 15 -12 16 6 9 11 -5 25 -8 30 -7 6 0 27 2 47 4 20 1
40 6 44 9 3 4 20 4 36 1 23 -4 35 0 58 22 23 22 27 32 19 42 -8 9 -8 13 0 13
6 0 13 -11 17 -25 5 -20 9 -23 24 -15 9 5 20 6 24 3 3 -3 6 -1 6 5 0 7 -8 12
-18 12 -25 0 -31 7 -25 31 6 22 23 26 23 4 0 -10 7 -14 23 -11 12 3 24 5 27 5
3 1 -2 6 -10 11 -13 8 -12 11 5 24 11 9 16 16 12 16 -5 0 10 17 33 39 28 26
38 41 30 46 -15 10 6 25 35 25 11 0 25 10 30 23 6 12 17 23 25 23 8 1 18 3 23
4 4 1 12 4 17 5 6 1 13 4 18 5 4 1 10 2 14 1 4 0 5 7 2 17 -5 15 -4 15 8 2 9
-11 27 -14 58 -12 54 3 55 3 103 -2 28 -3 37 0 37 12 0 8 3 12 7 9 3 -4 12 -2
20 4 7 6 13 9 13 5 0 -4 14 1 31 9 17 9 28 19 25 22 -5 6 22 28 61 50 14 8 24
9 28 3 4 -6 11 -7 18 -3 6 3 32 6 59 6 44 -1 48 1 48 23 0 13 5 24 10 24 6 0
10 6 10 13 0 14 65 77 80 77 14 0 29 32 33 71 2 19 7 41 10 49 3 8 10 35 17
60 6 25 13 52 15 60 2 8 4 23 4 33 1 9 8 17 16 17 12 0 14 4 5 20 -8 15 -6 21
9 30 13 7 22 7 26 0 3 -5 2 -10 -3 -10 -13 0 -21 -59 -9 -67 5 -3 7 -50 4
-109 -3 -57 -3 -105 1 -106 26 -5 60 -4 56 3 -3 5 -1 9 5 9 5 0 15 17 22 38 7
20 14 32 16 25 2 -7 -1 -21 -6 -32 -7 -13 -8 -22 -1 -26 5 -3 10 3 10 14 0 10
4 21 8 23 5 1 16 39 25 83 12 62 55 226 80 310 2 6 13 30 24 55 12 25 31 69
42 97 48 118 147 323 181 373 10 14 20 35 24 47 4 12 20 33 36 47 19 16 25 26
17 30 -7 3 -2 8 11 12 13 4 19 10 14 13 -13 8 27 91 51 105 13 8 20 8 26 -2 5
-9 11 1 16 30 4 24 9 37 12 30 4 -10 8 -10 19 -1 18 15 18 1 1 -20 -8 -9 -21
-37 -31 -63 -9 -25 -24 -52 -32 -58 -7 -7 -14 -19 -14 -26 0 -8 -4 -14 -10
-14 -5 0 -10 -6 -10 -14 0 -7 -7 -19 -15 -26 -8 -7 -12 -17 -9 -22 4 -6 3 -13
-2 -17 -5 -3 -22 -31 -38 -61 -16 -30 -35 -62 -42 -71 -8 -9 -11 -19 -7 -22 3
-4 1 -7 -5 -7 -7 0 -11 -3 -11 -7 3 -13 -25 -73 -33 -73 -4 0 -8 -9 -8 -20 0
-12 -7 -31 -15 -44 -8 -12 -16 -34 -17 -49 -1 -15 -5 -27 -8 -27 -3 0 -6 -8
-7 -17 -1 -10 -9 -40 -18 -66 -9 -27 -17 -57 -18 -68 -1 -10 -5 -19 -10 -19
-5 0 -7 -11 -5 -25 3 -14 1 -25 -4 -25 -5 0 -8 -6 -5 -12 2 -7 -2 -31 -10 -52
-7 -22 -11 -41 -8 -44 3 -3 5 0 5 7 0 7 5 9 10 6 6 -4 7 -11 4 -17 -5 -7 -2
-9 7 -6 10 4 14 -3 15 -28 1 -39 8 -49 24 -39 9 6 9 10 -1 17 -10 6 -7 7 10 3
16 -5 21 -4 17 4 -4 6 -1 11 7 11 9 0 28 32 48 83 18 45 46 105 62 134 15 29
26 56 23 61 -2 4 -1 14 4 22 12 19 26 5 35 -32 6 -22 4 -28 -9 -28 -9 0 -16
-5 -16 -11 0 -6 7 -8 15 -5 9 3 18 -1 21 -9 4 -8 13 -15 21 -15 8 0 11 -5 8
-10 -5 -8 -12 -7 -22 2 -14 11 -15 10 -8 -12 7 -22 6 -23 -8 -12 -12 10 -17
10 -23 1 -4 -7 -3 -9 4 -5 6 3 14 2 17 -4 4 -7 11 -7 18 -2 8 6 18 2 30 -10 9
-10 13 -18 7 -18 -5 0 -10 -4 -10 -10 0 -17 40 -11 47 8 4 9 12 20 19 25 7 4
10 15 7 25 -3 9 -3 14 2 10 11 -11 38 20 31 37 -3 8 -1 15 4 15 6 0 10 10 10
23 0 12 4 18 8 12 15 -21 41 -16 48 10 3 14 10 25 15 25 5 0 9 9 9 20 0 11 4
20 8 20 4 0 8 12 8 27 -1 19 5 29 17 31 12 2 17 -3 17 -17 0 -30 17 -26 34 8
9 16 33 48 56 71 22 23 40 48 40 55 0 20 41 30 51 14 13 -21 11 -29 -8 -29
-15 0 -16 -2 -3 -10 24 -15 28 -12 26 20 -1 17 1 30 6 30 7 0 12 -15 9 -32 0
-5 4 -8 10 -8 6 0 9 9 6 20 -3 11 -1 18 3 15 5 -3 16 2 24 11 18 17 21 12 7
-14 -5 -9 -15 -32 -21 -49 -7 -18 -16 -30 -21 -27 -5 3 -10 -1 -11 -8 -1 -15
-5 -31 -8 -38 -1 -3 -4 -20 -7 -39 -4 -30 -2 -33 16 -28 12 3 21 1 21 -5 0 -5
5 -6 11 -3 6 4 8 13 5 20 -2 7 1 16 9 19 10 3 12 0 9 -12 -5 -15 -3 -14 10 2
8 10 19 15 25 12 11 -7 34 28 24 38 -3 3 -1 6 6 6 8 0 10 -8 6 -22 -6 -22 -6
-22 9 -4 9 11 16 16 16 10 0 -5 5 -2 10 6 5 8 7 23 4 34 -6 18 -6 18 18 0 16
-12 25 -28 24 -44 -1 -22 -5 -25 -28 -22 -17 3 -28 0 -28 -7 0 -7 4 -9 10 -6
6 3 10 1 10 -6 0 -8 4 -8 15 1 11 9 15 9 15 1 0 -8 4 -8 14 1 8 7 12 16 9 21
-2 4 4 7 13 7 10 0 15 3 11 6 -8 9 36 49 50 46 21 -5 55 18 49 34 -3 8 1 14 9
14 8 0 15 -7 15 -15 0 -8 9 -15 20 -15 11 0 20 -5 20 -11 0 -5 5 -7 11 -3 8 4
6 10 -6 17 -14 8 -15 11 -4 18 8 5 19 9 24 9 6 0 3 -5 -5 -10 -9 -6 -10 -10
-3 -10 6 0 15 5 18 10 4 6 11 8 16 5 5 -4 6 2 2 12 -6 15 -5 16 9 3 9 -8 14
-18 11 -22 -8 -14 8 -9 23 7 17 16 39 21 30 6 -6 -9 22 -26 37 -23 4 1 7 -6 7
-15 0 -12 3 -14 8 -6 4 6 20 10 35 9 15 -2 27 1 27 6 0 5 6 8 13 7 6 -1 19 -1
27 0 13 1 13 2 0 11 -13 8 -13 10 1 10 9 0 19 -7 23 -15 3 -8 2 -14 -2 -14
-19 3 -26 -2 -13 -10 10 -6 19 -3 30 9 9 10 26 21 39 25 23 7 23 6 6 -14 -13
-15 -20 -17 -26 -8 -6 9 -8 9 -8 0 0 -20 18 -24 34 -7 9 8 21 12 28 8 8 -5 9
-2 5 10 -4 9 -3 15 2 12 5 -3 12 1 15 10 4 9 9 14 13 11 3 -4 12 -2 20 4 7 6
23 9 35 6 21 -6 22 -5 5 8 -12 8 -14 15 -8 20 17 10 31 -4 31 -30 0 -19 -4
-23 -17 -18 -16 6 -16 5 -4 -11 12 -15 17 -15 25 -4 16 20 57 21 73 1 13 -16
13 -16 3 5 -10 21 -21 26 -47 23 -7 -1 -13 3 -13 8 0 17 20 23 34 11 8 -6 26
-8 40 -4 16 4 26 2 26 -5 0 -6 4 -11 10 -11 5 0 7 7 3 16 -5 14 -3 15 16 5 19
-11 22 -9 27 19 6 27 24 43 24 20 0 -5 7 -6 17 -3 10 4 14 2 10 -4 -4 -6 0
-13 8 -17 8 -3 17 -1 20 4 4 6 1 10 -4 10 -13 0 -14 10 -2 29 8 13 12 13 27 0
16 -12 17 -12 12 2 -5 13 0 16 25 16 55 0 68 3 62 13 -3 6 1 10 11 10 12 0 14
-3 6 -12 -9 -12 -8 -65 2 -75 2 -3 15 1 28 8 51 28 114 30 104 3 -3 -9 -2 -12
5 -8 6 3 9 14 6 24 -3 12 2 20 14 23 22 6 24 -3 7 -22 -11 -11 -9 -11 9 -2 15
7 20 18 19 36 -2 14 0 25 5 25 18 0 39 -13 39 -25 0 -19 20 -29 32 -17 6 6 6
12 -1 16 -19 12 -12 32 11 33 13 1 24 7 26 13 7 19 61 11 72 -10 8 -16 7 -24
-7 -39 -22 -24 -73 -45 -73 -31 0 6 -4 10 -10 10 -5 0 -10 -7 -10 -15 0 -8 -4
-15 -9 -15 -5 0 -13 -9 -16 -20 -4 -11 -10 -18 -15 -15 -5 3 -10 0 -12 -6 -2
-6 -16 1 -31 15 -15 14 -25 23 -22 20 2 -4 0 -15 -5 -25 -7 -12 -7 -20 0 -24
5 -3 10 -1 10 5 0 7 5 10 11 8 12 -4 13 -23 2 -23 -5 0 -14 -4 -22 -9 -9 -6
-12 -5 -8 1 4 6 0 16 -8 23 -18 15 -20 0 -4 -33 10 -21 10 -21 -5 -3 -15 18
-21 15 -17 -7 1 -5 -3 -6 -9 -2 -5 3 -10 1 -10 -5 0 -9 38 -9 60 0 3 1 9 2 13
1 5 -1 6 3 3 8 -3 5 9 11 26 15 35 7 51 -7 42 -36 -3 -10 3 -21 13 -27 11 -6
13 -11 5 -11 -7 0 -10 -4 -7 -10 3 -5 18 -9 33 -9 17 1 21 3 10 6 -10 2 -18
12 -18 21 1 13 7 10 26 -11 16 -19 30 -27 42 -22 9 3 13 3 10 -1 -8 -8 14 -34
25 -27 4 2 7 -1 7 -6 0 -6 -4 -11 -10 -11 -5 0 -10 -11 -10 -24 0 -16 7 -26
23 -31 13 -4 17 -8 10 -12 -28 -11 -11 -21 29 -17 39 4 40 3 22 -11 -18 -14
-18 -15 5 -12 13 1 25 -4 27 -11 1 -7 0 -8 -2 -3 -6 11 -44 2 -44 -10 0 -5 8
-9 18 -9 10 0 23 -5 29 -11 8 -8 13 -8 18 1 5 7 13 4 25 -10 10 -12 22 -20 27
-18 4 1 14 -10 21 -25 7 -15 21 -27 32 -27 10 0 22 -5 25 -11 4 -6 13 -8 20
-5 9 3 12 -2 10 -14 -3 -13 1 -17 11 -13 10 4 17 -2 21 -16 3 -11 9 -18 14
-15 5 3 9 0 9 -5 0 -6 7 -11 15 -11 8 0 15 -4 15 -10 0 -15 -19 -12 -49 9 -14
10 -46 24 -70 31 -37 10 -46 9 -62 -6 -10 -9 -19 -21 -19 -26 0 -5 7 -2 16 6
19 20 31 21 15 2 -9 -11 -7 -15 9 -19 24 -6 27 -27 3 -27 -15 0 -15 -1 2 -14
11 -8 16 -20 12 -29 -3 -8 0 -20 7 -27 10 -8 15 -7 19 4 3 8 1 16 -6 19 -8 2
-8 5 1 11 7 4 12 2 12 -4 0 -6 6 -8 13 -4 10 6 10 4 0 -7 -18 -19 -17 -63 1
-56 9 4 16 -3 20 -19 4 -13 14 -24 22 -24 10 0 14 -6 11 -14 -4 -10 -1 -13 7
-10 8 3 17 0 22 -7 5 -8 3 -10 -6 -4 -8 5 -11 4 -7 -2 8 -12 135 -14 142 -2 3
4 13 5 23 2 10 -2 49 3 88 12 38 9 85 19 104 21 19 3 37 9 40 14 3 5 14 8 24
6 10 -1 39 2 65 6 25 5 75 13 111 18 36 5 89 12 118 16 39 5 57 3 70 -8 9 -8
34 -23 55 -33 20 -11 37 -22 37 -26 0 -4 15 -13 33 -20 17 -7 37 -18 43 -24 6
-5 26 -24 45 -40 43 -38 68 -76 83 -128 12 -42 45 -73 53 -49 8 20 23 14 23
-9 0 -21 3 -22 93 -15 62 4 87 3 77 -4 -8 -5 -36 -10 -61 -10 -25 0 -73 -3
-106 -6 l-61 -7 -9 -47 c-6 -31 -6 -55 0 -65 7 -13 6 -16 -2 -11 -7 5 -11 -1
-11 -16 0 -13 -5 -29 -12 -36 -7 -7 -9 -12 -5 -12 12 0 -22 -61 -75 -132 -53
-73 -138 -156 -226 -220 -71 -52 -248 -158 -287 -171 -16 -5 -34 -13 -40 -17
-13 -9 -152 -57 -187 -64 -18 -4 -34 -20 -49 -46 -13 -22 -29 -40 -36 -40 -7
0 -13 3 -13 6 0 11 28 33 34 27 3 -4 6 1 6 10 0 20 -3 20 -53 6 -22 -6 -35
-14 -31 -21 4 -7 -1 -8 -16 -3 -15 5 -25 2 -31 -6 -5 -8 -21 -13 -39 -11 -16
2 -30 -1 -30 -7 0 -6 -6 -8 -14 -5 -8 3 -33 -4 -56 -16 -23 -12 -39 -17 -35
-11 4 7 -2 10 -17 7 -13 -3 -26 -5 -30 -5 -4 -1 -6 -7 -4 -13 1 -7 1 -10 -1
-5 -6 9 -33 9 -33 -1 0 -4 -17 -7 -37 -6 -45 1 -100 -15 -83 -26 8 -5 7 -10
-4 -20 -9 -7 -13 -17 -9 -24 4 -7 1 -6 -9 1 -8 7 -18 10 -21 6 -4 -3 -7 3 -7
15 0 12 -5 22 -11 22 -6 0 -9 -7 -5 -15 3 -8 1 -15 -4 -15 -6 0 -10 4 -10 9 0
12 -42 1 -58 -16 -7 -7 -22 -13 -33 -13 -10 0 -19 -4 -19 -9 0 -5 -12 -9 -28
-10 -58 -1 -62 -2 -62 -22 0 -20 -15 -26 -25 -9 -3 6 -1 10 4 10 6 0 11 5 11
12 0 6 -3 8 -6 5 -4 -3 -15 -2 -25 4 -15 7 -19 6 -19 -5 0 -16 -27 -30 -52
-27 -9 1 -20 -3 -24 -10 -5 -9 -1 -10 14 -7 15 4 22 2 22 -7 0 -8 8 -12 20
-10 11 2 25 -4 33 -16 8 -10 16 -17 18 -14 3 2 21 0 42 -4 21 -5 35 -5 31 0
-3 5 1 9 10 9 8 0 16 -5 18 -11 8 -24 478 -7 660 24 16 3 47 8 70 12 81 12
258 57 264 66 3 5 14 9 24 9 11 0 34 6 52 14 73 32 233 96 239 96 10 0 208
113 253 143 21 15 44 27 50 27 17 0 92 65 214 186 98 98 112 117 112 146 0 25
3 29 10 18 6 -10 10 -11 10 -3 0 7 15 20 33 29 17 9 38 25 45 35 7 10 20 25
28 34 9 8 17 21 18 28 15 72 20 86 31 91 8 3 17 21 21 40 3 20 9 36 13 36 8 0
11 28 6 47 -3 9 -11 10 -30 3 -16 -6 -25 -6 -25 0 0 6 4 10 10 10 5 0 19 10
30 23 20 20 21 20 18 3 -1 -10 2 -21 7 -22 6 -2 11 9 12 26 1 18 -2 29 -9 27
-7 -1 -14 11 -17 27 l-6 29 -14 -26 c-18 -33 -41 -35 -41 -3 0 28 24 51 45 42
9 -3 15 0 15 10 0 10 -6 14 -14 11 -15 -6 -46 22 -46 40 0 6 -6 16 -14 23 -8
6 -13 17 -11 23 2 7 6 26 9 43 5 29 3 31 -23 28 -19 -2 -28 1 -28 11 0 8 4 15
9 15 5 0 2 10 -6 21 -8 12 -12 28 -9 36 3 8 0 13 -8 11 -8 -2 -13 3 -11 10 1
6 -4 12 -12 12 -9 0 -13 7 -11 20 2 12 -2 20 -10 20 -8 0 -11 7 -8 20 5 19 6
20 20 3 8 -10 11 -12 7 -4 -10 20 39 6 83 -24 36 -24 114 -108 149 -160 77
-113 75 -285 -3 -495 -37 -99 -55 -133 -85 -163 -10 -10 -33 -41 -51 -70 -19
-28 -48 -65 -65 -82 -17 -16 -37 -36 -44 -43 -132 -131 -158 -153 -252 -215
-10 -6 -31 -22 -46 -35 -15 -12 -31 -22 -35 -22 -4 0 -21 -10 -38 -22 -18 -13
-82 -48 -145 -79 -62 -30 -109 -58 -106 -62 4 -3 -12 -9 -35 -13 -23 -4 -48
-13 -56 -20 -7 -8 -23 -14 -36 -14 -32 0 -99 -22 -99 -32 0 -6 -6 -8 -12 -5
-19 6 -79 -13 -97 -30 -9 -10 -16 -12 -19 -5 -4 12 -62 -5 -62 -18 0 -5 -12
-7 -26 -5 -14 1 -58 -6 -97 -16 -241 -60 -721 -71 -1096 -24 -62 7 -122 12
-132 10 -10 -2 -19 0 -19 6 0 13 -34 11 -49 -4 -11 -9 -14 -9 -18 1 -3 6 -16
12 -29 12 -15 0 -24 6 -24 16 0 13 -3 14 -14 5 -9 -8 -16 -8 -20 -2 -4 6 -33
13 -66 17 -46 5 -60 10 -60 23 0 11 -3 12 -8 4 -5 -7 -28 -10 -65 -8 -67 5
-77 9 -77 36 0 16 -5 18 -27 14 -15 -2 -30 0 -33 5 -3 5 -30 12 -60 16 -30 4
-60 13 -68 20 -7 8 -18 14 -23 14 -6 0 -7 6 -3 13 5 9 4 9 -6 0 -11 -10 -16
-9 -25 4 -7 9 -18 17 -26 19 -35 5 -45 10 -58 28 -14 18 -14 18 -28 0 -13 -18
-13 -17 -11 6 2 17 -3 25 -17 28 -11 2 -23 8 -26 14 -3 5 -6 -5 -6 -22 0 -23
7 -33 29 -42 15 -7 28 -17 28 -21 0 -5 -6 -5 -12 -1 -9 5 -9 3 1 -9 7 -9 17
-14 22 -11 13 8 56 -24 62 -46 6 -22 0 -25 -23 -10 -10 6 -11 10 -2 10 6 0 12
5 12 11 0 6 -7 8 -16 5 -8 -3 -12 -2 -9 3 3 5 1 12 -5 16 -5 3 -10 1 -10 -5 0
-6 -8 -10 -17 -8 -13 2 -17 -3 -15 -17 2 -15 1 -17 -6 -6 -5 7 -7 22 -4 33 4
18 2 19 -17 9 -17 -10 -21 -9 -21 3 0 19 -14 28 -34 20 -16 -6 -13 -24 5 -24
6 0 7 5 4 10 -3 6 -1 10 4 10 14 0 14 -17 1 -25 -5 -3 -25 5 -44 20 -29 22
-35 23 -46 10 -7 -8 -17 -12 -22 -9 -5 4 -2 -8 6 -25 9 -17 20 -31 24 -31 4 0
15 -12 26 -26 l18 -26 -23 13 c-13 6 -30 18 -37 26 -8 7 -17 11 -22 8 -5 -3
-15 4 -24 16 -8 13 -27 22 -46 24 -17 1 -37 11 -45 21 -7 11 -16 17 -18 14 -7
-6 109 -135 123 -136 5 -1 14 -2 18 -3 4 0 8 -10 9 -21 1 -14 -4 -20 -18 -20
-10 0 -19 7 -19 15 0 19 -49 64 -69 65 -8 0 -12 3 -8 6 7 8 -33 54 -48 54 -7
0 -20 9 -30 20 -10 11 -23 20 -29 20 -6 0 -17 13 -24 30 -14 30 -50 44 -38 15
7 -20 -3 -19 -27 2 -11 10 -17 12 -13 5 5 -8 1 -18 -10 -26 -11 -9 -15 -19
-10 -32 5 -12 4 -15 -2 -9 -5 6 -13 20 -17 33 -5 16 -2 22 9 22 9 0 16 5 16
11 0 6 -7 9 -15 6 -8 -4 -17 -2 -20 3 -5 9 16 14 52 13 6 0 9 6 6 15 -5 11 -3
13 8 7 8 -5 5 1 -5 13 -21 25 -36 31 -16 7 10 -12 10 -15 -4 -15 -9 0 -16 5
-16 11 0 5 -4 8 -10 4 -5 -3 -6 -13 -3 -22 5 -13 2 -13 -23 3 -16 10 -23 11
-17 4 18 -20 16 -35 -3 -20 -13 12 -14 10 -3 -13 7 -15 15 -24 19 -22 4 3 10
-6 12 -20 3 -13 1 -26 -5 -28 -6 -2 -5 -11 2 -25 11 -22 11 -22 -8 -10 -12 7
-21 21 -21 31 0 10 5 15 10 12 6 -3 10 -1 10 4 0 6 -4 11 -10 11 -5 0 -10 7
-10 15 0 8 -5 15 -12 15 -6 0 -20 7 -30 16 -14 13 -21 14 -32 5 -16 -13 -56 1
-56 19 0 6 -8 10 -17 10 -15 0 -16 -2 -3 -10 13 -8 12 -10 -2 -10 -10 0 -18 6
-18 13 0 8 -12 19 -27 26 l-28 13 23 -25 c21 -23 22 -26 7 -41 -9 -9 -12 -16
-6 -16 6 0 11 -9 11 -21 0 -11 5 -29 10 -40 20 -37 1 -19 -21 20 -12 22 -31
42 -42 45 -12 3 -18 8 -14 12 3 4 2 15 -4 25 -8 16 -13 17 -29 6 -12 -7 -18
-18 -15 -27 4 -8 3 -11 -1 -7 -4 4 -13 2 -19 -3 -9 -7 -16 -6 -25 5 -7 8 -18
15 -24 15 -6 0 -4 -5 4 -10 13 -8 12 -10 -4 -10 -14 0 -17 5 -12 24 5 20 1 27
-21 38 -26 13 -35 25 -48 63 -5 13 -9 15 -12 7 -3 -6 -9 -9 -15 -6 -6 4 -8
-16 -5 -55 2 -34 1 -61 -3 -61 -15 0 -2 -65 15 -75 38 -21 55 -46 53 -74 -1
-16 4 -36 11 -45 8 -9 11 -19 8 -23 -12 -12 54 -118 129 -208 92 -110 187
-209 284 -295 40 -36 93 -84 118 -107 24 -24 48 -43 52 -43 5 0 15 -6 22 -12
7 -7 42 -33 78 -58 36 -24 71 -50 78 -57 13 -12 87 -62 217 -145 131 -83 190
-117 217 -123 14 -4 36 -16 48 -27 21 -19 102 -64 293 -160 53 -27 152 -69
220 -94 67 -24 154 -58 192 -74 39 -17 75 -30 81 -30 7 0 25 -7 40 -15 16 -8
36 -15 44 -15 8 0 28 -7 44 -15 15 -8 32 -12 37 -9 5 3 12 -2 15 -11 4 -9 14
-15 23 -14 9 2 30 -1 48 -5 32 -7 69 -13 149 -20 22 -3 59 -14 82 -26 23 -12
46 -18 53 -15 6 4 14 3 18 -3 4 -6 34 -13 67 -16 33 -2 77 -8 98 -12 28 -5 37
-4 32 5 -4 6 -2 11 3 11 6 0 11 -7 11 -15 0 -13 17 -16 103 -15 56 0 149 -2
207 -5 69 -3 167 2 284 15 99 11 183 20 188 20 5 0 6 4 3 10 -9 15 4 30 21 23
13 -5 13 -8 2 -15 -8 -6 7 -8 42 -4 105 9 142 16 156 27 11 9 14 8 14 -1 0 -9
4 -9 13 -2 6 6 30 13 52 17 47 8 103 24 127 36 10 5 27 9 37 9 11 0 23 5 26
10 4 6 10 8 15 5 5 -3 28 2 52 10 24 9 71 25 105 36 34 11 69 26 77 34 8 8 29
15 46 15 18 0 44 7 58 15 54 29 139 65 155 65 10 0 26 9 37 20 11 11 31 20 45
20 14 0 25 3 25 8 0 4 34 22 75 41 41 19 75 38 75 43 0 4 5 8 12 8 18 0 47 31
42 45 -3 7 2 15 12 19 12 4 15 2 10 -9 -8 -21 -1 -19 28 9 13 14 39 29 58 35
18 5 27 10 21 10 -24 2 -13 17 22 30 19 7 33 16 31 19 -5 8 22 48 29 45 11 -5
35 10 35 22 0 8 9 17 20 20 11 3 20 10 20 15 0 4 9 6 21 3 12 -3 18 -11 15
-19 -3 -8 -1 -14 3 -14 5 0 11 7 15 15 3 8 1 15 -4 15 -16 0 -11 29 8 48 10
10 23 17 29 15 14 -5 25 25 13 32 -17 10 -11 25 9 25 11 0 28 12 38 26 10 14
27 27 38 28 11 2 19 9 17 15 -1 6 3 10 10 9 6 -2 17 8 25 22 7 14 13 20 13 13
0 -26 26 -1 43 42 11 25 23 45 28 45 4 0 5 8 2 17 -5 12 -2 15 10 10 18 -7 57
23 57 43 0 6 11 23 25 38 30 32 38 105 9 81 -9 -7 -20 -24 -25 -37 -7 -18 -14
-22 -32 -17 -20 5 -20 5 -3 -6 17 -11 17 -12 -5 -23 -13 -6 -29 -22 -35 -34
-10 -20 -12 -21 -18 -7 -3 9 -3 21 0 27 4 6 1 9 -7 6 -8 -3 -14 -11 -14 -19
-1 -21 -13 -38 -38 -50 -18 -8 -16 -5 6 15 16 15 22 26 15 26 -16 0 -50 -24
-83 -58 -12 -12 -27 -22 -33 -22 -6 0 -15 -6 -19 -13 -4 -8 -27 -26 -51 -42
-23 -15 -42 -32 -42 -36 0 -5 -4 -9 -9 -9 -5 0 -46 -23 -90 -51 -76 -48 -100
-58 -83 -33 4 5 36 32 72 59 112 84 179 147 173 163 -5 10 -1 13 13 8 15 -4
43 16 116 84 62 58 95 96 92 105 -4 9 4 19 20 26 14 7 28 20 32 31 7 23 51 68
58 60 3 -3 6 1242 6 2765 0 2208 -3 2772 -12 2776 -10 4 -10 6 0 6 9 1 12 61
12 266 l0 265 -3059 0 c-2624 0 -3063 -2 -3086 -14 -27 -14 -55 -12 -55 5 0 4
-247 8 -549 9 -483 0 -549 -1 -555 -15 -3 -8 -10 -15 -17 -15 -6 0 -9 7 -5 15
5 13 -161 15 -1454 15 l-1460 0 0 -3364z m2990 3283 c0 -11 -4 -19 -10 -19
-13 0 -28 32 -23 48 7 18 33 -5 33 -29z m1114 25 c16 -6 23 -25 9 -22 -5 0
-16 -2 -25 -6 -25 -11 -49 0 -42 19 6 16 31 19 58 9z m5160 -9 c-4 -8 -11 -15
-16 -15 -6 0 -5 6 2 15 7 8 14 15 16 15 2 0 1 -7 -2 -15z m-6619 -15 c3 -5 1
-10 -4 -10 -6 0 -11 5 -11 10 0 6 2 10 4 10 3 0 8 -4 11 -10z m965 -4 c0 -3
-4 -8 -10 -11 -5 -3 -10 -1 -10 4 0 6 5 11 10 11 6 0 10 -2 10 -4z m478 -28
c-5 -16 -48 -24 -48 -10 0 11 17 20 38 21 8 1 12 -5 10 -11z m-753 -38 c3 -5
1 -10 -4 -10 -6 0 -11 5 -11 10 0 6 2 10 4 10 3 0 8 -4 11 -10z m575 -6 c0 -8
-4 -12 -10 -9 -5 3 -10 10 -10 16 0 5 5 9 10 9 6 0 10 -7 10 -16z m670 -14 c0
-5 -5 -10 -11 -10 -5 0 -7 5 -4 10 3 6 8 10 11 10 2 0 4 -4 4 -10z m630 -20
c0 -5 -2 -10 -4 -10 -3 0 -8 5 -11 10 -3 6 -1 10 4 10 6 0 11 -4 11 -10z
m-1325 -48 c-22 -5 -27 1 -19 23 7 17 8 17 21 -1 12 -17 12 -19 -2 -22z m-98
-16 c-1 -32 -2 -32 -19 -16 -20 18 -15 50 7 50 8 0 13 -12 12 -34z m33 -1 c0
-8 -4 -15 -10 -15 -5 0 -10 7 -10 15 0 8 5 15 10 15 6 0 10 -7 10 -15z m-580
-21 c0 -8 -5 -12 -10 -9 -6 4 -8 11 -5 16 9 14 15 11 15 -7z m875 6 c3 -5 1
-10 -4 -10 -6 0 -11 5 -11 10 0 6 2 10 4 10 3 0 8 -4 11 -10z m6075 6 c0 -11
-19 -15 -25 -6 -3 5 1 10 9 10 9 0 16 -2 16 -4z m-7085 -36 c0 -20 -5 -25 -25
-25 -37 0 -52 13 -39 37 7 13 19 18 37 16 21 -2 27 -8 27 -28z m630 20 c3 -5
1 -10 -4 -10 -6 0 -11 5 -11 10 0 6 2 10 4 10 3 0 8 -4 11 -10z m-455 -20 c0
-5 -4 -10 -9 -10 -6 0 -13 5 -16 10 -3 6 1 10 9 10 9 0 16 -4 16 -10z m5690 0
c0 -5 -5 -10 -11 -10 -5 0 -7 5 -4 10 3 6 8 10 11 10 2 0 4 -4 4 -10z m-5926
-55 c3 -8 12 -15 21 -15 22 0 19 -18 -5 -25 -24 -8 -55 19 -46 40 7 19 22 19
30 0z m2286 -4 c0 -6 -4 -13 -10 -16 -5 -3 -10 1 -10 9 0 9 5 16 10 16 6 0 10
-4 10 -9z m-1182 -26 c-4 -31 -17 -36 -32 -12 -8 14 -8 20 4 27 24 16 32 12
28 -15z m-58 11 c0 -3 -4 -8 -10 -11 -5 -3 -10 -1 -10 4 0 6 5 11 10 11 6 0
10 -2 10 -4z m-832 -44 c2 -7 -7 -16 -20 -21 -25 -9 -38 1 -38 31 0 13 6 15
27 9 15 -4 28 -12 31 -19z m382 4 c0 -8 -4 -18 -10 -21 -5 -3 -10 3 -10 14 0
12 5 21 10 21 6 0 10 -6 10 -14z m80 10 c0 -3 -4 -8 -10 -11 -5 -3 -10 -1 -10
4 0 6 5 11 10 11 6 0 10 -2 10 -4z m-599 -33 c12 -15 12 -16 -5 -10 -15 6 -17
4 -13 -14 5 -20 4 -21 -9 -7 -8 8 -12 22 -8 31 8 21 18 21 35 0z m-77 -39 c7
-17 -10 -19 -21 -1 -4 6 -14 12 -22 12 -8 0 -16 6 -18 12 -6 18 54 -4 61 -23z
m1067 1 c-1 -15 -24 -12 -29 3 -3 9 2 13 12 10 10 -1 17 -7 17 -13z m-925 -4
c-4 -5 -1 -12 4 -14 6 -3 5 -4 -2 -3 -15 3 -23 26 -8 26 6 0 9 -4 6 -9z m774
0 c0 -5 -8 -19 -18 -32 l-19 -22 1 24 c1 23 12 39 29 39 4 0 7 -4 7 -9z m5480
-12 c0 -24 -23 -21 -28 4 -2 10 3 17 12 17 10 0 16 -9 16 -21z m-6330 -27 c0
-11 5 -9 19 7 16 18 23 20 40 12 29 -16 51 -13 51 7 1 12 6 8 16 -12 11 -19
19 -25 23 -17 5 7 12 3 19 -14 7 -16 19 -25 29 -23 12 2 18 -4 18 -17 1 -21 5
-22 43 -10 16 5 22 2 22 -9 0 -9 5 -16 11 -16 6 0 9 6 6 13 -3 7 1 21 9 32 8
10 15 17 15 14 8 -29 5 -60 -7 -70 -18 -15 -18 -29 1 -29 8 0 14 -3 13 -7 -4
-16 24 -83 33 -78 5 4 9 0 10 -7 0 -7 1 -30 3 -50 2 -21 -1 -38 -6 -38 -4 0
-8 -6 -8 -14 0 -10 10 -14 32 -13 29 2 32 -1 33 -28 0 -26 3 -30 24 -27 l24 2
-26 -26 c-15 -15 -27 -31 -27 -36 0 -5 -8 -7 -19 -3 -27 8 -38 -25 -14 -43 17
-14 17 -14 -3 -10 -17 4 -20 2 -17 -13 3 -9 11 -15 18 -13 7 3 16 1 20 -5 3
-6 -1 -11 -9 -11 -25 0 -57 -49 -46 -70 7 -14 5 -19 -10 -23 -11 -3 -20 -1
-20 4 0 5 -4 9 -10 9 -5 0 -10 -7 -10 -14 0 -8 -12 -21 -27 -28 -16 -8 -30
-24 -33 -39 -7 -33 -46 -83 -59 -74 -7 3 -8 0 -5 -9 8 -22 21 -20 29 3 3 11
12 22 20 25 17 6 21 -9 5 -19 -16 -10 -12 -48 4 -42 11 5 13 0 5 -25 -4 -17
-6 -34 -4 -39 3 -4 1 -10 -5 -14 -6 -4 -8 -10 -5 -15 7 -11 -5 -40 -16 -40 -5
0 -9 6 -9 14 0 8 -6 16 -14 19 -10 4 -12 0 -9 -14 4 -15 -2 -13 -31 13 -20 17
-36 40 -36 50 0 10 -7 18 -15 18 -8 0 -15 4 -15 8 0 4 -9 8 -20 9 -11 1 -20
-4 -20 -13 0 -9 -8 -13 -22 -10 -13 2 -22 8 -21 14 2 6 -11 22 -28 36 -29 24
-55 31 -104 28 -12 -1 -24 7 -30 20 -6 14 -20 24 -35 26 -36 4 -70 23 -70 39
0 15 5 15 37 7 13 -4 20 -10 17 -15 -3 -5 2 -9 11 -9 22 0 13 24 -11 29 -24 4
-64 51 -64 74 0 10 -4 16 -9 13 -14 -9 -42 5 -34 17 11 17 12 71 1 84 -5 6
-17 9 -26 6 -15 -6 -15 -4 -4 10 8 9 11 21 7 27 -3 5 5 14 19 20 25 9 36 30
16 30 -5 0 -7 6 -4 14 3 8 0 17 -7 22 -7 4 -10 3 -5 -4 4 -6 -1 -10 -13 -9
-41 3 -31 67 10 67 22 0 25 17 5 39 -18 21 -29 71 -16 71 5 0 10 7 10 15 0 18
16 20 24 3 4 -7 4 2 1 20 -5 33 3 40 22 21 9 -9 10 -4 7 20 -4 23 -1 31 10 31
9 0 16 5 16 10 0 6 6 10 13 10 8 0 22 9 32 20 10 12 24 19 30 16 8 -3 10 4 8
18 -4 21 -2 22 42 20 26 -2 49 -5 52 -8 8 -7 43 27 43 42 0 12 3 12 15 2 8 -7
15 -19 15 -28z m1070 7 c0 -5 -7 -9 -15 -9 -15 0 -20 12 -9 23 8 8 24 -1 24
-14z m-145 -9 c8 -13 -5 -13 -25 0 -13 8 -13 10 2 10 9 0 20 -4 23 -10z m90
-20 c3 -5 -1 -10 -9 -10 -9 0 -16 5 -16 10 0 6 4 10 9 10 6 0 13 -4 16 -10z
m-195 -32 c0 -5 -7 -8 -15 -8 -8 0 -15 2 -15 4 0 2 -3 12 -6 21 -6 15 -4 15
15 4 11 -8 21 -17 21 -21z m-1138 -30 c-15 -15 -26 -4 -18 18 5 13 9 15 18 6
9 -9 9 -15 0 -24z m728 2 c0 -11 -7 -23 -15 -27 -21 -8 -24 -2 -14 25 10 28
29 29 29 2z m305 10 c-3 -5 -11 -10 -16 -10 -6 0 -7 5 -4 10 3 6 11 10 16 10
6 0 7 -4 4 -10z m-1178 -16 c7 -18 -20 -44 -44 -44 -20 0 -27 28 -13 45 17 20
49 19 57 -1z m1360 -16 c-3 -8 -6 -5 -6 6 -1 11 2 17 5 13 3 -3 4 -12 1 -19z
m6148 12 c3 -5 1 -10 -4 -10 -6 0 -11 5 -11 10 0 6 2 10 4 10 3 0 8 -4 11 -10z
m-7442 -6 c11 -12 -13 -44 -33 -44 -14 0 -18 5 -13 18 10 26 33 39 46 26z
m1177 -22 c14 -9 26 -24 28 -32 2 -11 -1 -10 -12 3 -8 10 -26 19 -42 20 -15 1
-29 8 -32 15 -6 18 29 15 58 -6z m-317 -16 c3 -8 -1 -17 -10 -20 -20 -8 -27
-1 -20 19 8 19 23 20 30 1z m-81 -26 c-6 -16 -11 -20 -16 -11 -4 6 -2 19 5 27
16 20 21 12 11 -16z m378 10 c0 -5 -5 -10 -11 -10 -5 0 -7 5 -4 10 3 6 8 10
11 10 2 0 4 -4 4 -10z m-185 -20 c3 -5 1 -10 -4 -10 -6 0 -11 5 -11 10 0 6 2
10 4 10 3 0 8 -4 11 -10z m-49 -15 c-1 -9 -5 -15 -9 -15 -4 0 -12 0 -18 0 -8
0 -8 5 1 15 16 19 29 19 26 0z m194 -20 c0 -26 -28 -42 -36 -21 -7 18 14 58
27 51 5 -4 9 -17 9 -30z m-1360 0 c0 -8 -7 -15 -15 -15 -8 0 -15 7 -15 15 0 8
7 15 15 15 8 0 15 -7 15 -15z m1112 -10 c-4 -26 -22 -35 -22 -12 0 10 18 37
26 37 1 0 -1 -11 -4 -25z m-72 1 c0 -3 -4 -8 -10 -11 -5 -3 -10 -1 -10 4 0 6
5 11 10 11 6 0 10 -2 10 -4z m115 -26 c-2 -11 0 -22 6 -25 5 -4 9 1 9 9 0 9 7
16 15 16 8 0 15 -7 15 -16 0 -8 -4 -13 -8 -10 -5 3 -14 -3 -22 -14 -12 -17
-15 -17 -29 -3 -18 18 -21 42 -8 60 13 18 27 7 22 -17z m78 -43 c-3 -5 0 -13
7 -17 15 -9 4 -30 -16 -30 -10 0 -14 12 -14 45 0 31 -5 47 -17 55 -17 11 -17
11 -1 6 10 -3 21 0 25 7 4 7 10 -2 14 -23 4 -19 5 -38 2 -43z m330 27 c3 -3 3
-12 0 -20 -4 -11 -9 -12 -19 -3 -8 6 -11 15 -8 20 6 10 18 12 27 3z m147 -25
c0 -6 -4 -7 -10 -4 -5 3 -10 11 -10 16 0 6 5 7 10 4 6 -3 10 -11 10 -16z
m-1470 -9 c0 -5 -5 -10 -11 -10 -5 0 -7 5 -4 10 3 6 8 10 11 10 2 0 4 -4 4
-10z m1230 -20 c0 5 5 10 10 10 6 0 10 -4 10 -10 0 -16 -35 -47 -48 -42 -7 2
-13 -2 -13 -10 -1 -7 -4 1 -8 17 -8 34 5 48 31 34 12 -6 18 -6 18 1z m150 -10
c0 -5 -4 -10 -10 -10 -5 0 -10 5 -10 10 0 6 5 10 10 10 6 0 10 -4 10 -10z
m-257 -38 c-3 -12 -12 -22 -19 -22 -18 0 -18 9 3 32 20 22 24 19 16 -10z m22
-10 c-17 -15 -18 -15 -6 0 7 9 9 23 5 30 -6 10 -4 11 7 0 11 -10 10 -15 -6
-30z m223 -2 c1 -16 -2 -30 -7 -30 -12 0 -24 37 -16 50 11 18 21 10 23 -20z
m-2108 10 c0 -5 -4 -10 -10 -10 -5 0 -10 5 -10 10 0 6 5 10 10 10 6 0 10 -4
10 -10z m1607 -12 c-3 -8 -6 -5 -6 6 -1 11 2 17 5 13 3 -3 4 -12 1 -19z m525
-40 c-6 -6 -14 -9 -17 -6 -3 3 -3 13 1 22 5 12 10 14 17 7 8 -8 8 -14 -1 -23z
m-1332 2 c0 -5 -2 -10 -4 -10 -3 0 -8 5 -11 10 -3 6 -1 10 4 10 6 0 11 -4 11
-10z m1040 -10 c0 -5 -9 -10 -21 -10 -11 0 -17 5 -14 10 3 6 13 10 21 10 8 0
14 -4 14 -10z m-83 -37 c-9 -9 -19 -14 -23 -11 -10 10 6 28 24 28 15 0 15 -1
-1 -17z m1913 -3 c0 -5 -7 -10 -15 -10 -8 0 -15 5 -15 10 0 6 7 10 15 10 8 0
15 -4 15 -10z m-3053 -22 c-3 -8 -6 -5 -6 6 -1 11 2 17 5 13 3 -3 4 -12 1 -19z
m1085 7 c0 -5 -5 -11 -10 -13 -5 -1 -9 4 -9 13 0 9 4 14 9 13 5 -2 10 -8 10
-13z m128 -5 c0 -11 -7 -20 -15 -20 -15 0 -21 21 -8 33 12 13 23 7 23 -13z
m40 6 c0 -3 -4 -8 -10 -11 -5 -3 -10 -1 -10 4 0 6 5 11 10 11 6 0 10 -2 10 -4z
m2220 -21 c0 -29 -25 -43 -49 -28 -26 16 -25 41 1 46 44 8 48 7 48 -18z
m-3506 -1 c10 -27 7 -52 -8 -57 -15 -6 -40 48 -30 64 9 14 31 10 38 -7z m949
-99 c-3 -9 -8 -14 -10 -11 -3 3 -2 9 2 15 9 16 15 13 8 -4z m2867 -25 c0 -5
-5 -10 -11 -10 -5 0 -7 5 -4 10 3 6 8 10 11 10 2 0 4 -4 4 -10z m-2323 -44
c-1 -14 0 -24 3 -23 3 1 16 -6 29 -15 13 -9 29 -14 36 -12 17 7 38 -47 30 -78
-4 -17 -1 -29 12 -39 16 -13 17 -12 4 4 -8 10 -9 17 -3 17 17 0 42 -42 42 -69
0 -13 -11 -39 -25 -57 -14 -18 -25 -39 -25 -48 0 -8 -15 -25 -32 -37 -18 -13
-35 -26 -38 -29 -5 -5 -21 -5 -61 -1 -9 0 -28 13 -42 27 -14 14 -31 23 -36 20
-6 -4 -9 5 -6 24 2 20 -2 33 -13 40 -9 5 -12 10 -6 10 6 0 23 -9 37 -20 14
-11 36 -20 49 -20 20 1 19 3 -13 22 -36 22 -69 67 -69 94 0 8 -4 14 -9 14 -18
0 -29 -64 -13 -73 4 -2 1 -2 -5 -1 -7 2 -13 -2 -14 -9 0 -7 -7 5 -16 26 -16
38 -15 39 15 70 16 18 33 42 37 55 3 12 12 22 20 22 15 0 28 27 20 41 -4 5 1
6 10 3 11 -5 13 -10 5 -19 -5 -6 -7 -15 -3 -18 10 -10 38 36 35 56 -4 21 15
47 34 47 7 0 12 -10 11 -24z m63 -17 c0 -22 -11 -24 -28 -7 -19 19 -14 37 8
31 11 -3 20 -14 20 -24z m-696 -13 c-3 -9 -10 -16 -15 -16 -6 0 -5 9 1 21 13
24 24 20 14 -5z m-3384 -16 c0 -5 -4 -10 -10 -10 -5 0 -10 5 -10 10 0 6 5 10
10 10 6 0 10 -4 10 -10z m3820 -9 c0 -17 -18 -21 -24 -6 -3 9 0 15 9 15 8 0
15 -4 15 -9z m-914 -58 c-7 -7 -26 7 -26 19 0 6 6 6 15 -2 9 -7 13 -15 11 -17z
m904 -14 c0 -4 -4 -11 -10 -14 -5 -3 -10 0 -10 7 0 10 -2 10 -9 -1 -5 -8 -11
-9 -15 -3 -3 6 0 12 6 14 20 7 38 5 38 -3z m2435 -29 c3 -5 1 -10 -4 -10 -6 0
-11 5 -11 10 0 6 2 10 4 10 3 0 8 -4 11 -10z m-2878 -22 c2 -18 0 -20 -7 -8
-12 18 -13 30 -2 30 4 0 9 -10 9 -22z m13 -48 c23 -7 24 -8 6 -15 -13 -6 -21
-4 -24 4 -3 8 -8 6 -18 -6 -13 -17 -13 -17 -14 5 0 23 8 25 50 12z m-1296 -81
c-3 -5 -10 -7 -15 -3 -5 3 -7 10 -3 15 3 5 10 7 15 3 5 -3 7 -10 3 -15z m2036
-90 c0 -6 -4 -7 -10 -4 -5 3 -10 11 -10 16 0 6 5 7 10 4 6 -3 10 -11 10 -16z
m-595 -9 c3 -5 1 -10 -4 -10 -6 0 -11 5 -11 10 0 6 2 10 4 10 3 0 8 -4 11 -10z
m-965 -390 c0 -5 -4 -10 -10 -10 -5 0 -10 5 -10 10 0 6 5 10 10 10 6 0 10 -4
10 -10z m100 1 c0 -12 -28 -22 -34 -12 -3 5 -3 11 1 15 9 9 33 7 33 -3z m5770
-31 c0 -5 -9 -10 -20 -10 -11 0 -20 5 -20 10 0 6 9 10 20 10 11 0 20 -4 20
-10z m-4590 -21 c0 -5 -7 -9 -15 -9 -15 0 -20 12 -9 23 8 8 24 -1 24 -14z
m-3260 -4 c0 -8 -7 -15 -15 -15 -8 0 -15 7 -15 15 0 8 7 15 15 15 8 0 15 -7
15 -15z m210 -10 c0 -8 -4 -15 -10 -15 -5 0 -10 7 -10 15 0 8 5 15 10 15 6 0
10 -7 10 -15z m5168 -47 c-2 -6 -10 -14 -16 -16 -7 -2 -10 2 -6 12 7 18 28 22
22 4z m-78 -38 c0 -5 -10 -10 -22 -10 -19 0 -20 2 -8 10 19 13 30 13 30 0z
m-50 -24 c0 -3 -4 -8 -10 -11 -5 -3 -10 -1 -10 4 0 6 5 11 10 11 6 0 10 -2 10
-4z m1300 -306 c0 -5 -5 -10 -11 -10 -5 0 -7 5 -4 10 3 6 8 10 11 10 2 0 4 -4
4 -10z m55 -5 c22 -8 34 -14 26 -15 -8 0 -11 -3 -7 -7 4 -5 11 -7 14 -6 4 0
15 -3 26 -9 13 -7 16 -7 12 1 -11 17 15 13 35 -5 10 -9 31 -18 47 -20 16 -2
41 -8 57 -14 21 -8 30 -8 36 1 3 6 12 10 18 8 8 -3 4 -12 -9 -26 -11 -13 -27
-20 -35 -17 -8 4 -15 1 -15 -6 0 -6 9 -14 20 -17 11 -3 20 -9 20 -14 0 -5 -3
-8 -7 -6 -16 5 -14 -9 7 -56 13 -29 25 -45 32 -41 8 5 9 1 5 -11 -9 -21 9 -46
28 -39 9 4 13 -1 12 -14 0 -12 -4 -19 -8 -16 -12 7 -21 -15 -12 -28 4 -7 6
-21 5 -30 -2 -10 2 -18 8 -18 6 0 9 -4 5 -9 -3 -5 0 -13 6 -17 8 -4 8 -9 1
-13 -18 -11 -22 -59 -5 -65 8 -3 18 -4 21 -2 4 2 13 -2 20 -10 7 -8 8 -14 3
-14 -5 0 -25 -13 -43 -30 -18 -16 -29 -30 -24 -30 5 0 3 -7 -4 -15 -6 -8 -8
-20 -4 -26 4 -8 3 -9 -4 -5 -10 6 -18 -35 -13 -67 1 -4 -12 -6 -28 -5 -16 1
-35 -3 -43 -9 -7 -6 -24 -13 -38 -15 -14 -2 -24 -9 -22 -16 1 -7 -3 -12 -10
-11 -21 4 -66 -12 -79 -27 -13 -16 -33 -19 -24 -4 7 11 -34 5 -102 -16 -28 -8
-43 -8 -43 -2 0 6 -11 8 -25 6 -14 -3 -25 -2 -25 1 0 4 -9 7 -19 7 -11 0 -17
-4 -15 -8 8 -12 -11 -9 -24 4 -9 9 -15 9 -24 0 -8 -8 -17 -7 -37 7 -14 10 -34
21 -44 24 -10 4 -15 11 -12 17 3 6 -1 7 -10 4 -9 -4 -21 1 -29 11 -7 10 -18
15 -25 11 -19 -12 -44 14 -30 30 9 11 6 14 -15 14 -14 0 -26 5 -26 11 0 5 5 7
10 4 6 -3 13 2 17 12 4 10 11 21 17 25 7 5 7 8 -1 8 -7 0 -13 8 -14 18 0 16
-1 16 -7 0 -5 -13 -11 -15 -22 -7 -11 8 -12 12 -3 15 7 3 9 12 6 21 -3 8 0 19
8 23 10 7 7 15 -16 36 -17 14 -24 23 -18 20 12 -7 11 36 -2 99 -2 11 -3 23 -2
27 2 7 -41 42 -63 51 -10 4 -8 6 8 6 19 1 27 11 23 33 0 4 8 10 19 13 11 4 20
13 20 20 0 9 -6 12 -15 9 -10 -4 -15 0 -15 11 0 10 5 13 12 9 6 -4 8 -3 5 3
-4 6 5 23 18 37 14 15 22 33 18 39 -4 7 -1 7 10 -1 13 -12 18 -11 28 7 10 15
17 17 31 10 14 -7 18 -6 18 6 0 9 5 13 11 10 6 -4 13 1 15 12 3 11 15 20 30
21 14 1 35 9 47 17 21 14 21 15 2 15 -19 1 -19 1 -2 11 14 8 23 7 35 -4 19
-16 37 -13 66 12 14 12 20 13 23 4 7 -19 22 -16 45 10 19 22 20 22 15 1 -3
-13 0 -21 7 -19 27 5 46 18 46 31 0 17 -4 17 45 -1z m-132 -10 c-3 -9 -8 -14
-10 -11 -3 3 -2 9 2 15 9 16 15 13 8 -4z m-5243 -35 c0 -5 -4 -10 -10 -10 -5
0 -10 5 -10 10 0 6 5 10 10 10 6 0 10 -4 10 -10z m4834 -179 c3 -5 -1 -11 -9
-14 -9 -4 -12 -1 -8 9 6 16 10 17 17 5z m-6384 -10 c0 -6 -4 -13 -10 -16 -5
-3 -10 1 -10 9 0 9 5 16 10 16 6 0 10 -4 10 -9z m6338 -26 c-3 -3 -9 2 -12 12
-6 14 -5 15 5 6 7 -7 10 -15 7 -18z m-40 -20 c-3 -3 -9 2 -12 12 -6 14 -5 15
5 6 7 -7 10 -15 7 -18z m-18 1 c0 -3 -4 -8 -10 -11 -5 -3 -10 -1 -10 4 0 6 5
11 10 11 6 0 10 -2 10 -4z m1630 -111 c10 -12 10 -15 -4 -15 -9 0 -16 7 -16
15 0 8 2 15 4 15 2 0 9 -7 16 -15z m-7260 -39 c0 -3 -4 -8 -10 -11 -5 -3 -10
-1 -10 4 0 6 5 11 10 11 6 0 10 -2 10 -4z m55 -86 c3 -5 1 -10 -4 -10 -6 0
-11 5 -11 10 0 6 2 10 4 10 3 0 8 -4 11 -10z m8705 -15 c0 -9 -6 -12 -15 -9
-8 4 -12 10 -9 15 8 14 24 10 24 -6z m-3090 -2 c0 -5 -4 -14 -9 -21 -6 -10
-10 -9 -14 7 -3 14 0 21 9 21 8 0 14 -3 14 -7z m2825 -163 c3 -5 -1 -10 -10
-10 -9 0 -13 5 -10 10 3 6 8 10 10 10 2 0 7 -4 10 -10z m-2951 -66 c8 -21 8
-24 -3 -24 -5 0 -11 9 -14 20 -6 24 8 27 17 4z m99 -18 c4 -10 1 -13 -8 -9 -8
3 -12 9 -9 14 7 12 11 11 17 -5z m-6003 -9 c0 -14 -20 -37 -32 -37 -10 0 -11
34 -1 43 11 12 33 8 33 -6z m1100 -3 c0 -8 -4 -12 -10 -9 -5 3 -10 10 -10 16
0 5 5 9 10 9 6 0 10 -7 10 -16z m4970 6 c0 -5 -7 -10 -15 -10 -8 0 -15 5 -15
10 0 6 7 10 15 10 8 0 15 -4 15 -10z m250 -10 c0 -5 -4 -10 -10 -10 -5 0 -10
5 -10 10 0 6 5 10 10 10 6 0 10 -4 10 -10z m-500 -4 c0 -3 -4 -8 -10 -11 -5
-3 -10 -1 -10 4 0 6 5 11 10 11 6 0 10 -2 10 -4z m-180 -16 c0 -5 -2 -10 -4
-10 -3 0 -8 5 -11 10 -3 6 -1 10 4 10 6 0 11 -4 11 -10z m330 0 c0 -5 -4 -10
-10 -10 -5 0 -10 5 -10 10 0 6 5 10 10 10 6 0 10 -4 10 -10z m280 -20 c0 -5
-4 -10 -10 -10 -5 0 -10 5 -10 10 0 6 5 10 10 10 6 0 10 -4 10 -10z m-5055
-10 c-3 -5 -11 -10 -16 -10 -6 0 -7 5 -4 10 3 6 11 10 16 10 6 0 7 -4 4 -10z
m4479 -9 c6 -9 -35 -24 -43 -15 -6 5 18 24 31 24 4 0 9 -4 12 -9z m36 -21 c0
-5 -5 -10 -11 -10 -5 0 -7 5 -4 10 3 6 8 10 11 10 2 0 4 -4 4 -10z m3590 -4
c0 -3 -4 -8 -10 -11 -5 -3 -10 -1 -10 4 0 6 5 11 10 11 6 0 10 -2 10 -4z m0
-58 c0 -6 -6 -5 -15 2 -8 7 -15 14 -15 16 0 2 7 1 15 -2 8 -4 15 -11 15 -16z
m-3340 -38 c0 -5 -4 -10 -10 -10 -5 0 -10 5 -10 10 0 6 5 10 10 10 6 0 10 -4
10 -10z m910 -10 c0 -5 -5 -10 -11 -10 -5 0 -7 5 -4 10 3 6 8 10 11 10 2 0 4
-4 4 -10z m-495 -40 c-3 -5 -11 -10 -16 -10 -6 0 -7 5 -4 10 3 6 11 10 16 10
6 0 7 -4 4 -10z m35 0 c0 -5 -4 -10 -10 -10 -5 0 -10 5 -10 10 0 6 5 10 10 10
6 0 10 -4 10 -10z m1695 0 c3 -5 1 -10 -4 -10 -6 0 -11 5 -11 10 0 6 2 10 4
10 3 0 8 -4 11 -10z m-2528 -6 c-3 -3 -12 -4 -19 -1 -8 3 -5 6 6 6 11 1 17 -2
13 -5z m722 -22 c-13 -9 -30 -22 -37 -29 -7 -7 -18 -13 -23 -13 -6 0 -8 -4 -4
-9 3 -5 1 -12 -5 -16 -12 -7 -12 30 -1 59 5 14 10 16 15 8 4 -7 4 -17 0 -24
-5 -7 -3 -8 5 -4 7 5 10 14 7 21 -5 13 7 19 48 22 16 2 15 0 -5 -15z m-1472
-18 c-3 -3 -12 -4 -19 -1 -8 3 -5 6 6 6 11 1 17 -2 13 -5z m1330 -9 c0 -8 -4
-12 -9 -9 -5 3 -6 10 -3 15 9 13 12 11 12 -6z m43 0 c-7 -8 -17 -12 -22 -9 -6
4 -5 10 3 15 22 14 33 10 19 -6z m3170 -5 c0 -5 -5 -10 -11 -10 -5 0 -7 5 -4
10 3 6 8 10 11 10 2 0 4 -4 4 -10z m-2852 -23 c3 -12 -4 -17 -22 -17 -19 0
-26 5 -26 20 0 15 6 19 23 16 12 -1 23 -10 25 -19z m-1368 3 c0 -5 -2 -10 -4
-10 -3 0 -8 5 -11 10 -3 6 -1 10 4 10 6 0 11 -4 11 -10z m330 0 c0 -5 -4 -10
-9 -10 -6 0 -13 5 -16 10 -3 6 1 10 9 10 9 0 16 -4 16 -10z m1100 -5 c0 -8 -2
-15 -4 -15 -2 0 -6 7 -10 15 -3 8 -1 15 4 15 6 0 10 -7 10 -15z m-377 -21 c-4
-10 -9 -12 -15 -6 -12 12 -1 35 12 27 5 -3 6 -13 3 -21z m-63 2 c0 -11 -19
-15 -25 -6 -3 5 1 10 9 10 9 0 16 -2 16 -4z m-320 -26 c0 -23 -25 -27 -33 -6
-7 16 1 26 20 26 7 0 13 -9 13 -20z m751 -3 c-13 -13 -26 -3 -16 12 3 6 11 8
17 5 6 -4 6 -10 -1 -17z m-1491 -1 c0 -3 -4 -8 -10 -11 -5 -3 -10 -1 -10 4 0
6 5 11 10 11 6 0 10 -2 10 -4z m1420 -6 c0 -5 -10 -10 -22 -10 -19 0 -20 2 -8
10 19 13 30 13 30 0z m-1282 -14 c-7 -8 -15 -12 -17 -11 -5 6 10 25 20 25 5 0
4 -6 -3 -14z m132 -6 c0 -5 -4 -10 -10 -10 -5 0 -10 5 -10 10 0 6 5 10 10 10
6 0 10 -4 10 -10z m420 0 c0 -5 -4 -10 -10 -10 -5 0 -10 5 -10 10 0 6 5 10 10
10 6 0 10 -4 10 -10z m-250 -20 c0 -5 -5 -10 -11 -10 -5 0 -7 5 -4 10 3 6 8
10 11 10 2 0 4 -4 4 -10z m-120 -25 c-7 -9 -15 -13 -19 -10 -3 3 1 10 9 15 21
14 24 12 10 -5z m-429 -32 c-12 -20 -14 -14 -5 12 4 9 9 14 11 11 3 -2 0 -13
-6 -23z m48 -23 c0 -23 -1 -23 -8 -5 -5 11 -7 23 -4 28 2 4 -1 7 -7 7 -6 0 -8
5 -4 11 9 16 24 -10 23 -41z m1621 -40 c0 -5 -2 -10 -4 -10 -3 0 -8 5 -11 10
-3 6 -1 10 4 10 6 0 11 -4 11 -10z m-2235 -10 c3 -5 1 -10 -4 -10 -6 0 -11 5
-11 10 0 6 2 10 4 10 3 0 8 -4 11 -10z m-5 -30 c0 -5 -4 -10 -10 -10 -5 0 -10
5 -10 10 0 6 5 10 10 10 6 0 10 -4 10 -10z m2120 0 c0 -5 -2 -10 -4 -10 -3 0
-8 5 -11 10 -3 6 -1 10 4 10 6 0 11 -4 11 -10z m-20 -15 c10 -12 10 -15 -4
-15 -9 0 -16 7 -16 15 0 8 2 15 4 15 2 0 9 -7 16 -15z m-2063 -17 c-3 -8 -6
-5 -6 6 -1 11 2 17 5 13 3 -3 4 -12 1 -19z m-159 -18 c7 -12 8 -20 2 -20 -5 0
-10 5 -10 11 0 5 -4 7 -10 4 -5 -3 -10 1 -10 9 0 22 13 20 28 -4z m167 -10 c3
-5 -1 -10 -9 -10 -9 0 -18 -11 -22 -25 -3 -14 -10 -25 -16 -25 -10 0 -1 38 14
58 13 15 25 16 33 2z m2035 0 c0 -5 -5 -10 -11 -10 -5 0 -7 5 -4 10 3 6 8 10
11 10 2 0 4 -4 4 -10z m69 -33 c0 -9 -2 -8 -6 1 -2 6 -10 9 -15 6 -7 -4 -8 -2
-4 5 9 13 26 5 25 -12z m-4899 -47 c0 -5 -5 -10 -11 -10 -5 0 -7 5 -4 10 3 6
8 10 11 10 2 0 4 -4 4 -10z m5032 -8 c-7 -2 -10 -8 -6 -13 3 -5 1 -9 -4 -9 -6
0 -13 7 -16 16 -3 8 -2 12 4 9 6 -3 10 -1 10 5 0 6 5 8 12 4 9 -6 9 -9 0 -12z
m-2348 -38 c3 -8 2 -12 -4 -9 -6 3 -10 10 -10 16 0 14 7 11 14 -7z m2356 -19
c0 -8 5 -15 12 -15 6 0 9 -2 7 -5 -3 -2 -15 -2 -27 2 -25 6 -30 33 -7 33 8 0
15 -7 15 -15z m2420 -75 c0 -5 -5 -10 -11 -10 -5 0 -7 5 -4 10 3 6 8 10 11 10
2 0 4 -4 4 -10z m-5427 -40 c-3 -11 -9 -20 -14 -20 -5 0 -9 9 -9 20 0 11 6 20
14 20 9 0 12 -7 9 -20z m5237 -42 c0 -21 -3 -29 -10 -22 -5 5 -7 19 -4 32 9
31 14 27 14 -10z m-570 -20 c0 -5 -4 -8 -10 -8 -5 0 -10 10 -10 23 0 18 2 19
10 7 5 -8 10 -18 10 -22z m-5416 -37 c39 -26 77 -82 70 -103 -3 -10 2 -32 10
-50 20 -38 20 -42 1 -34 -8 3 -15 1 -15 -4 0 -6 -3 -9 -7 -9 -20 3 -33 -2 -33
-14 0 -25 -34 -35 -86 -26 -27 5 -50 14 -52 19 -2 6 -9 10 -16 10 -15 0 -46
36 -46 55 0 7 -5 17 -11 21 -7 4 -7 10 -1 16 6 6 8 16 6 23 -3 7 4 33 16 58
17 35 28 47 48 49 59 8 91 5 116 -11z m5974 -21 c0 -22 -4 -40 -9 -40 -5 0 -7
10 -5 23 3 12 5 30 5 40 2 35 10 15 9 -23z m-798 -149 c0 -18 -18 -21 -30 -6
-10 13 -9 15 9 15 11 0 21 -4 21 -9z m75 -1 c3 -5 1 -10 -4 -10 -6 0 -11 5
-11 10 0 6 2 10 4 10 3 0 8 -4 11 -10z m129 -35 c-4 -8 -11 -12 -16 -9 -6 4
-5 10 3 15 19 12 19 11 13 -6z m-4884 -65 c0 -5 -5 -10 -11 -10 -5 0 -7 5 -4
10 3 6 8 10 11 10 2 0 4 -4 4 -10z m4865 -128 c-3 -9 -10 -10 -23 -3 -14 7
-25 6 -40 -5 -13 -9 -22 -11 -22 -5 0 6 -11 11 -24 11 -14 0 -28 5 -31 10 -4
6 -11 8 -16 5 -5 -3 -6 1 -3 9 7 17 34 30 34 16 0 -6 -5 -10 -11 -10 -5 0 -8
-4 -4 -10 8 -13 31 -2 33 15 1 8 3 22 4 30 1 15 18 22 18 8 1 -22 30 -44 50
-38 17 6 20 12 15 43 -4 29 -2 27 10 -13 8 -27 13 -56 10 -63z m-7780 -2 c10
-31 -12 -60 -45 -60 -53 0 -65 65 -17 87 26 13 53 1 62 -27z m2495 16 c0 -3
-4 -8 -10 -11 -5 -3 -10 -1 -10 4 0 6 5 11 10 11 6 0 10 -2 10 -4z m5630 -6
c0 -5 -4 -10 -10 -10 -5 0 -10 5 -10 10 0 6 5 10 10 10 6 0 10 -4 10 -10z
m-5780 -10 c0 -5 -4 -10 -10 -10 -5 0 -10 5 -10 10 0 6 5 10 10 10 6 0 10 -4
10 -10z m6110 0 c0 -5 -2 -10 -4 -10 -3 0 -8 5 -11 10 -3 6 -1 10 4 10 6 0 11
-4 11 -10z m-7930 -24 c0 -3 -4 -8 -10 -11 -5 -3 -10 -1 -10 4 0 6 5 11 10 11
6 0 10 -2 10 -4z m2175 -26 c3 -5 -1 -10 -10 -10 -9 0 -13 5 -10 10 3 6 8 10
10 10 2 0 7 -4 10 -10z m6011 -27 c-10 -10 -19 5 -10 18 6 11 8 11 12 0 2 -7
1 -15 -2 -18z m-941 -6 c16 -13 15 -14 -13 -9 -18 2 -32 8 -32 13 0 13 24 11
45 -4z m-5150 -27 c-3 -5 -10 -10 -16 -10 -5 0 -9 5 -9 10 0 6 7 10 16 10 8 0
12 -4 9 -10z m-405 -4 c0 -11 -19 -15 -25 -6 -3 5 1 10 9 10 9 0 16 -2 16 -4z
m5625 -6 c4 -7 -3 -8 -22 -4 -38 9 -42 14 -10 14 14 0 29 -5 32 -10z m-6251
-41 c-3 -5 -10 -7 -15 -3 -5 3 -7 10 -3 15 3 5 10 7 15 3 5 -3 7 -10 3 -15z
m726 1 c0 -5 -4 -10 -10 -10 -5 0 -10 5 -10 10 0 6 5 10 10 10 6 0 10 -4 10
-10z m-1293 -72 c-3 -8 -6 -5 -6 6 -1 11 2 17 5 13 3 -3 4 -12 1 -19z m783
-89 c0 -6 9 -8 23 -4 21 7 21 7 2 -8 -10 -8 -25 -13 -32 -10 -15 6 -18 33 -3
33 6 0 10 -5 10 -11z m-790 -49 c4 0 10 -8 13 -17 2 -10 8 -27 13 -37 6 -15 4
-18 -9 -13 -11 4 -14 2 -11 -7 3 -7 -2 -16 -11 -19 -20 -8 -65 12 -65 30 0 7
-4 13 -10 13 -5 0 -7 -7 -4 -15 4 -8 1 -15 -5 -15 -6 0 -11 12 -11 26 0 14 4
23 9 19 5 -3 12 3 15 12 3 10 18 26 33 35 24 14 28 15 31 2 2 -7 7 -14 12 -14z
m776 -18 c-4 -3 -11 0 -16 8 -15 24 -11 33 6 15 9 -9 13 -19 10 -23z m-1836
-126 c0 -3 -4 -8 -10 -11 -5 -3 -10 -1 -10 4 0 6 5 11 10 11 6 0 10 -2 10 -4z
m8510 -6 c0 -5 -4 -10 -10 -10 -5 0 -10 5 -10 10 0 6 5 10 10 10 6 0 10 -4 10
-10z m-5340 -15 c11 -13 10 -14 -4 -9 -10 4 -16 1 -16 -7 0 -7 -2 -10 -5 -7
-5 5 4 38 10 38 1 0 8 -7 15 -15z m-1023 -71 c13 -4 21 -10 18 -14 -3 -5 -14
-6 -25 -3 -13 3 -22 -1 -26 -11 -5 -12 -10 -14 -19 -6 -9 8 -14 6 -19 -5 -3
-9 -10 -14 -15 -10 -15 9 -1 36 23 45 26 11 35 11 63 4z m947 0 c9 -3 16 -12
16 -20 0 -8 -6 -11 -15 -8 -9 4 -15 1 -15 -7 0 -10 -3 -10 -11 -2 -7 7 -9 19
-6 27 7 18 9 18 31 10z m-738 -46 c5 -8 2 -9 -10 -5 -13 5 -19 1 -23 -12 -5
-21 -27 -18 -51 5 -10 10 -6 14 20 17 18 2 38 5 45 5 6 1 15 -3 19 -10z m5489
-18 c3 -5 1 -10 -4 -10 -6 0 -11 5 -11 10 0 6 2 10 4 10 3 0 8 -4 11 -10z
m-8610 -30 c3 -5 1 -10 -4 -10 -6 0 -11 5 -11 10 0 6 2 10 4 10 3 0 8 -4 11
-10z m1165 -40 c9 -17 8 -20 -8 -20 -24 0 -32 8 -25 26 7 20 20 17 33 -6z
m2471 -6 c15 -14 16 -18 4 -30 -16 -16 -51 -18 -60 -4 -4 6 -11 8 -16 5 -15
-10 -10 12 7 29 20 20 43 20 65 0z m-2131 -9 c-7 -8 -17 -12 -23 -8 -6 4 -3 9
9 14 27 11 28 11 14 -6z m1572 -5 c14 -10 28 -17 32 -15 3 3 4 2 1 -2 -7 -9
-45 -12 -40 -2 6 9 -20 19 -53 19 -21 0 -24 2 -12 10 23 15 45 12 72 -10z
m618 -20 c0 -5 -4 -10 -10 -10 -5 0 -10 5 -10 10 0 6 5 10 10 10 6 0 10 -4 10
-10z m-794 -32 c4 -7 3 -8 -4 -4 -7 4 -12 2 -12 -5 0 -7 -3 -10 -6 -6 -6 5 3
27 11 27 2 0 7 -5 11 -12z m5764 -9 c0 -13 -24 -22 -46 -17 -17 3 -17 4 0 20
16 17 46 15 46 -3z m-7313 -3 c0 -8 -6 -12 -15 -9 -11 5 -11 7 0 14 7 5 13 9
14 9 0 0 1 -6 1 -14z m1813 -6 c0 -13 -5 -18 -14 -14 -8 3 -12 12 -9 20 8 21
23 17 23 -6z m580 16 c0 -3 -4 -8 -10 -11 -5 -3 -10 -1 -10 4 0 6 5 11 10 11
6 0 10 -2 10 -4z m-3407 -88 c-21 -24 -26 -23 -40 8 -10 22 -10 25 3 20 8 -3
17 1 21 11 6 14 8 14 20 -2 11 -16 10 -21 -4 -37z m487 32 c0 -5 -4 -10 -10
-10 -5 0 -10 5 -10 10 0 6 5 10 10 10 6 0 10 -4 10 -10z m2250 6 c0 -2 -7 -7
-16 -10 -8 -3 -12 -2 -9 4 6 10 25 14 25 6z m88 -23 c-4 -22 -22 -20 -26 1 -2
10 3 16 13 16 10 0 15 -7 13 -17z m-2878 -24 c6 -10 7 -19 3 -19 -4 0 -13 11
-20 25 -13 29 2 24 17 -6z m500 -24 c-7 -9 -15 -13 -17 -11 -6 6 20 36 26 30
2 -2 -2 -10 -9 -19z m6440 16 c0 -5 -6 -11 -13 -14 -8 -3 -14 1 -14 9 0 8 6
14 14 14 7 0 13 -4 13 -9z m-6610 -31 c0 -5 -9 -10 -20 -10 -11 0 -20 5 -20
10 0 6 9 10 20 10 11 0 20 -4 20 -10z m477 -10 c2 -23 -5 -25 -30 -6 -14 11
-15 15 -5 19 25 10 34 7 35 -13z m2424 -23 c-5 -5 -17 -7 -26 -3 -14 5 -15 9
-5 21 10 12 16 13 27 4 9 -8 10 -16 4 -22z m204 3 c3 -5 2 -10 -4 -10 -5 0
-13 5 -16 10 -3 6 -2 10 4 10 5 0 13 -4 16 -10z m885 0 c0 -5 -2 -10 -4 -10
-3 0 -8 5 -11 10 -3 6 -1 10 4 10 6 0 11 -4 11 -10z m-3900 -10 c0 -5 -4 -10
-10 -10 -5 0 -10 5 -10 10 0 6 5 10 10 10 6 0 10 -4 10 -10z m300 6 c0 -3 -4
-8 -10 -11 -5 -3 -10 -1 -10 4 0 6 5 11 10 11 6 0 10 -2 10 -4z m2765 -6 c3
-6 -1 -7 -9 -4 -18 7 -21 14 -7 14 6 0 13 -4 16 -10z m83 -5 c12 -3 22 -10 22
-16 0 -5 -10 -8 -22 -8 -13 1 -38 -2 -55 -6 -22 -5 -33 -4 -33 4 0 6 9 11 21
11 15 0 19 5 15 16 -6 16 -6 16 52 -1z m-2761 -1 c-3 -3 -12 -4 -19 -1 -8 3
-5 6 6 6 11 1 17 -2 13 -5z m2621 -7 c13 5 14 3 5 -7 -13 -14 -33 -5 -32 13 0
9 2 9 5 0 3 -7 13 -9 22 -6z m-2893 -23 c-9 -9 -19 -13 -23 -10 -3 4 0 11 8
16 24 15 33 11 15 -6z m2375 1 c0 -8 -9 -15 -20 -15 -11 0 -20 7 -20 15 0 8 9
15 20 15 11 0 20 -7 20 -15z m6640 -20 c0 -8 -4 -15 -10 -15 -5 0 -10 7 -10
15 0 8 5 15 10 15 6 0 10 -7 10 -15z m-8862 -17 c8 -8 15 -8 24 -1 14 11 45 9
56 -3 4 -4 -1 -4 -10 -1 -18 6 -32 -8 -33 -32 0 -8 -5 -16 -12 -18 -7 -3 -9 3
-6 16 6 25 -5 27 -37 4 -24 -16 -24 -16 -11 0 12 15 11 17 -10 17 -23 1 -23 1
-5 15 24 18 29 18 44 3z m5772 8 c0 -2 -7 -6 -15 -10 -8 -3 -15 -1 -15 4 0 6
7 10 15 10 8 0 15 -2 15 -4z m-5945 -26 c3 -5 1 -10 -4 -10 -6 0 -11 5 -11 10
0 6 2 10 4 10 3 0 8 -4 11 -10z m2865 0 c0 -5 -4 -10 -10 -10 -5 0 -10 5 -10
10 0 6 5 10 10 10 6 0 10 -4 10 -10z m290 0 c0 -5 -7 -10 -16 -10 -8 0 -12 5
-9 10 3 6 10 10 16 10 5 0 9 -4 9 -10z m5893 3 c-7 -2 -19 -2 -25 0 -7 3 -2 5
12 5 14 0 19 -2 13 -5z m-9140 -9 c9 -10 -4 -34 -19 -34 -8 0 -14 9 -14 20 0
19 19 27 33 14z m5735 -30 c-4 -11 -28 -14 -28 -4 0 8 22 20 28 14 2 -1 2 -6
0 -10z m-3424 -3 c3 -5 -1 -11 -9 -14 -9 -4 -12 -1 -8 9 6 16 10 17 17 5z
m5776 -1 c0 -5 -5 -10 -11 -10 -5 0 -7 5 -4 10 3 6 8 10 11 10 2 0 4 -4 4 -10z
m-7612 -25 c-3 -3 -9 2 -12 12 -6 14 -5 15 5 6 7 -7 10 -15 7 -18z m4442 15
c0 -5 -4 -10 -10 -10 -5 0 -10 5 -10 10 0 6 5 10 10 10 6 0 10 -4 10 -10z
m-4604 -20 c8 0 14 -10 14 -24 0 -14 5 -28 10 -31 6 -3 10 1 10 10 0 9 5 13
10 10 6 -4 8 -11 5 -16 -4 -5 -1 -17 4 -26 7 -12 10 -14 11 -4 0 11 3 11 16 0
24 -20 112 -21 124 -1 5 10 10 12 10 5 0 -7 7 -13 15 -13 8 0 16 -4 16 -10 2
-11 5 -25 9 -37 1 -5 2 -12 1 -17 -1 -5 5 -6 13 -3 10 4 13 1 10 -7 -3 -7 2
-16 10 -19 9 -4 16 -15 16 -26 0 -25 -40 -39 -51 -18 -10 17 -28 16 -104 -6
-27 -8 -49 -19 -48 -25 2 -7 -7 -8 -27 -2 -23 6 -32 5 -38 -6 -5 -8 -18 -16
-30 -17 -12 -1 -22 -5 -22 -9 0 -4 -11 -8 -24 -8 -14 0 -31 -7 -40 -15 -8 -8
-19 -15 -25 -15 -6 0 -11 -5 -11 -12 0 -6 -3 -9 -6 -5 -3 3 -14 -3 -25 -14
-11 -11 -24 -17 -29 -14 -6 4 -10 0 -11 -7 0 -10 -2 -10 -6 0 -2 6 -9 9 -14 6
-5 -3 -26 -8 -47 -10 -79 -10 -98 -23 -97 -71 0 -38 -6 -40 -41 -16 -20 13
-27 14 -33 4 -6 -9 -16 -5 -39 14 -18 15 -32 21 -32 14 0 -7 -3 -9 -7 -6 -3 4
-12 2 -19 -4 -8 -6 -20 -9 -28 -6 -8 3 -17 -1 -20 -9 -8 -21 -33 -17 -39 6 -4
17 -2 20 13 15 10 -3 22 0 26 6 4 7 3 9 -4 5 -6 -3 -14 -2 -17 4 -15 24 -33
-11 -30 -55 4 -46 -8 -62 -18 -24 -3 12 -10 18 -17 14 -6 -4 -17 -2 -25 5 -13
11 -67 21 -108 21 -10 0 -22 10 -27 22 -5 12 -9 16 -9 9 -1 -7 -5 -10 -11 -7
-13 8 -13 3 0 -31 l10 -26 -45 6 c-39 6 -44 5 -38 -10 5 -13 2 -15 -14 -10
-15 5 -30 -2 -53 -24 -18 -17 -39 -29 -47 -26 -12 5 -12 8 -1 20 7 8 15 14 18
13 3 -1 17 7 32 17 22 14 26 22 18 36 -13 23 1 34 70 55 73 22 85 29 85 50 0
10 9 23 20 31 17 11 27 10 65 -7 24 -11 47 -24 50 -30 14 -22 100 44 100 77 0
13 7 16 34 11 32 -5 35 -3 41 23 3 15 11 27 18 26 22 -2 87 28 87 40 0 6 7 17
15 24 9 7 14 19 11 26 -3 8 0 11 10 7 8 -3 14 1 14 10 0 8 -6 17 -12 20 -21 7
-4 17 35 19 24 2 36 7 33 15 -3 6 2 17 10 23 10 9 14 9 14 1 0 -6 -6 -11 -12
-11 -9 0 -8 -4 2 -10 10 -7 18 -6 25 3 6 8 27 12 53 11 34 -2 41 0 33 10 -7 9
-5 17 9 29 11 9 22 12 25 7 4 -6 12 -10 18 -10 8 0 7 3 -2 9 -21 13 -4 30 28
28 16 -1 27 -5 25 -9 -2 -4 1 -10 7 -13 6 -4 13 3 16 16 4 13 8 18 11 11 2 -6
10 -12 18 -12z m418 -2 c-4 -6 1 -17 11 -25 11 -7 14 -13 8 -13 -7 0 -14 -8
-17 -17 -4 -14 -4 -14 -3 2 1 11 -2 26 -6 33 -8 11 -2 32 9 32 3 0 2 -5 -2
-12z m6986 -3 c0 -8 -4 -15 -10 -15 -5 0 -10 7 -10 15 0 8 5 15 10 15 6 0 10
-7 10 -15z m-8290 -15 c0 -5 -5 -10 -11 -10 -5 0 -7 5 -4 10 3 6 8 10 11 10 2
0 4 -4 4 -10z m1087 -11 c-6 -22 3 -25 21 -7 8 8 12 8 12 1 0 -13 -28 -25 -40
-18 -5 3 -6 13 -3 23 6 14 4 15 -8 5 -13 -10 -16 -10 -16 0 0 7 9 14 20 14 14
2 18 -3 14 -18z m4023 5 c0 -8 -5 -12 -10 -9 -6 4 -8 11 -5 16 9 14 15 11 15
-7z m3498 -2 c2 -6 -6 -10 -16 -9 -12 1 -18 6 -15 14 6 16 25 13 31 -5z m-28
-28 c0 -2 -9 -4 -20 -4 -11 0 -20 4 -20 9 0 5 9 7 20 4 11 -3 20 -7 20 -9z
m-7577 -14 c3 -11 1 -18 -4 -14 -5 3 -9 12 -9 20 0 20 7 17 13 -6z m-523 -10
c0 -5 -10 -10 -22 -10 -19 0 -20 2 -8 10 19 13 30 13 30 0z m3245 0 c3 -5 1
-10 -4 -10 -6 0 -11 5 -11 10 0 6 2 10 4 10 3 0 8 -4 11 -10z m4795 -1 c0 -5
5 -7 10 -4 6 3 10 2 10 -3 0 -5 -11 -9 -24 -9 -17 0 -23 4 -19 13 6 16 23 19
23 3z m-2650 -9 c0 -5 -4 -10 -10 -10 -5 0 -10 5 -10 10 0 6 5 10 10 10 6 0
10 -4 10 -10z m40 -10 c0 -5 -7 -7 -15 -4 -8 4 -15 8 -15 10 0 2 7 4 15 4 8 0
15 -4 15 -10z m2538 -47 c-12 -15 -28 -17 -28 -3 0 6 7 10 15 10 9 0 12 6 9
18 -5 14 -4 14 4 2 8 -10 8 -18 0 -27z m62 28 c0 -6 -4 -13 -10 -16 -5 -3 -10
1 -10 9 0 9 5 16 10 16 6 0 10 -4 10 -9z m-8160 -31 c0 -5 -4 -10 -10 -10 -5
0 -10 5 -10 10 0 6 5 10 10 10 6 0 10 -4 10 -10z m8060 -4 c0 -8 6 -16 13 -19
6 -2 -4 -12 -23 -22 -35 -19 -41 -21 -60 -24 -5 0 -10 -8 -10 -17 0 -10 -6
-14 -15 -11 -8 4 -17 2 -19 -2 -3 -5 -19 -11 -36 -14 -22 -5 -33 -16 -44 -41
-8 -19 -24 -37 -36 -41 -22 -7 -26 -4 -49 34 -6 11 -12 11 -31 1 -18 -10 -21
-9 -18 2 3 7 13 15 24 17 10 2 25 12 32 22 15 21 37 26 27 7 -4 -7 1 -4 9 6 9
11 16 16 16 12 0 -5 6 -3 13 3 8 6 17 8 20 4 4 -3 18 6 31 20 14 15 29 27 35
27 5 0 11 5 13 12 2 6 18 11 36 11 17 0 33 6 36 14 7 17 36 17 36 -1z m-4707
-10 c7 -18 -1 -26 -25 -26 -21 0 -23 11 -6 28 16 16 25 15 31 -2z m1228 -19
c8 -31 4 -36 -21 -30 -24 6 -33 30 -17 48 17 19 30 14 38 -18z m2826 27 c-3
-3 -12 -4 -19 -1 -8 3 -5 6 6 6 11 1 17 -2 13 -5z m718 -4 c-3 -5 -13 -10 -21
-10 -8 0 -12 5 -9 10 3 6 13 10 21 10 8 0 12 -4 9 -10z m-8081 -19 c3 -5 -3
-11 -15 -14 -16 -4 -18 -3 -8 9 13 16 16 17 23 5z m6156 -21 c-8 -5 -17 -7
-19 -4 -3 3 1 9 9 14 8 5 17 7 19 4 3 -3 -1 -9 -9 -14z m-5250 -63 c0 -3 -6
-7 -14 -10 -9 -4 -13 2 -13 18 0 20 2 22 13 10 8 -7 14 -16 14 -18z m4130 8
c11 -13 10 -14 -4 -9 -9 3 -16 10 -16 15 0 13 6 11 20 -6z m-5660 -5 c0 -5 -4
-10 -10 -10 -5 0 -10 5 -10 10 0 6 5 10 10 10 6 0 10 -4 10 -10z m500 0 c0 -5
-4 -10 -10 -10 -5 0 -10 5 -10 10 0 6 5 10 10 10 6 0 10 -4 10 -10z m23 -25
c-5 -13 -23 -22 -23 -11 0 15 14 35 21 31 4 -3 6 -12 2 -20z m940 0 c-3 -9 -8
-14 -10 -11 -3 3 -2 9 2 15 9 16 15 13 8 -4z m710 -9 c4 -10 1 -13 -9 -9 -15
6 -19 23 -5 23 5 0 11 -7 14 -14z m6166 -39 c-9 -7 -14 -17 -12 -23 4 -13 -54
-40 -64 -30 -3 3 -11 2 -17 -3 -7 -6 -17 -3 -26 7 -13 14 -12 15 3 9 11 -4 16
-3 12 3 -3 6 -14 10 -23 10 -12 0 -13 3 -4 12 9 9 15 9 24 0 16 -16 29 -15 22
2 -4 10 2 13 22 10 15 -1 37 4 48 11 23 17 38 9 15 -8z m-2179 3 c0 -5 -5 -10
-11 -10 -5 0 -7 5 -4 10 3 6 8 10 11 10 2 0 4 -4 4 -10z m-6043 -32 c2 -28
-14 -48 -33 -41 -10 4 -14 -2 -14 -21 0 -14 -3 -25 -7 -24 -5 0 -16 -2 -26 -7
-13 -5 -24 -1 -38 14 -16 17 -17 21 -4 21 8 0 15 6 15 13 0 23 54 59 100 66 3
1 6 -9 7 -21z m4113 12 c0 -5 -5 -10 -11 -10 -5 0 -7 5 -4 10 3 6 8 10 11 10
2 0 4 -4 4 -10z m-2888 -23 c6 -9 11 -8 18 3 8 12 10 11 10 -7 0 -17 4 -21 18
-16 15 6 15 5 3 -11 -8 -9 -17 -13 -20 -8 -11 17 -46 18 -59 2 -11 -13 -14
-12 -32 9 -16 19 -18 27 -8 38 13 16 58 9 70 -10z m-1350 -29 c-7 -7 -12 -8
-12 -2 0 14 12 26 19 19 2 -3 -1 -11 -7 -17z m2208 12 c0 -5 -2 -10 -4 -10 -3
0 -8 5 -11 10 -3 6 -1 10 4 10 6 0 11 -4 11 -10z m6010 -10 c0 -5 -4 -10 -10
-10 -5 0 -10 5 -10 10 0 6 5 10 10 10 6 0 10 -4 10 -10z m-6690 -26 c0 -8 8
-18 18 -21 9 -4 20 -11 25 -17 5 -7 11 -5 18 7 13 22 54 24 45 2 -3 -10 1 -15
12 -15 20 0 54 20 35 20 -21 0 -14 20 10 29 28 11 45 4 52 -20 5 -14 12 -18
30 -13 12 3 26 1 30 -5 3 -6 10 -9 15 -6 13 8 32 -33 25 -54 -3 -10 -15 -27
-26 -37 -21 -18 -21 -18 -39 4 -10 12 -23 22 -29 22 -6 0 -11 5 -11 11 0 6
-12 2 -27 -9 -46 -31 -57 -37 -48 -23 6 10 3 11 -16 1 -28 -15 -47 -34 -72
-74 -15 -22 -24 -27 -47 -24 -25 4 -27 2 -19 -13 13 -26 -11 -37 -30 -13 -9
10 -29 24 -46 29 -28 10 -30 15 -33 63 -2 28 1 52 6 52 11 0 9 27 -2 53 -6 13
-1 24 18 42 14 13 26 20 26 15 0 -6 5 -10 11 -10 5 0 7 5 4 10 -3 6 -2 10 4
10 5 0 13 -4 16 -10 3 -5 12 -10 18 -9 9 0 8 2 -1 6 -6 2 -10 9 -7 13 8 13 35
0 35 -16z m106 4 c-10 -6 -20 -7 -24 -3 -9 8 20 25 31 18 5 -3 2 -10 -7 -15z
m444 18 c0 -3 -4 -8 -10 -11 -5 -3 -10 -1 -10 4 0 6 5 11 10 11 6 0 10 -2 10
-4z m6110 0 c0 -3 -4 -8 -10 -11 -5 -3 -10 -1 -10 4 0 6 5 11 10 11 6 0 10 -2
10 -4z m-20 -31 c0 -12 -29 -3 -34 10 -4 13 -2 14 14 5 11 -6 20 -13 20 -15z
m-6790 -6 c0 -14 -17 -10 -23 5 -4 10 -1 13 9 9 7 -3 14 -9 14 -14z m6670 17
c0 -3 -4 -8 -10 -11 -5 -3 -10 -1 -10 4 0 6 5 11 10 11 6 0 10 -2 10 -4z
m-7382 -59 c2 -9 -2 -17 -8 -17 -7 0 -10 6 -7 14 3 8 2 17 -4 20 -5 2 -4 3 3
2 7 -1 14 -10 16 -19z m7271 -1 c10 -6 12 -5 7 2 -4 7 -2 12 4 12 6 0 10 -8 8
-17 -2 -10 -8 -18 -13 -18 -6 0 -15 -4 -21 -8 -11 -6 -24 12 -24 33 0 10 20 8
39 -4z m-7900 -23 c0 -25 -1 -25 -8 -8 -5 11 -7 23 -4 28 8 14 13 7 12 -20z
m335 2 c-4 -8 -10 -15 -15 -15 -4 0 -6 7 -3 15 4 8 10 15 15 15 4 0 6 -7 3
-15z m1716 5 c12 -7 12 -12 3 -21 -9 -9 -16 -9 -27 1 -26 21 -5 39 24 20z
m5757 -6 c-3 -3 -12 -4 -19 -1 -8 3 -5 6 6 6 11 1 17 -2 13 -5z m-5547 -8 c0
-3 -4 -8 -10 -11 -5 -3 -10 -1 -10 4 0 6 5 11 10 11 6 0 10 -2 10 -4z m-2006
-21 c-4 -8 -1 -15 6 -15 6 0 10 -10 8 -22 -2 -19 -10 -24 -41 -26 -43 -4 -63
22 -34 43 10 7 17 17 17 24 0 6 11 11 25 11 18 0 23 -4 19 -15z m79 -9 c4 -10
1 -13 -8 -9 -8 3 -12 9 -9 14 7 12 11 11 17 -5z m1587 4 c0 -5 -4 -10 -10 -10
-5 0 -10 5 -10 10 0 6 5 10 10 10 6 0 10 -4 10 -10z m-116 -37 c-10 -40 -14
-41 -14 -5 0 18 5 32 10 32 6 0 8 -11 4 -27z m-1934 3 c0 -3 -4 -8 -10 -11 -5
-3 -10 -1 -10 4 0 6 5 11 10 11 6 0 10 -2 10 -4z m1979 -32 c6 4 7 -17 3 -66
-1 -10 -8 -18 -16 -18 -7 0 -19 -7 -26 -15 -7 -8 -16 -12 -21 -9 -5 3 -10 0
-10 -5 -1 -6 -2 -15 -3 -21 0 -5 -3 -9 -6 -8 -3 1 -15 -4 -27 -11 -16 -8 -23
-22 -24 -44 -2 -32 -2 -32 -6 -3 -3 17 -12 30 -24 33 -24 7 -32 39 -20 78 5
17 10 24 10 17 1 -7 6 -10 11 -7 6 3 10 2 10 -4 0 -6 7 -8 15 -5 13 5 13 8 -1
21 -18 18 -2 43 27 43 12 0 16 5 13 15 -4 8 -2 15 4 15 5 0 12 -9 15 -21 5
-18 8 -19 26 -7 12 7 24 22 28 33 6 18 7 18 11 2 2 -9 7 -15 11 -13z m4119 7
c3 -8 -1 -12 -9 -9 -7 2 -15 10 -17 17 -3 8 1 12 9 9 7 -2 15 -10 17 -17z
m-2918 -1 c0 -5 -5 -10 -11 -10 -5 0 -7 5 -4 10 3 6 8 10 11 10 2 0 4 -4 4
-10z m-810 -10 c0 -5 -2 -10 -4 -10 -3 0 -8 5 -11 10 -3 6 -1 10 4 10 6 0 11
-4 11 -10z m4481 -23 c-13 -13 -26 -3 -16 12 3 6 11 8 17 5 6 -4 6 -10 -1 -17z
m-2306 -8 c0 -7 -8 -15 -17 -17 -18 -3 -25 18 -11 32 10 10 28 1 28 -15z
m-2755 -9 c0 -5 -8 -10 -17 -10 -15 0 -16 2 -3 10 19 12 20 12 20 0z m-1256
-25 c-4 -8 -8 -15 -10 -15 -2 0 -4 7 -4 15 0 8 4 15 10 15 5 0 7 -7 4 -15z
m1551 -5 c3 -5 1 -10 -4 -10 -6 0 -11 5 -11 10 0 6 2 10 4 10 3 0 8 -4 11 -10z
m7786 -33 c-8 -8 -11 -7 -11 4 0 20 13 34 18 19 3 -7 -1 -17 -7 -23z m-3021
-8 c0 -5 -4 -9 -10 -9 -5 0 -10 7 -10 16 0 8 5 12 10 9 6 -3 10 -10 10 -16z
m1815 0 c8 -23 1 -34 -14 -24 -13 8 -15 45 -2 45 5 0 13 -9 16 -21z m-7179 -5
c-9 -8 -16 -20 -16 -25 0 -15 -17 -10 -24 6 -4 10 2 19 17 25 33 13 40 12 23
-6z m155 -27 c-8 -8 -11 -7 -11 4 0 20 13 34 18 19 3 -7 -1 -17 -7 -23z m349
12 c0 -5 -7 -9 -15 -9 -9 0 -12 6 -9 15 6 15 24 11 24 -6z m-764 -18 c-3 -4
16 -7 42 -7 38 1 47 -2 47 -16 0 -9 4 -20 8 -24 4 -4 7 -2 7 4 0 7 10 10 23 8
12 -3 32 -5 44 -5 17 -1 24 -9 29 -36 3 -19 10 -37 14 -40 4 -2 33 -6 64 -7
43 -2 56 -6 56 -18 0 -11 -2 -12 -8 -2 -6 9 -12 5 -22 -15 -7 -15 -14 -32 -14
-38 -3 -27 -31 -85 -41 -81 -5 2 -17 0 -26 -5 -18 -9 -70 32 -82 64 -4 9 -16
17 -28 17 -19 0 -20 -2 -8 -16 12 -14 9 -20 -16 -40 -17 -13 -34 -24 -38 -24
-4 0 -24 -11 -44 -25 -30 -20 -40 -22 -52 -12 -12 10 -14 9 -8 -5 4 -12 1 -18
-9 -18 -8 0 -17 7 -20 15 -4 8 -12 15 -20 15 -8 0 -14 3 -14 8 0 4 -28 7 -63
7 -56 0 -63 2 -65 20 0 11 11 33 26 49 l27 29 -35 -7 c-19 -4 -40 -9 -47 -10
-7 -1 -16 -5 -19 -9 -11 -11 -24 -8 -24 4 0 12 40 48 53 49 18 0 37 30 37 58
0 17 5 32 12 34 6 2 11 20 10 39 -1 32 0 33 14 15 8 -11 14 -23 14 -28 0 -13
17 -9 33 7 8 8 36 20 62 27 26 7 50 18 52 25 3 6 11 9 19 6 8 -3 12 -8 10 -12z
m502 -16 c-4 -17 0 -29 11 -35 9 -5 11 -10 4 -10 -6 0 -15 5 -18 10 -10 15
-35 12 -35 -5 0 -8 6 -14 13 -12 6 1 11 -4 9 -12 -1 -7 3 -20 9 -28 11 -12 8
-13 -17 -7 -16 4 -34 11 -41 16 -7 5 -14 5 -18 -2 -3 -5 4 -14 15 -18 21 -8
21 -9 5 -26 -12 -11 -21 -14 -28 -7 -15 15 -11 61 7 79 15 15 18 15 26 2 7
-11 10 -7 10 17 0 31 21 63 42 63 6 0 8 -11 6 -25z m282 0 c0 -8 -4 -15 -10
-15 -5 0 -10 7 -10 15 0 8 5 15 10 15 6 0 10 -7 10 -15z m-360 1 c0 -3 -4 -8
-10 -11 -5 -3 -10 -1 -10 4 0 6 5 11 10 11 6 0 10 -2 10 -4z m2110 -16 c0 -5
-4 -10 -10 -10 -5 0 -10 5 -10 10 0 6 5 10 10 10 6 0 10 -4 10 -10z m-3245
-10 c-3 -5 -10 -10 -16 -10 -5 0 -9 5 -9 10 0 6 7 10 16 10 8 0 12 -4 9 -10z
m1372 -40 c-2 -24 -21 -21 -25 3 -2 10 3 17 12 17 9 0 14 -8 13 -20z m7663 0
c0 -5 -7 -10 -15 -10 -7 0 -18 -6 -22 -14 -4 -7 -24 -21 -43 -31 -40 -20 -32
-9 25 34 43 32 55 37 55 21z m-9430 -18 c8 -4 16 -20 16 -35 1 -23 -2 -27 -20
-25 -11 2 -25 -2 -31 -9 -8 -10 -15 -10 -34 0 -35 17 -38 37 -6 37 14 0 24 -4
20 -9 -3 -5 0 -13 6 -17 9 -5 10 3 6 29 -6 38 5 46 43 29z m9990 2 c0 -3 -6
-12 -14 -20 -11 -10 -17 -11 -22 -3 -3 6 0 15 7 20 16 10 29 12 29 3z m-8525
-14 c3 -5 1 -10 -4 -10 -6 0 -11 5 -11 10 0 6 2 10 4 10 3 0 8 -4 11 -10z
m7845 -5 c0 -16 -34 -38 -44 -28 -3 3 -6 15 -6 25 0 13 7 18 25 18 15 0 25 -6
25 -15z m-3663 -67 c-3 -8 -6 -5 -6 6 -1 11 2 17 5 13 3 -3 4 -12 1 -19z
m-5657 2 c0 -5 -5 -10 -11 -10 -5 0 -7 5 -4 10 3 6 8 10 11 10 2 0 4 -4 4 -10z
m-115 -20 c-3 -5 -10 -10 -16 -10 -5 0 -9 5 -9 10 0 6 7 10 16 10 8 0 12 -4 9
-10z m195 0 c0 -5 -4 -10 -10 -10 -5 0 -10 5 -10 10 0 6 5 10 10 10 6 0 10 -4
10 -10z m260 -4 c0 -7 -6 -19 -14 -25 -10 -9 -16 -7 -27 5 -11 13 -10 17 2 25
21 13 39 11 39 -5z m440 4 c0 -5 -4 -10 -10 -10 -5 0 -10 5 -10 10 0 6 5 10
10 10 6 0 10 -4 10 -10z m8740 -12 c0 -16 -3 -19 -11 -11 -6 6 -8 16 -5 22 11
17 16 13 16 -11z m-7835 -38 c8 0 15 -4 15 -9 0 -17 -61 -9 -70 10 -16 28 -12
32 15 15 13 -9 31 -16 40 -16z m-1759 -12 c4 -7 -2 -18 -14 -26 -12 -8 -22
-23 -22 -33 0 -20 -34 -27 -45 -9 -10 16 14 50 35 50 11 0 20 7 20 15 0 18 16
20 26 3z m33 -12 c7 -8 8 -17 3 -20 -6 -3 -12 3 -15 14 -6 24 -4 25 12 6z
m887 -41 c-9 -14 -23 -25 -31 -25 -20 0 -19 30 1 58 14 20 17 21 31 7 13 -14
13 -18 -1 -40z m8264 41 c0 -3 -4 -8 -10 -11 -5 -3 -10 -1 -10 4 0 6 5 11 10
11 6 0 10 -2 10 -4z m820 0 c0 -2 -8 -10 -17 -17 -16 -13 -17 -12 -4 4 13 16
21 21 21 13z m-8170 -16 c0 -5 -4 -10 -10 -10 -5 0 -10 5 -10 10 0 6 5 10 10
10 6 0 10 -4 10 -10z m-1818 -44 c7 4 8 2 4 -5 -9 -13 -26 -5 -25 12 0 9 2 8
6 -1 2 -6 10 -9 15 -6z m406 3 c-2 -6 -8 -10 -13 -10 -5 0 -11 4 -13 10 -2 6
4 11 13 11 9 0 15 -5 13 -11z m-328 -13 c0 -8 -4 -18 -10 -21 -5 -3 -10 3 -10
14 0 12 5 21 10 21 6 0 10 -6 10 -14z m106 -2 c-3 -9 -6 -20 -6 -26 0 -6 -6
-5 -15 2 -12 10 -13 16 -4 26 16 19 33 18 25 -2z m786 -6 l21 -21 -24 -18
c-13 -11 -31 -26 -40 -34 -22 -21 -46 -19 -54 5 -6 19 6 53 18 51 20 -3 25 1
30 19 7 26 22 25 49 -2z m1218 2 c-6 -11 -13 -20 -15 -20 -3 0 -5 9 -5 20 0
11 7 20 15 20 13 0 14 -4 5 -20z m7735 10 c-3 -5 -11 -10 -16 -10 -6 0 -7 5
-4 10 3 6 11 10 16 10 6 0 7 -4 4 -10z m-9958 -27 c-3 -2 -1 -18 3 -34 7 -23
5 -31 -6 -36 -18 -7 -44 14 -44 35 0 20 30 53 42 46 5 -3 7 -8 5 -11z m853 -3
c0 -5 -4 -10 -10 -10 -5 0 -10 5 -10 10 0 6 5 10 10 10 6 0 10 -4 10 -10z
m560 -25 c7 -9 8 -15 2 -15 -5 0 -12 7 -16 15 -3 8 -4 15 -2 15 2 0 9 -7 16
-15z m5274 -1 c20 -19 20 -23 -1 -46 -21 -24 -40 -23 -53 2 -24 46 18 80 54
44z m-6604 -3 c0 -6 -4 -13 -10 -16 -5 -3 -10 1 -10 9 0 9 5 16 10 16 6 0 10
-4 10 -9z m3140 -21 c0 -5 -2 -10 -4 -10 -3 0 -8 5 -11 10 -3 6 -1 10 4 10 6
0 11 -4 11 -10z m-3156 -35 c3 -8 1 -15 -4 -15 -6 0 -10 7 -10 15 0 8 2 15 4
15 2 0 6 -7 10 -15z m291 -60 c0 -25 -6 -31 -18 -19 -5 6 9 44 16 44 1 0 2
-11 2 -25z m-285 11 c0 -3 -4 -8 -10 -11 -5 -3 -10 -1 -10 4 0 6 5 11 10 11 6
0 10 -2 10 -4z m9060 -6 c0 -5 -2 -10 -4 -10 -3 0 -8 5 -11 10 -3 6 -1 10 4
10 6 0 11 -4 11 -10z m-4490 -49 c0 -6 -4 -13 -10 -16 -5 -3 -10 1 -10 9 0 9
5 16 10 16 6 0 10 -4 10 -9z m-2370 -37 c0 -8 -4 -14 -9 -14 -11 0 -22 26 -14
34 9 9 23 -3 23 -20z m-1724 -11 c-10 -10 -19 5 -10 18 6 11 8 11 12 0 2 -7 1
-15 -2 -18z m761 -25 c-3 -8 -6 -5 -6 6 -1 11 2 17 5 13 3 -3 4 -12 1 -19z
m-802 -18 c4 -6 1 -18 -6 -26 -7 -9 -14 -39 -15 -67 -1 -29 -3 -60 -3 -70 -1
-10 -12 -22 -25 -27 -18 -6 -23 -14 -19 -28 3 -14 -8 -34 -34 -63 -21 -24 -41
-46 -46 -47 -4 -2 -5 -8 -1 -13 3 -5 -4 -9 -16 -9 -11 0 -32 -7 -45 -16 -23
-15 -27 -15 -50 0 -14 9 -25 12 -25 7 0 -5 -9 -7 -20 -4 -37 10 -15 33 31 33
10 0 19 5 19 11 0 5 4 8 9 4 6 -3 19 5 31 17 19 21 20 23 3 30 -10 3 -13 7 -8
7 12 1 71 51 60 51 -5 0 1 10 13 23 12 13 19 26 16 30 -3 3 -3 11 1 17 6 9 9
9 15 -1 12 -18 61 40 54 64 -4 11 0 17 11 17 13 0 16 6 12 22 -9 33 22 64 38
38z m2958 -83 c-3 -6 -11 -3 -19 8 -7 10 -11 22 -7 28 3 6 11 3 19 -8 7 -10
11 -22 7 -28z m2417 -2 c0 -8 -4 -15 -10 -15 -5 0 -7 7 -4 15 4 8 8 15 10 15
2 0 4 -7 4 -15z m-5563 -67 c-3 -7 -5 -2 -5 12 0 14 2 19 5 13 2 -7 2 -19 0
-25z m-17 -18 c0 -5 -4 -10 -10 -10 -5 0 -10 5 -10 10 0 6 5 10 10 10 6 0 10
-4 10 -10z m-45 -44 c-1 -12 2 -27 7 -33 12 -15 -14 -29 -31 -18 -7 3 -8 0 -5
-9 3 -9 1 -16 -5 -16 -6 0 -16 12 -21 26 -13 33 -13 34 6 27 14 -5 15 -3 4 17
-11 20 -10 22 4 17 11 -5 16 -1 16 14 0 16 3 17 13 7 7 -6 13 -21 12 -32z
m1799 28 c18 -17 13 -34 -10 -34 -8 0 -13 -4 -9 -9 3 -5 0 -13 -6 -17 -8 -4
-9 3 -4 26 5 23 3 35 -6 41 -11 7 -10 9 3 9 9 0 24 -7 32 -16z m4229 -63 c28
-15 34 -26 17 -36 -5 -3 -10 -1 -10 4 0 6 -5 11 -11 11 -6 0 -17 6 -25 14 -15
15 -19 30 -6 24 4 -2 19 -10 35 -17z m-93 -11 c0 -5 -4 -10 -10 -10 -5 0 -10
5 -10 10 0 6 5 10 10 10 6 0 10 -4 10 -10z m176 -27 c22 -9 45 -18 53 -19 19
-4 39 -24 23 -24 -15 0 -122 47 -122 54 0 9 4 8 46 -11z m-6156 -9 c0 -7 -27
-34 -34 -34 -12 0 -6 28 7 33 17 8 27 8 27 1z m8130 -14 c0 -5 -5 -10 -11 -10
-5 0 -7 5 -4 10 3 6 8 10 11 10 2 0 4 -4 4 -10z m-250 -4 c0 -3 -4 -8 -10 -11
-5 -3 -10 -1 -10 4 0 6 5 11 10 11 6 0 10 -2 10 -4z m860 0 c0 -3 -4 -8 -10
-11 -5 -3 -10 -1 -10 4 0 6 5 11 10 11 6 0 10 -2 10 -4z m-2428 -26 c19 0 28
-4 25 -12 -5 -16 -45 -11 -72 9 -17 13 -17 15 -2 9 10 -3 32 -6 49 -6z m-6385
-22 c-4 -14 -36 -12 -51 3 -6 5 3 9 23 9 22 0 31 -4 28 -12z m6438 -8 c-3 -5
-10 -10 -16 -10 -5 0 -9 5 -9 10 0 6 7 10 16 10 8 0 12 -4 9 -10z m-6315 -31
c0 -5 -7 -9 -15 -9 -9 0 -15 9 -15 21 0 18 2 19 15 9 8 -7 15 -16 15 -21z
m6439 -17 c-12 -2 -26 1 -33 8 -8 8 -7 9 7 4 13 -5 16 -2 11 11 -6 16 -5 16
15 -1 l22 -19 -22 -3z m-6669 13 c0 -11 7 -14 25 -11 13 3 24 2 23 -2 -1 -4 2
-15 6 -24 9 -19 -13 -48 -37 -48 -35 0 -76 22 -74 41 1 10 4 19 8 19 4 0 11 9
14 20 7 23 35 27 35 5z m474 -11 c10 -26 7 -42 -10 -48 -21 -8 -43 10 -39 32
2 9 4 20 4 25 2 14 39 7 45 -9z m-194 -4 c0 -5 -4 -10 -9 -10 -6 0 -13 5 -16
10 -3 6 1 10 9 10 9 0 16 -4 16 -10z m-90 -36 c0 -7 -27 -34 -33 -34 -4 0 -3
21 2 38 2 5 31 2 31 -4z m-87 -29 c-6 -17 -25 -15 -31 3 -2 7 5 12 17 12 14 0
19 -5 14 -15z m9085 -32 c22 -42 -21 -80 -79 -71 -30 4 -37 42 -13 69 22 25
80 26 92 2z m-1507 -16 c-13 -13 -26 -3 -16 12 3 6 11 8 17 5 6 -4 6 -10 -1
-17z m-87 -12 c-7 -17 -30 -20 -38 -6 -4 5 0 12 6 14 25 10 37 7 32 -8z m1856
-21 c0 -8 -4 -12 -10 -9 -5 3 -10 10 -10 16 0 5 5 9 10 9 6 0 10 -7 10 -16z
m-2875 -24 c3 -5 -1 -10 -10 -10 -9 0 -13 5 -10 10 3 6 8 10 10 10 2 0 7 -4
10 -10z m425 -29 c0 -14 -5 -18 -20 -14 -25 7 -34 19 -26 39 8 21 46 0 46 -25z
m-6730 10 c0 -11 -4 -23 -10 -26 -5 -3 -10 -17 -10 -30 0 -13 5 -27 10 -30 14
-9 12 -17 -10 -44 -17 -19 -23 -21 -35 -11 -12 10 -15 10 -15 -3 0 -27 -29 -8
-46 30 -13 26 -14 37 -5 46 6 6 11 19 11 29 0 20 35 42 56 34 7 -3 20 1 26 9
18 20 28 18 28 -4z m4250 -72 c0 -6 -4 -7 -10 -4 -5 3 -10 11 -10 16 0 6 5 7
10 4 6 -3 10 -11 10 -16z m2110 -17 c0 -13 -12 -22 -22 -16 -10 6 -1 24 13 24
5 0 9 -4 9 -8z m-6571 -89 c-12 -14 -5 -28 14 -28 7 0 13 -8 15 -17 2 -11 -3
-18 -12 -18 -9 0 -16 -8 -16 -20 0 -22 -15 -27 -26 -9 -3 6 -1 15 6 19 10 6
10 15 1 40 -8 24 -8 36 0 46 9 10 9 14 0 14 -6 0 -11 5 -11 12 0 6 9 3 20 -7
15 -14 17 -21 9 -32z m238 25 c-3 -8 -6 -5 -6 6 -1 11 2 17 5 13 3 -3 4 -12 1
-19z m714 -21 c-13 -13 -26 -3 -16 12 3 6 11 8 17 5 6 -4 6 -10 -1 -17z m-811
-31 c0 -18 -16 -29 -30 -21 -13 8 -1 35 16 35 8 0 14 -6 14 -14z m1026 -20 c7
-30 -1 -46 -25 -46 -28 0 -31 10 -15 41 18 35 32 37 40 5z m2784 -6 c0 -5 -2
-10 -4 -10 -3 0 -8 5 -11 10 -3 6 -1 10 4 10 6 0 11 -4 11 -10z m-2010 -32 c0
-14 -5 -18 -16 -14 -9 3 -23 6 -32 6 -14 1 -12 5 7 20 26 23 41 18 41 -12z
m1570 -8 c0 -5 -4 -10 -10 -10 -5 0 -10 5 -10 10 0 6 5 10 10 10 6 0 10 -4 10
-10z m2323 -26 c-3 -8 -11 -14 -18 -14 -18 0 -26 25 -12 39 14 14 38 -5 30
-25z m-4643 -5 c0 -5 -7 -9 -15 -9 -15 0 -20 12 -9 23 8 8 24 -1 24 -14z
m6640 11 c0 -5 -2 -10 -4 -10 -3 0 -8 5 -11 10 -3 6 -1 10 4 10 6 0 11 -4 11
-10z m115 -10 c3 -5 1 -10 -4 -10 -6 0 -11 5 -11 10 0 6 2 10 4 10 3 0 8 -4
11 -10z m-6045 -100 c0 -5 -5 -10 -11 -10 -5 0 -7 5 -4 10 3 6 8 10 11 10 2 0
4 -4 4 -10z m85 -10 c3 -5 1 -10 -4 -10 -6 0 -11 5 -11 10 0 6 2 10 4 10 3 0
8 -4 11 -10z m-422 -75 c3 -7 -3 -24 -13 -37 l-20 -23 5 35 c5 44 3 40 14 40
5 0 11 -7 14 -15z m4095 -27 c2 -10 -8 -14 -38 -14 -26 0 -40 4 -40 12 0 33
71 35 78 2z m-1408 -38 c0 -5 -2 -10 -4 -10 -3 0 -8 5 -11 10 -3 6 -1 10 4 10
6 0 11 -4 11 -10z m-3630 -50 c0 -5 -2 -10 -4 -10 -3 0 -8 5 -11 10 -3 6 -1
10 4 10 6 0 11 -4 11 -10z m485 -20 c3 -5 -3 -10 -15 -10 -12 0 -18 5 -15 10
3 6 10 10 15 10 5 0 12 -4 15 -10z m1815 -100 c0 -5 -2 -10 -4 -10 -3 0 -8 5
-11 10 -3 6 -1 10 4 10 6 0 11 -4 11 -10z m1137 -66 c-9 -9 -28 6 -21 18 4 6
10 6 17 -1 6 -6 8 -13 4 -17z m5268 -94 c3 -5 1 -10 -4 -10 -6 0 -11 5 -11 10
0 6 2 10 4 10 3 0 8 -4 11 -10z m-7977 -12 c-7 -19 -38 -22 -38 -4 0 10 9 16
21 16 12 0 19 -5 17 -12z m3167 -87 c3 -5 1 -12 -5 -16 -5 -3 -10 1 -10 9 0
18 6 21 15 7z m1985 -21 c0 -5 -7 -10 -16 -10 -8 0 -12 5 -9 10 3 6 10 10 16
10 5 0 9 -4 9 -10z m3080 -64 c0 -3 -4 -8 -10 -11 -5 -3 -10 -1 -10 4 0 6 5
11 10 11 6 0 10 -2 10 -4z m-9330 -39 c0 -5 -4 -5 -10 -2 -5 3 -10 14 -10 23
0 15 2 15 10 2 5 -8 10 -19 10 -23z m2395 -47 c3 -6 -1 -7 -9 -4 -18 7 -21 14
-7 14 6 0 13 -4 16 -10z m590 -20 c3 -5 2 -10 -4 -10 -5 0 -13 5 -16 10 -3 6
-2 10 4 10 5 0 13 -4 16 -10z m-1340 -40 c3 -5 1 -10 -4 -10 -6 0 -11 5 -11
10 0 6 2 10 4 10 3 0 8 -4 11 -10z m-925 -40 c0 -5 -2 -10 -4 -10 -3 0 -8 5
-11 10 -3 6 -1 10 4 10 6 0 11 -4 11 -10z m-280 -280 c0 -5 -8 -10 -17 -10
-15 0 -16 2 -3 10 19 12 20 12 20 0z m7355 -10 c-3 -5 -10 -10 -16 -10 -5 0
-9 5 -9 10 0 6 7 10 16 10 8 0 12 -4 9 -10z m-5615 -54 c0 -3 -4 -8 -10 -11
-5 -3 -10 -1 -10 4 0 6 5 11 10 11 6 0 10 -2 10 -4z m3620 -57 c0 -5 -4 -9
-10 -9 -5 0 -10 7 -10 16 0 8 5 12 10 9 6 -3 10 -10 10 -16z m-2325 -119 c3
-5 1 -10 -4 -10 -6 0 -11 5 -11 10 0 6 2 10 4 10 3 0 8 -4 11 -10z m-2890
-360 c3 -5 -1 -10 -9 -10 -9 0 -16 5 -16 10 0 6 4 10 9 10 6 0 13 -4 16 -10z
m4735 -100 c0 -5 -4 -10 -10 -10 -5 0 -10 5 -10 10 0 6 5 10 10 10 6 0 10 -4
10 -10z m-5524 -89 c-12 -19 -24 -12 -19 10 4 13 9 17 15 11 6 -6 7 -15 4 -21z"/>
<path d="M2780 9504 c0 -3 7 -12 15 -20 8 -8 11 -22 8 -32 -4 -13 -3 -14 6 -6
14 12 -1 64 -19 64 -5 0 -10 -3 -10 -6z"/>
<path d="M6736 7285 c4 -8 8 -15 10 -15 2 0 4 7 4 15 0 8 -4 15 -10 15 -5 0
-7 -7 -4 -15z"/>
<path d="M1250 4401 c0 -16 19 -23 40 -16 24 8 27 25 4 25 -9 0 -12 -5 -8 -12
6 -10 4 -10 -7 0 -15 14 -29 16 -29 3z"/>
<path d="M530 4041 c0 -5 5 -13 10 -16 6 -3 10 -2 10 4 0 5 -4 13 -10 16 -5 3
-10 2 -10 -4z"/>
<path d="M562 3991 c-11 -7 -11 -9 0 -14 9 -3 15 1 15 9 0 8 -1 14 -1 14 -1 0
-7 -4 -14 -9z"/>
<path d="M427 3976 c-4 -10 -1 -19 9 -23 21 -8 26 1 11 22 -13 16 -14 16 -20
1z"/>
<path d="M8800 4270 c0 -5 5 -10 10 -10 6 0 10 5 10 10 0 6 -4 10 -10 10 -5 0
-10 -4 -10 -10z"/>
<path d="M8700 4220 c0 -5 5 -10 10 -10 6 0 10 5 10 10 0 6 -4 10 -10 10 -5 0
-10 -4 -10 -10z"/>
<path d="M1691 3909 c-1 -16 27 -79 34 -79 5 0 -6 32 -15 45 -5 6 -10 19 -13
30 -3 13 -5 15 -6 4z"/>
<path d="M1342 3658 c2 -6 10 -14 16 -16 7 -2 10 2 6 12 -7 18 -28 22 -22 4z"/>
<path d="M1368 3578 c-10 -10 -14 -18 -9 -18 5 0 16 -3 25 -6 11 -4 16 0 16
14 0 29 -12 32 -32 10z"/>
<path d="M1481 3518 c-5 -13 -6 -25 -3 -28 2 -3 7 0 9 7 3 10 9 10 23 0 13 -7
23 -8 29 -2 13 13 1 31 -27 39 -17 6 -24 3 -31 -16z"/>
<path d="M6580 6641 c0 -8 8 -20 18 -27 21 -16 36 -18 27 -4 -4 6 -1 18 7 27
12 15 11 15 -10 2 -20 -12 -24 -12 -32 1 -8 12 -10 12 -10 1z"/>
<path d="M6548 6613 c7 -3 16 -2 19 1 4 3 -2 6 -13 5 -11 0 -14 -3 -6 -6z"/>
<path d="M6707 6538 c7 -8 10 -17 7 -20 -2 -3 2 -8 11 -12 9 -3 13 -2 10 4 -3
6 0 10 8 10 7 0 14 7 14 15 0 10 -4 12 -10 6 -7 -7 -17 -6 -31 1 -18 10 -19 9
-9 -4z"/>
<path d="M6167 6527 c-3 -7 3 -13 13 -13 10 0 16 6 13 13 -3 7 -9 13 -13 13
-4 0 -10 -6 -13 -13z"/>
<path d="M5876 6509 c3 -6 0 -16 -7 -21 -12 -8 -11 -9 1 -5 18 4 27 37 10 37
-6 0 -8 -5 -4 -11z"/>
<path d="M5720 6487 c0 -8 -8 -18 -17 -20 -17 -4 -17 -5 0 -6 18 -1 35 25 23
36 -3 4 -6 -1 -6 -10z"/>
<path d="M4820 6250 c-9 -6 -10 -10 -3 -10 6 0 15 5 18 10 8 12 4 12 -15 0z"/>
<path d="M4848 6173 c6 -2 10 -9 6 -14 -3 -5 0 -9 5 -9 6 0 11 7 11 15 0 8 -8
15 -17 14 -11 0 -13 -3 -5 -6z"/>
<path d="M4881 6124 c0 -11 3 -14 6 -6 3 7 2 16 -1 19 -3 4 -6 -2 -5 -13z"/>
<path d="M7195 6090 c-3 -5 -1 -10 4 -10 6 0 11 5 11 10 0 6 -2 10 -4 10 -3 0
-8 -4 -11 -10z"/>
<path d="M7940 5877 c-18 -14 -24 -37 -10 -37 6 0 10 7 10 16 0 8 5 12 10 9 6
-3 10 1 10 9 0 19 -1 19 -20 3z"/>
<path d="M7986 5877 c3 -10 9 -15 12 -12 3 3 0 11 -7 18 -10 9 -11 8 -5 -6z"/>
<path d="M8020 5845 c0 -3 7 -17 16 -30 9 -14 15 -25 13 -26 -31 -6 -39 -5
-39 5 0 7 -7 13 -15 13 -8 0 -15 -5 -15 -11 0 -5 -7 -1 -15 10 -10 12 -14 14
-13 4 2 -8 -2 -14 -9 -15 -15 0 -30 -15 -15 -15 7 0 12 -5 12 -11 0 -5 -5 -7
-12 -3 -7 4 -8 3 -4 -5 6 -9 11 -9 24 1 12 10 14 10 8 1 -12 -22 32 -20 78 3
19 9 25 10 18 1 -5 -6 -9 -23 -7 -36 2 -25 17 -31 75 -32 l25 -1 -25 -14 c-14
-7 -20 -13 -13 -14 6 0 14 -8 16 -17 3 -13 5 -12 6 5 0 13 5 21 9 18 4 -2 9 6
10 19 1 13 -3 27 -8 30 -6 4 -7 12 -4 18 4 7 4 9 0 6 -10 -9 -76 51 -87 79 -7
19 -29 32 -29 17z"/>
<path d="M7860 5775 c-15 -8 -19 -14 -10 -14 18 -1 46 16 40 23 -3 2 -16 -2
-30 -9z"/>
<path d="M8930 5736 c0 -2 7 -9 15 -16 9 -7 15 -8 15 -2 0 5 -7 12 -15 16 -8
3 -15 4 -15 2z"/>
<path d="M8075 5680 c-3 -5 -1 -10 4 -10 6 0 11 5 11 10 0 6 -2 10 -4 10 -3 0
-8 -4 -11 -10z"/>
<path d="M8955 5600 c4 -6 11 -8 16 -5 14 9 11 15 -7 15 -8 0 -12 -5 -9 -10z"/>
<path d="M7759 5528 c0 -2 -3 -16 -5 -32 -3 -16 -14 -46 -25 -67 -10 -21 -19
-45 -19 -54 0 -13 -140 -162 -147 -157 -9 7 -23 0 -18 -8 3 -6 -1 -13 -9 -16
-8 -3 -21 -21 -27 -39 -9 -23 -17 -32 -28 -28 -12 4 -13 3 -3 -4 10 -8 10 -12
-3 -23 -12 -10 -15 -10 -15 3 0 13 -16 16 -40 7 -3 -1 -8 -2 -12 -1 -4 0 -5
-5 -2 -13 3 -8 0 -17 -7 -22 -8 -4 -10 -3 -5 4 10 17 -3 15 -20 -2 -16 -17
-19 -36 -4 -36 6 0 10 5 10 10 0 6 3 9 8 9 4 -1 9 -1 12 1 3 1 16 4 30 6 13 2
34 14 46 25 13 12 27 18 33 15 6 -4 20 2 32 13 12 11 26 18 31 15 4 -3 8 -1 8
5 0 6 7 8 15 5 8 -4 15 -1 15 5 0 6 7 8 17 4 10 -4 14 -2 9 5 -3 6 -2 13 4 17
5 3 10 1 10 -5 0 -6 5 -8 12 -4 7 5 5 11 -7 21 -20 14 -12 18 28 14 10 -2 17
5 17 14 0 9 4 14 9 11 5 -3 12 1 15 10 4 9 9 14 13 11 3 -4 16 7 28 23 12 16
25 27 29 23 4 -4 4 0 0 10 -3 9 -2 17 4 17 8 0 27 37 30 60 0 3 6 18 12 35 24
63 -16 127 -59 92 -11 -9 -13 -9 -8 0 4 6 3 14 -3 18 -5 3 -10 5 -11 3z m-14
-148 c-3 -5 -12 -10 -18 -10 -7 0 -6 4 3 10 19 12 23 12 15 0z m-300 -290 c3
-5 1 -10 -4 -10 -6 0 -11 5 -11 10 0 6 2 10 4 10 3 0 8 -4 11 -10z"/>
<path d="M8074 5520 c-22 -9 -37 -43 -49 -115 -9 -52 -25 -81 -78 -135 -62
-64 -156 -150 -165 -150 -4 0 -45 -25 -92 -55 -46 -30 -100 -60 -120 -66 -19
-6 -39 -15 -45 -19 -5 -5 -41 -21 -80 -36 -96 -37 -107 -50 -39 -45 22 2 52
-25 40 -36 -3 -3 -6 -1 -6 5 0 7 -5 12 -11 12 -6 0 -9 -7 -5 -15 7 -19 -1 -19
-21 1 -11 11 -19 12 -26 5 -6 -6 -22 -11 -35 -11 -13 0 -21 -4 -18 -9 3 -5 -2
-12 -12 -16 -15 -6 -14 -8 8 -18 14 -5 28 -11 32 -11 3 -1 9 -4 13 -8 4 -3 21
0 38 7 18 7 48 16 68 19 20 3 49 11 65 17 16 7 34 13 39 14 29 6 55 18 55 27
0 5 5 6 11 2 11 -7 52 10 81 34 9 7 22 15 30 16 7 2 20 5 28 8 8 3 34 11 58
17 23 7 42 16 42 21 0 6 5 10 11 10 10 0 33 16 87 61 7 6 16 9 18 6 3 -3 14 2
23 11 10 10 40 38 67 63 57 54 90 91 139 155 66 86 88 175 55 216 -17 21 -19
21 -25 6 -10 -25 -24 -22 -18 3 5 18 2 20 -23 17 -21 -2 -28 -8 -26 -20 1 -9
-2 -19 -8 -23 -5 -3 -10 3 -10 14 0 25 -32 36 -61 21 -15 -8 -19 -9 -15 -1 8
13 8 13 -20 1z m-614 -680 c0 -5 -4 -10 -10 -10 -5 0 -10 5 -10 10 0 6 5 10
10 10 6 0 10 -4 10 -10z"/>
<path d="M2777 5228 c-3 -8 4 -13 18 -13 18 0 21 3 13 13 -6 6 -14 12 -18 12
-4 0 -10 -6 -13 -12z"/>
<path d="M2430 5200 c0 -13 18 -22 24 -11 3 5 -1 11 -9 15 -8 3 -15 1 -15 -4z"/>
<path d="M2791 5192 c-1 -25 20 -26 27 -1 3 12 2 12 -6 0 -8 -11 -11 -10 -15
5 -4 16 -5 15 -6 -4z"/>
<path d="M7300 5046 c0 -2 7 -7 16 -10 8 -3 12 -2 9 4 -6 10 -25 14 -25 6z"/>
<path d="M3997 4995 c-4 -8 -2 -17 3 -20 6 -4 10 3 10 14 0 25 -6 27 -13 6z"/>
<path d="M4030 4980 c0 -5 5 -10 10 -10 6 0 10 5 10 10 0 6 -4 10 -10 10 -5 0
-10 -4 -10 -10z"/>
<path d="M3466 4933 c-6 -14 -5 -15 5 -6 7 7 10 15 7 18 -3 3 -9 -2 -12 -12z"/>
<path d="M7303 4885 c-3 -9 -3 -19 1 -22 3 -4 6 2 6 12 0 13 3 15 13 6 14 -11
27 -6 27 11 0 15 -40 8 -47 -7z"/>
<path d="M7272 4846 c7 -8 17 -12 22 -9 4 3 2 9 -5 14 -22 13 -31 11 -17 -5z"/>
<path d="M1600 4700 c0 -5 5 -10 10 -10 6 0 10 5 10 10 0 6 -4 10 -10 10 -5 0
-10 -4 -10 -10z"/>
<path d="M2626 4660 c-19 -6 -19 -7 -1 -14 10 -3 22 -3 28 3 12 12 -4 20 -27
11z"/>
<path d="M4934 4640 c0 -11 5 -19 11 -17 5 2 10 10 10 17 0 7 -5 15 -10 17 -6
2 -11 -6 -11 -17z"/>
<path d="M4810 4640 c0 -5 7 -10 16 -10 8 0 12 5 9 10 -3 6 -10 10 -16 10 -5
0 -9 -4 -9 -10z"/>
<path d="M2660 4631 c0 -5 7 -12 16 -15 24 -9 28 -7 14 9 -14 17 -30 20 -30 6z"/>
<path d="M2760 4635 c-1 -5 -2 -13 -2 -16 1 -3 -5 -6 -13 -6 -8 0 -12 4 -9 9
3 4 0 8 -5 8 -17 0 -13 -37 4 -44 21 -7 31 -6 28 5 -2 5 14 6 35 3 37 -6 37
-6 17 14 -11 10 -21 15 -23 11 -6 -15 -20 -10 -25 9 -3 9 -6 13 -7 7z"/>
<path d="M7027 4585 c-4 -8 -2 -17 3 -20 6 -4 10 3 10 14 0 25 -6 27 -13 6z"/>
<path d="M5410 4566 c0 -2 7 -7 16 -10 8 -3 12 -2 9 4 -6 10 -25 14 -25 6z"/>
<path d="M1435 4530 c3 -5 8 -10 11 -10 2 0 4 5 4 10 0 6 -5 10 -11 10 -5 0
-7 -4 -4 -10z"/>
<path d="M1672 4521 c-9 -5 -10 -15 -3 -32 l9 -24 7 28 c8 32 5 39 -13 28z"/>
<path d="M1830 4500 c-13 -8 -12 -10 3 -10 9 0 17 5 17 10 0 12 -1 12 -20 0z"/>
<path d="M6570 4490 c-9 -6 -10 -10 -3 -10 6 0 15 5 18 10 8 12 4 12 -15 0z"/>
<path d="M4440 4475 c0 -5 9 -25 20 -43 11 -18 18 -37 15 -41 -2 -5 8 -33 23
-62 48 -94 95 -158 105 -142 8 13 -28 89 -50 104 -24 17 -63 90 -63 119 0 11
-4 20 -10 20 -5 0 -16 12 -24 28 -8 15 -15 23 -16 17z"/>
<path d="M3040 4441 c7 -13 7 -22 0 -26 -5 -3 -10 -11 -10 -18 0 -6 7 -2 15
10 15 21 11 53 -6 53 -6 0 -5 -8 1 -19z"/>
<path d="M6010 4450 c-8 -5 -12 -11 -9 -14 2 -3 11 -1 19 4 8 5 12 11 9 14 -2
3 -11 1 -19 -4z"/>
<path d="M2186 4392 c-9 -15 12 -35 29 -28 14 5 15 9 5 21 -14 17 -26 19 -34
7z"/>
<path d="M3170 4375 c0 -5 5 -17 10 -25 5 -8 10 -10 10 -5 0 6 -5 17 -10 25
-5 8 -10 11 -10 5z"/>
<path d="M4610 4170 c0 -5 7 -10 16 -10 13 0 14 -3 5 -14 -9 -11 -8 -18 4 -30
9 -9 21 -16 26 -16 5 0 9 -5 9 -11 0 -7 -10 -9 -27 -5 -25 6 -26 5 -10 -7 9
-8 17 -19 17 -25 0 -12 28 -24 40 -17 4 3 6 -4 3 -14 -3 -13 10 -34 44 -68 26
-28 62 -67 78 -88 42 -53 372 -381 393 -391 22 -10 28 -11 50 -13 15 -1 15 -3
2 -11 -15 -9 -11 -12 20 -14 8 -1 19 -11 25 -23 5 -13 16 -23 23 -23 7 0 28
-11 46 -25 37 -28 56 -32 56 -11 0 8 6 16 13 19 15 5 -31 46 -52 47 -8 0 -11
3 -8 7 8 7 -26 40 -96 92 -29 21 -80 66 -113 100 -39 39 -73 63 -93 67 -17 4
-31 11 -31 16 0 6 -7 4 -16 -3 -14 -11 -15 -10 -13 6 7 42 -38 78 -98 77 -14
0 -23 6 -23 15 0 9 6 13 14 10 16 -6 30 19 20 35 -3 5 -12 7 -20 4 -8 -3 -14
1 -14 8 0 8 -13 24 -30 37 -16 13 -35 36 -41 52 -6 15 -17 27 -24 27 -8 0 -23
12 -35 28 -59 76 -60 78 -54 57 6 -18 5 -17 -10 3 -10 12 -14 27 -10 34 4 7 3
8 -4 4 -7 -4 -12 -1 -12 8 0 9 -4 16 -10 16 -5 0 -10 6 -10 13 0 14 -31 47
-43 47 -4 0 -7 -4 -7 -10z m236 -277 c-7 -7 -26 7 -26 19 0 6 6 6 15 -2 9 -7
13 -15 11 -17z m22 -58 c-3 -3 -9 2 -12 12 -6 14 -5 15 5 6 7 -7 10 -15 7 -18z
m257 -183 c-3 -3 -11 0 -18 7 -9 10 -8 11 6 5 10 -3 15 -9 12 -12z"/>
<path d="M4770 4011 c0 -11 29 -35 35 -29 2 2 -4 12 -15 21 -11 9 -20 13 -20
8z"/>
<path d="M10210 3655 c-13 -14 -19 -25 -13 -25 12 0 48 38 41 45 -2 3 -15 -6
-28 -20z"/>
<path d="M5290 3550 c0 -13 38 -32 53 -26 7 2 5 5 -4 5 -9 1 -19 8 -23 16 -6
17 -26 21 -26 5z"/>
<path d="M5360 3516 c0 -2 8 -10 18 -17 15 -13 16 -12 3 4 -13 16 -21 21 -21
13z"/>
<path d="M5430 3500 c0 -5 5 -10 10 -10 6 0 10 5 10 10 0 6 -4 10 -10 10 -5 0
-10 -4 -10 -10z"/>
<path d="M5400 3490 c0 -5 5 -10 11 -10 5 0 7 5 4 10 -3 6 -8 10 -11 10 -2 0
-4 -4 -4 -10z"/>
<path d="M9788 3450 c-7 -11 -19 -20 -26 -20 -7 0 -11 -4 -7 -9 3 -6 21 -1 40
10 40 24 40 25 20 33 -9 3 -20 -3 -27 -14z"/>
<path d="M5448 3333 c7 -3 16 -2 19 1 4 3 -2 6 -13 5 -11 0 -14 -3 -6 -6z"/>
<path d="M260 2970 c0 -5 5 -10 11 -10 5 0 7 5 4 10 -3 6 -8 10 -11 10 -2 0
-4 -4 -4 -10z"/>
<path d="M24 2921 c4 -5 2 -11 -2 -13 -4 -1 -2 -14 5 -28 12 -25 13 -24 13 13
0 20 -5 37 -11 37 -5 0 -8 -4 -5 -9z"/>
<path d="M50 2870 c0 -11 2 -20 4 -20 2 0 6 9 9 20 3 11 1 20 -4 20 -5 0 -9
-9 -9 -20z"/>
<path d="M1 2869 c0 -8 5 -23 12 -33 12 -17 14 -17 20 -2 4 10 1 16 -8 16 -7
0 -16 8 -18 18 -4 13 -5 14 -6 1z"/>
<path d="M26 2782 c6 -4 13 -14 16 -22 3 -11 6 -9 10 6 4 15 0 20 -16 22 -11
0 -16 -2 -10 -6z"/>
<path d="M128 2783 c7 -3 16 -2 19 1 4 3 -2 6 -13 5 -11 0 -14 -3 -6 -6z"/>
<path d="M56 2731 c-4 -6 0 -18 8 -27 12 -12 16 -12 16 -2 0 22 -17 42 -24 29z"/>
</g>
</svg>
