<?xml version="1.0" standalone="no"?>
<!DOCTYPE svg PUBLIC "-//W3C//DTD SVG 20010904//EN"
 "http://www.w3.org/TR/2001/REC-SVG-20010904/DTD/svg10.dtd">
<svg version="1.0" xmlns="http://www.w3.org/2000/svg"
 width="1024.000000pt" height="1024.000000pt" viewBox="0 0 1024.000000 1024.000000"
 preserveAspectRatio="xMidYMid meet">

<g transform="translate(0.000000,1024.000000) scale(0.100000,-0.100000)"
fill="#000000" stroke="none">
<path d="M0 8766 l0 -1474 78 -4 c114 -7 230 -59 325 -147 40 -36 113 -190
138 -290 18 -71 21 -105 17 -213 -3 -71 -9 -133 -15 -139 -8 -8 -10 3 -8 35 2
43 1 45 -22 40 -17 -5 -23 -2 -23 10 0 8 -9 20 -20 26 -11 6 -18 15 -15 19 3
5 -2 12 -11 15 -8 3 -12 10 -9 16 3 5 1 10 -5 10 -6 0 -9 4 -5 9 3 5 1 12 -5
16 -6 4 -8 10 -5 15 3 5 -5 17 -18 27 -12 10 -29 37 -36 61 -8 23 -18 42 -23
42 -4 0 -8 9 -8 19 0 11 -6 23 -13 27 -6 4 -9 4 -5 -1 4 -4 3 -14 -3 -21 -9
-11 -15 -9 -32 6 -28 27 -35 25 -30 -7 4 -26 3 -27 -9 -8 -7 11 -13 23 -14 28
-4 21 -7 20 -19 -8 -9 -19 -14 -24 -15 -12 0 21 -16 22 -24 2 -4 -12 -10 -14
-25 -5 -25 13 -53 14 -32 1 10 -7 10 -10 1 -16 -7 -4 -16 -1 -21 6 -7 11 -9
10 -9 -3 0 -16 -2 -16 -20 2 -11 11 -20 24 -20 28 0 4 -9 8 -19 8 -15 0 -17
-3 -9 -13 7 -9 7 -13 -1 -13 -8 0 -11 -901 -11 -3430 l0 -3430 4720 0 4720 0
0 80 0 80 320 0 320 0 0 -80 0 -80 80 0 80 0 0 1485 c0 1168 -3 1485 -13 1485
-10 0 -51 -13 -119 -36 -10 -4 -18 -13 -18 -22 0 -12 -3 -13 -12 -4 -15 15
-29 16 -26 1 2 -6 -8 -13 -22 -15 -14 -3 -29 -10 -35 -18 -5 -7 -16 -11 -24
-8 -10 3 -11 -2 -6 -18 5 -15 4 -20 -4 -16 -6 4 -14 -1 -18 -11 -12 -30 -50
-66 -57 -54 -4 6 -16 11 -27 11 -11 0 -18 4 -14 9 3 5 1 12 -5 16 -6 3 -10 -3
-10 -15 0 -17 -4 -20 -20 -15 -12 4 -20 2 -20 -5 0 -6 -5 -8 -10 -5 -6 4 -17
1 -25 -5 -12 -10 -15 -10 -15 0 0 8 -4 9 -12 3 -7 -5 -24 -7 -38 -5 -14 2 -40
3 -58 3 -18 -1 -31 2 -28 7 2 4 -4 8 -14 8 -11 0 -16 -5 -12 -15 4 -11 1 -13
-14 -7 -31 12 -39 12 -37 -1 2 -8 -7 -11 -27 -9 -17 2 -30 -1 -30 -5 0 -5 -5
-9 -11 -9 -5 0 -7 5 -3 11 5 8 1 8 -14 0 -25 -14 -35 -14 -27 -1 3 5 -7 3 -22
-5 -15 -8 -35 -12 -45 -9 -9 2 -19 0 -23 -6 -4 -6 -28 -11 -53 -10 -56 0 -83
-3 -100 -14 -7 -4 -12 -2 -12 5 0 8 -4 8 -12 2 -13 -10 -30 -13 -78 -14 -14
-1 -31 -5 -37 -11 -7 -6 -13 -6 -13 -1 0 10 -54 9 -80 0 -8 -4 -42 -13 -75
-21 -46 -12 -61 -12 -67 -3 -6 9 -8 9 -8 -1 0 -6 -3 -11 -7 -11 -22 4 -43 -3
-58 -17 -13 -13 -21 -14 -41 -6 -15 8 -24 8 -24 1 0 -6 -7 -6 -20 1 -14 7 -20
7 -20 0 0 -5 -9 -10 -21 -10 -16 0 -19 -4 -14 -20 4 -11 2 -20 -4 -20 -6 0
-11 9 -11 20 0 22 -28 27 -61 10 -10 -6 -19 -7 -19 -3 0 4 -11 8 -25 8 -14 0
-25 -3 -25 -6 0 -4 -39 -10 -87 -15 -88 -8 -101 -9 -105 -14 -2 -1 -23 -4 -48
-6 -25 -1 -56 -5 -70 -7 -14 -3 -45 -8 -70 -12 -101 -15 -115 -17 -122 -22 -4
-2 -35 -4 -68 -4 -34 0 -74 -4 -90 -9 -20 -6 -30 -5 -30 2 0 6 -6 6 -15 -2 -8
-7 -15 -9 -15 -6 0 4 -10 2 -21 -5 -15 -8 -19 -8 -15 0 5 8 0 8 -18 2 -13 -6
-33 -10 -43 -10 -27 0 -112 -8 -160 -15 -44 -7 -132 -14 -248 -21 -38 -2 -83
-6 -100 -9 -35 -6 -167 -15 -345 -21 -239 -10 -288 -13 -299 -20 -6 -3 -11 0
-11 7 0 8 -3 9 -8 3 -8 -12 -311 -14 -329 -2 -6 4 -14 3 -17 -2 -3 -5 -94 -7
-208 -5 -112 2 -269 5 -350 6 -82 2 -148 5 -148 8 0 3 -35 6 -78 8 -141 6
-152 7 -152 12 0 3 -40 5 -89 5 -49 0 -87 3 -84 8 2 4 -6 5 -19 4 -12 -2 -37
-1 -55 3 -22 6 -33 4 -33 -4 0 -7 -3 -7 -8 -1 -4 6 -15 11 -24 11 -10 1 -29 5
-43 8 -16 4 -25 2 -25 -5 0 -8 -4 -8 -14 1 -8 6 -33 10 -54 9 -22 -2 -46 2
-54 8 -8 7 -19 8 -28 3 -9 -5 -19 -5 -26 1 -7 5 -23 8 -37 5 -14 -2 -28 -2
-31 1 -3 4 -18 7 -33 8 -148 12 -187 17 -196 22 -6 3 -31 7 -56 9 -25 1 -59 5
-76 7 -16 3 -55 9 -85 13 -30 4 -66 8 -80 11 -14 2 -38 6 -55 8 -16 2 -30 4
-30 5 0 3 -63 12 -87 13 -16 0 -28 4 -28 9 0 5 -4 7 -8 4 -9 -5 -176 19 -252
37 -24 6 -42 9 -164 27 -33 5 -64 6 -69 3 -6 -3 -16 2 -24 12 -7 11 -13 13
-13 7 0 -9 -5 -10 -19 -2 -11 5 -36 11 -55 12 -20 2 -36 6 -36 11 0 4 -10 7
-23 7 -13 0 -46 6 -73 14 -27 7 -76 19 -109 26 -33 6 -74 18 -92 27 -17 8 -36
12 -42 9 -6 -4 -11 -3 -11 1 0 5 -8 10 -17 11 -57 7 -70 10 -90 20 -12 7 -26
11 -30 10 -4 -1 -19 4 -32 11 -16 9 -21 9 -16 1 5 -8 2 -9 -11 -1 -33 17 -104
41 -104 35 0 -4 -7 -1 -15 6 -8 6 -19 9 -25 5 -5 -3 -10 -2 -10 4 0 5 -9 8
-20 6 -11 -2 -25 2 -32 9 -7 7 -18 11 -25 9 -6 -2 -14 1 -18 6 -3 6 -15 11
-26 11 -10 0 -19 4 -19 8 0 4 -10 9 -22 10 -43 3 -63 7 -83 19 -11 6 -42 18
-70 26 -46 13 -126 46 -167 68 -13 6 -18 5 -18 -3 0 -8 -5 -6 -10 4 -6 9 -25
20 -43 24 -42 10 -38 9 -70 22 -16 7 -33 12 -38 12 -5 0 -9 5 -9 10 0 6 -3 9
-7 9 -5 -1 -21 3 -38 10 -16 6 -34 12 -40 13 -5 1 -19 10 -29 20 -11 10 -34
21 -53 24 -18 3 -33 10 -33 14 0 6 -69 40 -90 45 -3 0 -17 9 -32 19 -15 10
-32 15 -38 11 -5 -3 -10 1 -10 9 0 9 -4 17 -10 17 -21 3 -26 5 -67 32 -24 15
-47 27 -51 27 -5 0 -19 9 -32 20 -12 11 -26 18 -30 15 -4 -2 -20 9 -36 26 -16
17 -50 42 -77 55 -51 27 -77 45 -115 84 -13 14 -28 24 -33 22 -5 -1 -12 5 -15
13 -3 8 -10 12 -15 9 -5 -3 -9 1 -9 9 0 20 -40 55 -41 36 0 -8 -7 1 -15 19 -8
18 -19 30 -24 27 -6 -3 -10 -1 -10 4 0 6 -5 11 -11 11 -14 0 -48 41 -49 59 0
8 -3 12 -6 9 -9 -10 -41 26 -36 40 2 6 0 12 -5 12 -5 0 -22 25 -37 54 -16 30
-35 57 -43 60 -8 3 -11 10 -8 16 3 5 1 10 -6 10 -7 0 -10 3 -6 6 3 3 -5 31
-19 61 -13 30 -22 59 -19 63 3 5 1 11 -5 15 -6 4 -8 11 -4 16 3 5 0 16 -6 24
-7 8 -10 21 -7 30 4 8 2 17 -4 21 -5 3 -7 14 -4 24 3 10 1 21 -5 25 -6 3 -8
10 -5 15 5 8 17 108 19 157 1 11 4 19 7 17 7 -4 17 36 23 85 1 14 8 27 14 29
7 2 12 9 12 17 0 7 7 18 15 25 9 7 14 19 11 27 -3 7 -1 13 4 13 6 0 10 4 10 9
0 19 62 101 71 96 5 -4 9 -1 9 5 0 10 84 97 146 150 67 57 236 180 249 180 3
0 35 18 71 40 36 22 68 40 70 40 2 0 41 18 88 40 46 22 87 40 90 40 4 0 36 14
71 30 35 17 67 30 70 30 12 0 191 72 199 81 6 5 19 9 29 9 11 0 63 15 116 34
53 18 125 43 161 54 66 20 458 120 508 128 15 3 54 11 87 19 83 21 334 69 418
81 18 2 59 8 92 13 33 5 62 7 64 5 8 -7 -14 -59 -24 -59 -6 -1 -48 -13 -95
-28 -47 -14 -107 -31 -135 -36 -76 -15 -365 -88 -500 -128 -196 -57 -312 -97
-463 -162 -139 -60 -274 -128 -437 -220 -35 -20 -171 -116 -185 -131 -3 -3
-27 -23 -55 -44 -137 -108 -262 -273 -307 -405 -34 -101 -32 -248 6 -361 15
-47 34 -92 40 -100 7 -8 30 -44 51 -79 85 -143 369 -378 610 -506 39 -20 75
-41 80 -45 6 -4 80 -40 165 -79 85 -40 164 -76 175 -81 34 -16 105 -39 105
-34 0 2 10 -2 23 -10 36 -23 302 -113 385 -131 25 -5 36 -3 46 10 8 11 19 15
37 10 21 -5 25 -11 22 -30 -3 -12 -1 -25 4 -28 15 -9 189 -54 283 -72 47 -10
103 -23 125 -30 100 -32 521 -121 615 -130 25 -2 45 -5 45 -6 0 -1 9 -3 20 -5
42 -6 82 -13 135 -24 88 -17 525 -78 640 -89 468 -45 1034 -71 1405 -65 430 7
941 29 1135 49 19 2 67 6 105 10 39 3 90 8 115 11 25 2 113 11 195 19 156 15
236 23 295 29 80 9 536 77 675 101 163 27 318 61 350 77 19 8 45 15 68 17 5 1
6 5 3 10 -20 31 50 65 80 40 36 -29 72 -12 76 35 1 14 8 26 15 26 7 0 13 4 13
8 0 18 42 56 63 57 29 3 69 -24 63 -41 -3 -9 4 -16 19 -20 14 -3 25 -9 25 -13
0 -33 119 -25 252 17 34 11 128 39 208 62 80 22 154 45 165 50 11 4 45 16 75
24 30 9 72 24 93 33 l37 16 0 579 0 579 -21 -11 c-11 -6 -23 -18 -26 -26 -3
-8 -13 -14 -22 -14 -9 0 -28 -8 -41 -17 -32 -23 -92 -53 -104 -53 -5 0 -43
-16 -85 -36 -42 -19 -85 -39 -96 -44 -32 -14 -168 -58 -195 -64 -14 -2 -44
-11 -67 -20 -24 -8 -43 -13 -43 -10 0 2 -16 -3 -36 -11 -20 -8 -44 -15 -52
-15 -14 0 -121 -29 -172 -47 -8 -3 -24 -7 -35 -9 -11 -1 -40 -7 -65 -13 -25
-6 -79 -19 -120 -29 -59 -14 -76 -22 -79 -37 -2 -11 0 -17 4 -13 13 12 34 -12
28 -30 -3 -9 -14 -26 -23 -37 -9 -11 -27 -46 -39 -77 -13 -32 -26 -56 -31 -55
-4 1 -25 -20 -48 -46 -110 -134 -317 -223 -492 -213 -140 8 -236 53 -345 162
-44 44 -91 85 -105 92 -14 6 -47 28 -75 48 l-50 36 -150 -6 c-82 -3 -168 -8
-190 -11 -22 -3 -78 -7 -125 -9 -47 -3 -105 -7 -130 -10 -25 -4 -79 -8 -120
-11 -41 -2 -75 -5 -75 -5 0 0 -40 -2 -90 -5 -49 -2 -139 -6 -200 -9 -229 -12
-347 -15 -560 -16 -121 0 -224 -1 -230 0 -5 0 -95 2 -200 5 -104 3 -219 7
-255 10 -167 12 -267 18 -490 30 -63 3 -123 8 -133 11 -31 9 -279 12 -308 4
-34 -10 -51 -25 -72 -66 -21 -40 -187 -174 -216 -174 -4 0 -14 -7 -21 -15 -7
-8 -44 -25 -84 -37 -58 -18 -94 -22 -191 -21 l-120 1 -82 42 c-45 23 -93 52
-108 66 -15 14 -38 24 -56 24 -22 0 -32 6 -39 25 -5 14 -15 25 -21 25 -6 0 -9
6 -6 14 3 8 -7 31 -23 53 -16 21 -30 44 -30 51 0 6 -4 12 -9 12 -5 0 -13 10
-17 22 -3 12 -17 33 -30 47 -13 14 -24 32 -24 39 0 7 -4 11 -10 7 -5 -3 -18
12 -29 33 -11 21 -25 43 -33 49 -7 5 -56 20 -108 32 -304 70 -349 82 -550 148
-102 34 -134 47 -271 112 -36 17 -69 31 -73 31 -5 0 -27 15 -49 33 -23 17 -44
31 -47 30 -8 -2 -103 88 -123 117 -19 27 -23 113 -7 155 16 42 99 123 174 170
101 63 324 163 401 180 11 3 31 9 45 15 48 19 394 101 406 96 7 -3 15 0 18 7
2 7 5 -5 5 -25 1 -44 15 -56 39 -32 15 16 15 17 0 12 -13 -6 -16 -2 -13 20 2
15 4 30 4 35 1 4 8 7 16 7 8 0 15 4 15 10 0 5 -7 7 -16 3 -15 -5 -16 1 -9 58
4 35 9 82 10 104 4 61 16 115 25 110 11 -7 28 59 24 92 -2 15 -2 23 2 16 6
-13 32 -6 52 14 7 7 24 10 40 7 19 -4 33 0 41 10 11 13 11 16 0 16 -10 1 -8 4
4 11 9 5 17 17 17 24 0 8 5 15 10 15 6 0 10 -7 10 -16 0 -8 5 -12 10 -9 6 4 8
10 5 15 -3 4 3 7 12 6 30 -5 25 -58 -13 -143 -8 -17 -14 -38 -14 -47 0 -9 -4
-16 -9 -16 -6 0 -8 -9 -6 -20 2 -11 -2 -44 -9 -73 -23 -90 -28 -137 -14 -137
7 0 58 9 113 20 128 26 486 88 545 94 25 3 100 14 165 25 216 35 475 53 475
32 0 -6 4 -11 9 -11 10 0 -16 101 -41 160 -90 209 -213 408 -296 474 -20 17
-41 36 -45 43 -12 20 -77 50 -122 57 -47 8 -82 26 -52 26 10 0 15 5 12 10 -17
28 -244 -16 -266 -51 -4 -7 -11 -10 -15 -6 -4 4 -12 3 -18 -3 -7 -5 -18 -5
-25 -1 -10 7 -10 13 -2 29 9 18 8 25 -9 42 -18 18 -22 19 -36 6 -8 -8 -21 -13
-29 -9 -9 3 -22 0 -30 -7 -10 -9 -15 -9 -15 -1 0 6 -11 11 -25 11 -19 0 -23
-4 -18 -17 4 -11 3 -14 -5 -9 -18 11 -9 43 20 73 14 16 29 38 33 50 18 63 220
128 390 127 107 -1 202 -27 289 -78 52 -31 217 -205 250 -265 5 -9 12 -18 16
-21 17 -14 110 -164 110 -179 0 -9 4 -21 8 -26 5 -6 19 -37 31 -70 12 -33 28
-73 36 -90 7 -16 29 -74 50 -127 20 -53 42 -104 49 -113 10 -14 36 -16 191
-14 315 2 469 -2 476 -12 17 -28 77 77 93 165 5 26 39 133 51 161 21 48 43
125 55 193 21 120 66 234 143 367 28 48 104 108 158 124 53 16 109 0 160 -46
84 -76 190 -285 239 -473 35 -135 117 -418 130 -448 10 -22 12 -23 165 -21 85
2 155 7 155 11 0 5 5 6 12 2 10 -6 210 -8 506 -4 20 0 31 4 27 10 -9 15 15 41
29 33 7 -4 6 -1 -1 9 -11 12 2 48 78 209 101 216 106 228 90 230 -26 3 -30 4
-37 12 -4 4 10 7 32 7 35 1 43 6 80 53 23 29 49 67 59 86 20 40 161 185 223
229 57 40 163 80 259 97 87 15 169 7 239 -25 24 -11 50 -20 60 -20 15 0 92
-37 104 -50 3 -3 19 -16 35 -29 49 -37 105 -91 105 -101 0 -5 -16 6 -35 26
-23 23 -35 29 -35 19 0 -8 -3 -14 -7 -14 -17 3 -33 -1 -32 -8 4 -22 -3 -24
-21 -8 -11 10 -18 21 -15 25 2 4 -2 7 -10 7 -22 0 -19 -7 30 -60 12 -12 24
-30 28 -40 8 -21 27 -23 27 -1 0 8 4 13 10 9 5 -3 6 -13 3 -22 -5 -12 -3 -14
7 -8 9 5 11 4 6 -4 -4 -6 1 -19 12 -29 21 -18 39 -62 25 -62 -14 0 -29 14 -37
35 l-7 20 -16 -20 c-15 -20 -15 -20 -10 4 4 17 -3 31 -29 57 -22 23 -34 29
-34 19 0 -8 5 -15 11 -15 5 0 7 -5 4 -10 -4 -6 -1 -18 7 -28 8 -10 1 -8 -19 7
-21 14 -33 31 -33 45 0 14 -9 27 -24 34 -21 10 -26 8 -31 -8 -6 -19 -25 -28
-25 -12 0 4 -13 14 -28 23 -24 14 -32 14 -47 3 -15 -11 -21 -11 -39 1 -22 16
-62 20 -70 7 -3 -5 -19 -7 -37 -4 -19 3 -34 0 -39 -8 -5 -8 -15 -15 -24 -16
-48 -7 -123 -41 -175 -79 -56 -41 -79 -71 -220 -277 -25 -38 -47 -63 -49 -58
-2 6 -8 10 -14 10 -6 0 -8 -7 -5 -14 4 -9 -2 -17 -13 -21 -24 -8 -59 -56 -53
-73 3 -8 -4 -16 -16 -19 -11 -3 -18 -9 -16 -14 3 -4 12 -6 20 -2 10 3 15 -1
15 -12 0 -13 -6 -16 -23 -11 -21 5 -26 0 -36 -32 -7 -21 -14 -51 -14 -67 -1
-17 -6 -33 -11 -36 -5 -4 -5 -12 -2 -18 10 -15 36 -14 36 2 1 7 7 4 15 -7 10
-13 29 -20 67 -21 74 -4 193 -13 258 -21 83 -9 109 -12 185 -19 39 -3 81 -8
95 -10 14 -2 77 -11 140 -20 63 -8 167 -25 230 -36 63 -11 158 -27 210 -35 52
-8 103 -17 113 -20 10 -3 19 1 23 9 8 22 -35 235 -58 286 -11 25 -17 54 -14
67 5 18 3 22 -9 18 -9 -4 -15 -3 -13 2 1 5 -9 31 -22 57 -22 44 -23 50 -9 60
9 7 14 18 11 26 -3 8 0 11 7 7 16 -10 14 3 -4 21 -8 8 -12 20 -8 26 4 7 9 4
13 -7 3 -9 16 -22 29 -29 14 -7 25 -21 27 -32 l3 -20 -16 20 c-12 16 -14 16
-10 3 3 -10 2 -20 -3 -23 -15 -10 -12 -35 9 -60 14 -19 21 -21 31 -12 10 9 11
9 6 0 -4 -7 -3 -13 3 -13 6 0 13 -11 17 -24 5 -21 10 -23 27 -16 12 4 21 13
20 18 -1 5 6 8 17 5 11 -3 18 -9 15 -13 -3 -4 1 -10 9 -13 7 -3 18 -26 25 -51
10 -41 19 -51 42 -48 7 1 53 -191 64 -265 4 -22 12 -48 18 -55 13 -16 74 -35
139 -44 50 -7 367 -112 480 -159 101 -43 235 -117 278 -154 l35 -31 3 292 c1
160 0 293 -3 296 -8 8 -428 150 -590 200 -38 12 -92 26 -120 32 -27 6 -57 13
-65 17 -8 3 -19 7 -25 8 -5 0 -17 4 -25 7 -8 3 -42 13 -75 22 -33 10 -79 26
-102 37 -24 10 -48 18 -54 17 -11 -3 -35 49 -28 57 7 6 193 -25 239 -40 25 -8
60 -17 78 -20 18 -3 51 -11 75 -19 23 -7 65 -19 92 -26 28 -6 57 -14 65 -17 8
-3 22 -7 30 -8 8 -1 42 -10 75 -19 33 -10 67 -19 75 -21 49 -11 88 -21 200
-52 69 -19 133 -37 143 -40 16 -5 17 62 17 1301 0 1154 -2 1306 -15 1306 -8 0
-15 5 -15 11 0 6 7 9 15 5 24 -9 18 7 -14 37 -50 47 -100 221 -67 232 29 10
51 9 52 -2 1 -7 2 -17 3 -23 2 -18 18 -10 29 16 10 20 10 24 0 18 -10 -6 -11
-4 0 7 9 10 12 209 12 926 l0 913 -2020 0 c-1564 0 -2020 -3 -2020 -12 0 -9
-3 -9 -12 0 -7 7 -19 12 -29 12 -12 0 -15 -6 -11 -25 3 -16 0 -25 -8 -25 -7 0
-10 7 -6 15 3 9 0 15 -9 15 -8 0 -15 4 -15 10 0 5 -13 8 -30 7 -16 -1 -30 -5
-30 -8 0 -3 -12 -11 -26 -18 -23 -10 -25 -10 -19 9 5 14 2 20 -9 20 -9 0 -16
-4 -16 -10 0 -5 -7 -10 -16 -10 -11 0 -14 -5 -10 -16 3 -9 6 -19 6 -24 0 -5
10 -10 23 -12 17 -2 21 -9 19 -28 -2 -18 0 -22 8 -14 6 6 12 20 13 32 1 16 5
19 19 11 22 -12 22 -14 2 -45 -9 -13 -13 -28 -9 -32 4 -4 10 -1 12 6 3 6 12
12 20 12 10 0 14 6 11 18 -3 12 1 18 12 19 13 1 17 -5 15 -26 -3 -38 -13 -51
-32 -44 -12 5 -14 3 -8 -7 6 -10 3 -12 -11 -8 -14 4 -20 0 -20 -12 0 -14 4
-15 18 -6 14 8 21 8 27 -3 6 -9 10 -10 16 -2 4 8 11 9 19 2 8 -7 12 -5 12 9 0
10 -3 18 -6 17 -5 -2 -11 9 -9 18 4 14 6 22 14 39 8 17 9 18 21 2 6 -9 10 -27
7 -39 -4 -20 -3 -20 7 -4 6 9 8 21 5 26 -3 6 2 14 11 19 11 6 15 17 11 31 -7
28 3 33 28 14 14 -11 16 -17 8 -20 -7 -3 -13 -9 -13 -14 0 -4 8 -5 18 -2 15 6
15 5 4 -10 -8 -9 -21 -13 -30 -10 -14 5 -13 2 3 -14 16 -16 24 -18 40 -10 13
7 15 12 7 15 -16 5 -15 22 2 22 17 0 29 -27 15 -35 -5 -4 -7 -11 -3 -16 3 -5
9 -7 14 -4 12 8 50 -17 50 -32 0 -7 -4 -13 -10 -13 -5 0 -10 5 -10 10 0 6 -4
10 -10 10 -5 0 -9 -6 -7 -12 1 -7 -7 -13 -18 -14 -35 -2 -38 -4 -25 -19 7 -8
15 -13 19 -11 8 5 26 -16 26 -31 0 -7 4 -12 10 -10 5 1 9 5 8 10 -2 4 2 7 8 7
6 0 9 10 7 23 -4 19 0 23 23 25 23 2 26 -1 22 -19 -4 -14 0 -26 10 -34 19 -14
28 -71 10 -68 -7 2 -10 -3 -7 -11 6 -15 33 -16 66 -3 53 21 67 16 37 -14 -10
-10 -19 -26 -19 -34 0 -9 -8 -27 -17 -42 -15 -22 -15 -27 -2 -37 8 -6 19 -20
23 -31 5 -13 10 -15 13 -7 3 6 14 12 25 12 15 0 18 -4 14 -17 -4 -10 -4 -14 0
-10 4 4 16 0 26 -10 14 -13 18 -13 19 -2 0 8 4 5 8 -6 5 -11 5 -29 1 -40 -10
-31 0 -117 14 -112 12 5 12 6 0 51 -6 26 -5 27 14 17 18 -9 20 -7 24 20 3 16
0 33 -7 37 -28 17 -27 102 1 102 8 0 13 -3 13 -7 -3 -20 2 -34 10 -29 5 3 12
-10 16 -30 6 -34 8 -36 36 -30 16 3 29 1 29 -4 0 -6 -6 -10 -12 -10 -7 0 -5
-5 5 -11 9 -6 15 -15 12 -20 -4 -5 -11 -7 -16 -4 -5 4 -9 -1 -9 -10 0 -11 -5
-15 -14 -12 -10 4 -14 0 -13 -12 1 -11 7 -17 14 -14 7 3 13 -2 13 -11 0 -9 7
-16 15 -16 12 0 13 4 5 19 -15 28 -13 37 10 38 11 1 20 -3 20 -9 0 -5 6 -8 14
-5 17 7 59 -30 50 -44 -3 -6 -17 -8 -31 -4 -16 4 -22 2 -18 -5 3 -5 15 -10 26
-10 20 0 27 -26 8 -32 -6 -2 2 -16 17 -31 28 -28 28 -28 36 -7 4 12 12 19 17
15 6 -3 8 -12 5 -19 -3 -8 -1 -17 5 -21 7 -4 8 1 4 12 -6 16 -5 16 10 4 15
-12 17 -12 11 3 -9 23 19 21 41 -4 13 -14 21 -17 25 -9 8 13 60 -38 60 -58 0
-7 5 -13 10 -13 6 0 8 -11 4 -25 -3 -14 -2 -25 3 -25 5 0 9 -8 9 -18 0 -14 -7
-19 -25 -18 -13 1 -26 7 -29 14 -2 8 2 10 14 5 12 -4 15 -2 12 8 -3 8 -11 13
-17 11 -7 -1 -21 4 -33 12 -11 8 -27 12 -34 9 -8 -3 -14 0 -14 5 0 18 19 23
40 12 33 -18 23 3 -11 23 -28 16 -31 16 -25 1 6 -15 4 -15 -10 -3 -16 13 -17
11 -10 -13 7 -31 -1 -36 -19 -11 -18 25 -36 8 -24 -24 5 -14 7 -28 4 -31 -3
-3 -5 1 -5 8 0 16 -13 5 -16 -14 -2 -14 25 -15 58 -1 31 13 43 -7 12 -20 l-29
-13 33 -7 c17 -4 32 -12 32 -17 0 -5 -10 -6 -22 -2 -21 6 -21 6 -5 -10 22 -23
22 -36 -2 -36 -29 0 -15 -47 16 -55 14 -3 28 -4 31 0 3 3 -1 5 -9 5 -10 1 -8
5 5 15 18 14 19 15 2 15 -13 0 -16 5 -11 18 7 15 11 33 14 67 3 19 31 -29 31
-51 0 -15 11 -29 30 -40 24 -15 27 -20 17 -33 -10 -12 -9 -13 2 -7 8 5 17 3
22 -5 8 -11 11 -11 20 5 9 15 13 16 20 5 13 -20 11 -29 -5 -23 -8 3 -17 1 -21
-5 -4 -7 6 -11 29 -11 46 0 66 -9 66 -29 0 -13 2 -13 9 -2 5 7 11 9 14 4 4 -6
-4 -15 -17 -21 -21 -9 -23 -8 -19 9 6 22 -5 24 -31 4 -20 -15 -14 -35 10 -35
8 0 13 -4 10 -9 -4 -5 0 -11 6 -14 7 -2 10 -8 6 -12 -4 -4 -15 -2 -24 6 -20
16 -54 22 -54 10 0 -12 21 -25 40 -26 8 0 14 -6 12 -12 -1 -7 7 -13 18 -13 13
0 20 7 20 20 0 12 7 20 17 20 13 0 14 -3 5 -12 -17 -17 -15 -28 4 -28 8 0 12
-4 9 -10 -3 -5 -18 -10 -33 -10 -24 -1 -25 -2 -10 -14 10 -7 17 -15 15 -17 -1
-2 3 2 10 9 8 10 16 11 32 3 21 -12 25 -50 6 -63 -11 -8 -16 -48 -6 -46 26 3
31 -3 19 -22 -18 -29 1 -45 36 -29 20 10 29 10 38 1 9 -9 9 -12 0 -12 -6 0 -9
-7 -6 -15 4 -8 1 -15 -5 -15 -6 0 -11 8 -11 18 0 14 -2 15 -9 2 -7 -10 -4 -18
9 -27 11 -8 17 -22 15 -34 -3 -16 0 -19 13 -14 41 16 53 0 24 -30 -16 -18 -17
-21 -3 -38 9 -9 17 -22 17 -27 1 -6 3 -11 4 -12 1 -2 3 -15 4 -30 2 -24 -2
-28 -26 -28 -20 0 -28 -5 -28 -17 0 -15 2 -16 10 -3 6 10 13 11 19 5 13 -13
-18 -78 -34 -71 -9 3 -13 -6 -12 -30 1 -19 4 -34 7 -34 3 0 7 -14 8 -32 2 -17
7 -37 12 -43 5 -7 7 -15 4 -18 -4 -3 -3 -14 1 -24 14 -33 13 -51 -3 -45 -11 4
-14 1 -10 -9 4 -9 -2 -21 -13 -28 -11 -6 -17 -16 -14 -21 3 -5 1 -11 -4 -14
-5 -4 -12 -2 -16 4 -3 5 -15 10 -26 10 -11 0 -18 4 -14 9 3 5 1 12 -5 16 -12
8 22 72 48 91 18 13 19 16 6 54 -8 23 -12 45 -9 50 3 5 -5 7 -17 5 -13 -3 -25
-10 -27 -16 -2 -6 -10 -4 -21 6 -18 16 -18 16 -13 -5 5 -19 3 -21 -13 -12 -10
6 -27 13 -36 16 -10 3 -18 15 -18 26 0 17 -5 20 -22 16 -13 -3 -17 -3 -10 0 6
3 9 11 6 16 -5 7 -2 8 7 4 8 -4 4 1 -8 12 -13 11 -23 30 -23 41 0 12 -4 21 -9
21 -5 0 -12 16 -15 35 -4 20 -16 39 -27 46 -14 7 -19 17 -16 31 4 14 2 18 -9
14 -7 -3 -13 0 -11 6 1 5 -5 12 -13 13 -9 1 -31 12 -50 24 -29 17 -31 21 -13
21 22 0 24 13 7 43 -10 18 -12 18 -27 2 -10 -9 -17 -12 -17 -6 0 6 -4 11 -10
11 -14 0 -12 -47 3 -54 9 -5 9 -7 0 -12 -8 -3 -11 -15 -7 -28 3 -14 -1 -27
-10 -35 -20 -17 -21 -35 -1 -27 9 3 15 0 15 -9 0 -10 -8 -14 -22 -11 -17 2
-22 9 -20 26 2 14 0 20 -7 16 -7 -4 -8 -1 -5 8 4 11 0 16 -10 16 -9 0 -16 -8
-17 -17 0 -14 -3 -12 -9 5 -8 19 -13 21 -29 12 -31 -16 -56 -12 -85 15 -14 13
-26 19 -26 12 0 -8 -16 -14 -37 -16 -49 -4 -54 -4 -80 4 -17 6 -23 3 -23 -9 0
-28 -18 -18 -37 21 -22 46 -43 54 -43 18 0 -16 -4 -24 -10 -20 -6 4 -8 15 -5
25 3 10 1 21 -5 25 -5 3 -10 -1 -10 -9 0 -9 -5 -16 -11 -16 -6 0 -9 8 -7 18 5
16 -13 42 -28 42 -4 0 -13 8 -21 18 -13 15 -14 13 -9 -19 3 -30 0 -41 -20 -60
l-24 -22 0 32 c0 19 -4 30 -10 26 -6 -3 -8 -18 -4 -33 5 -25 4 -26 -7 -7 -17
25 -22 58 -9 50 5 -3 10 -1 10 5 0 6 -6 13 -14 16 -12 5 -21 23 -31 61 -5 20
-29 39 -51 40 -28 2 -29 -37 -3 -84 l19 -33 -30 0 c-16 0 -33 6 -37 13 -9 14
-43 19 -43 6 0 -5 -4 -9 -9 -9 -8 0 -19 25 -25 55 -1 6 -5 17 -8 25 -3 8 -11
35 -18 60 -30 104 -39 125 -54 124 -9 -1 -16 2 -16 7 0 5 11 9 25 9 30 0 66
50 90 126 11 35 24 55 41 63 30 13 30 22 3 39 -12 8 -18 9 -15 4 3 -5 -2 -16
-11 -23 -14 -12 -16 -12 -11 6 4 15 0 21 -12 21 -10 0 -16 -6 -13 -13 3 -7 -2
-13 -12 -13 -9 0 -14 -4 -10 -9 3 -5 1 -12 -3 -15 -10 -6 -9 -30 2 -64 8 -25
-9 -56 -26 -46 -5 3 -16 0 -24 -7 -8 -6 -17 -9 -20 -6 -10 9 24 139 38 148 7
5 8 9 3 9 -13 0 -7 80 8 98 11 13 3 27 -16 27 -7 0 -13 10 -15 22 -2 16 -8 20
-20 15 -16 -6 -16 -4 1 21 14 21 14 25 2 21 -8 -3 -29 6 -46 20 -28 24 -32 25
-52 11 -12 -8 -34 -15 -50 -15 -25 0 -27 -3 -21 -22 l6 -23 -18 21 c-11 11
-26 24 -34 27 -8 4 -3 6 12 4 15 -2 33 0 40 4 14 9 12 10 -42 13 -52 2 -68 15
-44 34 12 10 14 13 4 9 -24 -7 -51 16 -39 34 8 12 11 12 22 -2 13 -17 33 -14
57 9 11 12 12 16 2 20 -30 10 -43 34 -36 66 11 46 10 91 -1 92 -5 0 -23 6 -38
12 -16 7 -32 12 -37 12 -4 0 -7 11 -6 25 1 31 48 45 72 21 28 -28 42 -20 24
14 -8 15 -6 17 10 13 14 -4 20 0 20 11 0 25 -4 31 -17 28 -7 -2 -13 0 -13 3 0
10 28 36 37 35 4 -1 9 6 11 14 2 9 -2 16 -8 16 -6 0 -8 5 -5 10 4 6 11 8 16 5
5 -3 6 1 3 9 -3 9 -2 16 2 16 18 0 39 -20 39 -37 2 -34 18 -83 27 -83 5 0 8 6
7 13 -3 25 1 47 9 47 5 0 7 -14 4 -30 -3 -24 -1 -29 11 -24 22 8 26 35 9 61
-7 12 -11 27 -7 33 10 16 -5 33 -19 21 -17 -14 -58 -2 -54 17 2 8 9 17 16 20
8 2 10 -2 5 -14 -4 -12 -3 -15 5 -10 7 4 12 14 12 23 0 12 -7 14 -31 9 -22 -4
-29 -2 -26 7 2 6 11 11 21 9 10 -2 16 4 16 15 0 15 8 19 40 20 22 1 42 -2 45
-8 4 -5 14 -9 23 -9 15 1 15 2 2 13 -8 7 -15 22 -16 35 0 16 3 19 10 12 5 -5
14 -10 20 -10 5 0 7 3 3 6 -3 4 1 13 9 21 8 9 12 18 9 22 -4 3 -11 -2 -16 -12
-8 -13 -14 -15 -30 -7 -14 8 -25 7 -41 -5 -13 -8 -17 -15 -9 -15 18 0 8 -23
-11 -26 -11 -1 -15 3 -11 13 5 12 1 14 -14 9 -30 -10 -50 2 -47 27 1 12 3 28
3 35 1 15 51 16 51 1 0 -5 -4 -8 -9 -5 -5 3 -11 -1 -15 -9 -3 -9 0 -15 9 -15
7 0 17 9 20 20 3 11 12 20 19 20 8 0 19 7 26 15 7 8 15 13 19 11 3 -2 6 7 6
20 0 13 -2 25 -5 25 -23 6 -50 5 -50 -2 0 -9 -63 -4 -79 6 -5 3 -12 -1 -14 -7
-4 -10 -6 -10 -6 0 -1 9 -585 12 -2886 12 l-2885 0 0 -1474z m6290 1440 c0 -3
-4 -8 -10 -11 -5 -3 -10 -1 -10 4 0 6 5 11 10 11 6 0 10 -2 10 -4z m-410 -16
c0 -5 -4 -10 -10 -10 -5 0 -10 5 -10 10 0 6 5 10 10 10 6 0 10 -4 10 -10z
m230 -10 c0 -4 -6 -10 -14 -13 -10 -4 -12 0 -9 14 5 18 23 18 23 -1z m-390 6
c0 -2 -7 -6 -15 -10 -8 -3 -15 -1 -15 4 0 6 7 10 15 10 8 0 15 -2 15 -4z
m-2735 -16 c-3 -5 -11 -10 -16 -10 -6 0 -7 5 -4 10 3 6 11 10 16 10 6 0 7 -4
4 -10z m2235 6 c0 -3 -4 -8 -10 -11 -5 -3 -10 -1 -10 4 0 6 5 11 10 11 6 0 10
-2 10 -4z m1070 -6 c0 -5 -4 -10 -10 -10 -5 0 -10 5 -10 10 0 6 5 10 10 10 6
0 10 -4 10 -10z m-30 -20 c0 -5 -4 -10 -10 -10 -5 0 -10 5 -10 10 0 6 5 10 10
10 6 0 10 -4 10 -10z m64 -15 c-4 -8 -11 -15 -16 -15 -6 0 -5 6 2 15 7 8 14
15 16 15 2 0 1 -7 -2 -15z m-3364 -10 c0 -8 -4 -15 -10 -15 -5 0 -10 7 -10 15
0 8 5 15 10 15 6 0 10 -7 10 -15z m3534 -38 c7 -28 2 -31 -22 -16 -11 7 -17
19 -15 30 6 23 29 14 37 -14z m-124 19 c0 -3 -4 -8 -10 -11 -5 -3 -10 -1 -10
4 0 6 5 11 10 11 6 0 10 -2 10 -4z m-1890 -20 c0 -3 -4 -8 -10 -11 -5 -3 -10
-1 -10 4 0 6 5 11 10 11 6 0 10 -2 10 -4z m-210 -13 c0 -5 -5 -15 -10 -23 -8
-12 -10 -11 -10 8 0 12 5 22 10 22 6 0 10 -3 10 -7z m2110 -20 c0 -20 -23 -11
-26 9 -1 11 3 15 12 11 8 -3 14 -12 14 -20z m-2080 1 c0 -8 -4 -12 -10 -9 -5
3 -10 10 -10 16 0 5 5 9 10 9 6 0 10 -7 10 -16z m2510 -4 c-20 -13 -33 -13
-25 0 3 6 14 10 23 10 15 0 15 -2 2 -10z m-1210 -10 c0 -5 -2 -10 -4 -10 -3 0
-8 5 -11 10 -3 6 -1 10 4 10 6 0 11 -4 11 -10z m837 -44 c-3 -7 0 -19 6 -25 8
-8 8 -11 0 -11 -6 0 -16 7 -24 16 -10 13 -10 17 2 25 19 12 22 11 16 -5z
m-2060 -14 c8 -5 3 -11 -13 -19 -21 -10 -24 -9 -24 8 0 20 16 24 37 11z m419
-9 c15 -21 1 -43 -27 -43 -22 0 -26 29 -7 48 16 16 18 15 34 -5z m2134 -43 c0
-5 -4 -10 -10 -10 -5 0 -10 5 -10 10 0 6 5 10 10 10 6 0 10 -4 10 -10z m-430
-10 c0 -5 -4 -10 -10 -10 -5 0 -10 5 -10 10 0 6 5 10 10 10 6 0 10 -4 10 -10z
m-1170 -30 c0 -11 -7 -20 -15 -20 -8 0 -19 9 -25 20 -9 18 -8 20 15 20 18 0
25 -5 25 -20z m400 4 c0 -8 -5 -12 -10 -9 -6 4 -8 11 -5 16 9 14 15 11 15 -7z
m800 6 c0 -5 -2 -10 -4 -10 -3 0 -8 5 -11 10 -3 6 -1 10 4 10 6 0 11 -4 11
-10z m-20 -40 c0 -5 -2 -10 -4 -10 -3 0 -8 5 -11 10 -3 6 -1 10 4 10 6 0 11
-4 11 -10z m-1195 -9 c3 -5 1 -12 -5 -16 -5 -3 -10 1 -10 9 0 18 6 21 15 7z
m45 -16 c0 -2 -7 -5 -15 -9 -9 -3 -15 0 -15 9 0 9 6 12 15 9 8 -4 15 -7 15 -9z
m1166 -20 c-25 -19 -32 -19 -40 0 -4 11 2 15 27 15 30 -1 31 -1 13 -15z m84 5
c0 -5 -2 -10 -4 -10 -3 0 -8 5 -11 10 -3 6 -1 10 4 10 6 0 11 -4 11 -10z m160
6 c0 -3 -4 -8 -10 -11 -5 -3 -10 -1 -10 4 0 6 5 11 10 11 6 0 10 -2 10 -4z
m-5410 -20 c0 -3 -4 -8 -10 -11 -5 -3 -10 -1 -10 4 0 6 5 11 10 11 6 0 10 -2
10 -4z m5205 -19 c-1 -13 -5 -28 -9 -35 -5 -8 1 -12 18 -12 25 0 33 -10 19
-23 -3 -4 -12 -2 -20 4 -9 9 -13 8 -13 0 0 -6 -4 -11 -10 -11 -5 0 -10 11 -10
24 0 14 -4 27 -10 31 -5 3 -2 14 8 25 23 25 28 24 27 -3z m-1795 -6 c0 -5 -7
-11 -15 -15 -15 -5 -20 5 -8 17 9 10 23 9 23 -2z m20 -30 c0 -6 -4 -13 -10
-16 -5 -3 -10 1 -10 9 0 9 5 16 10 16 6 0 10 -4 10 -9z m1933 -18 c-7 -2 -21
-2 -30 0 -10 3 -4 5 12 5 17 0 24 -2 18 -5z m1457 -2 c0 -14 -18 -23 -30 -16
-6 4 -8 11 -5 16 8 12 35 12 35 0z m-1476 -37 c9 -24 7 -28 -9 -14 -17 14 -20
30 -6 30 5 0 12 -7 15 -16z m96 -4 c0 -5 -4 -10 -10 -10 -5 0 -10 5 -10 10 0
6 5 10 10 10 6 0 10 -4 10 -10z m-1300 -4 c0 -11 -19 -15 -25 -6 -3 5 1 10 9
10 9 0 16 -2 16 -4z m220 0 c0 -3 -4 -8 -10 -11 -5 -3 -10 -1 -10 4 0 6 5 11
10 11 6 0 10 -2 10 -4z m1077 -56 c0 -16 -4 -30 -9 -30 -10 0 -11 44 -1 53 9
10 10 10 10 -23z m-1072 -98 c-3 -3 -13 6 -24 19 -11 13 -20 19 -21 12 0 -6
-9 -9 -20 -6 -25 7 -25 11 3 33 22 18 22 18 44 -18 12 -20 20 -38 18 -40z
m1193 -44 c-6 -18 -28 -21 -28 -4 0 9 7 16 16 16 9 0 14 -5 12 -12z m-1228
-127 c0 -5 -7 -11 -15 -15 -15 -5 -20 5 -8 17 9 10 23 9 23 -2z m-59 -14 c-1
-12 -15 -9 -19 4 -3 6 1 10 8 8 6 -3 11 -8 11 -12z m89 4 c0 -5 -7 -12 -16
-15 -14 -5 -15 -4 -4 9 14 17 20 19 20 6z m65 -19 c-3 -3 -11 0 -18 7 -9 10
-8 11 6 5 10 -3 15 -9 12 -12z m190 -82 c3 -5 1 -10 -4 -10 -6 0 -11 5 -11 10
0 6 2 10 4 10 3 0 8 -4 11 -10z m-845 -14 c0 -2 -7 -6 -15 -10 -8 -3 -15 -1
-15 4 0 6 7 10 15 10 8 0 15 -2 15 -4z m1930 -11 c11 -13 10 -14 -4 -9 -9 3
-16 10 -16 15 0 13 6 11 20 -6z m77 -1 c5 -16 -25 -13 -32 3 -3 10 1 13 12 11
9 -2 18 -8 20 -14z m-1990 -16 c-3 -8 -6 -5 -6 6 -1 11 2 17 5 13 3 -3 4 -12
1 -19z m1928 -30 c-6 -27 -18 -39 -13 -13 2 14 -2 20 -14 19 -9 -1 -14 4 -12
11 9 21 43 6 39 -17z m89 -2 c10 -15 12 -27 6 -31 -6 -3 -10 1 -10 10 0 9 -9
19 -20 22 -23 6 -27 23 -6 23 7 0 21 -11 30 -24z m-1390 -105 c3 -5 -1 -11 -9
-14 -9 -4 -12 -1 -8 9 6 16 10 17 17 5z m-5174 -10 c0 -6 -4 -13 -10 -16 -5
-3 -10 1 -10 9 0 9 5 16 10 16 6 0 10 -4 10 -9z m3770 5 c0 -3 -4 -8 -10 -11
-5 -3 -10 -1 -10 4 0 6 5 11 10 11 6 0 10 -2 10 -4z m2890 -21 c0 -8 -4 -15
-10 -15 -5 0 -10 7 -10 15 0 8 5 15 10 15 6 0 10 -7 10 -15z m204 -31 c3 -8 2
-12 -4 -9 -6 3 -10 10 -10 16 0 14 7 11 14 -7z m-1704 -4 c0 -5 -4 -10 -10
-10 -5 0 -10 5 -10 10 0 6 5 10 10 10 6 0 10 -4 10 -10z m1490 -6 c0 -8 -4
-12 -10 -9 -5 3 -10 10 -10 16 0 5 5 9 10 9 6 0 10 -7 10 -16z m-1486 -59 c-3
-8 -12 -11 -19 -9 -8 3 -11 12 -9 19 3 8 12 11 19 9 8 -3 11 -12 9 -19z m-184
-14 c0 -5 -7 -14 -15 -21 -12 -10 -15 -10 -15 2 0 8 3 18 7 21 9 10 23 9 23
-2z m1763 -28 c-4 -10 -2 -14 5 -9 6 3 13 2 16 -3 8 -13 -37 -22 -49 -10 -7 7
-4 8 9 3 13 -5 17 -4 12 4 -4 7 -4 17 -1 22 10 16 15 12 8 -7z m-4623 -7 c0
-21 -21 -31 -30 -15 -5 7 -6 17 -4 21 9 14 34 9 34 -6z m-900 -15 c0 -12 -20
-25 -27 -18 -7 7 6 27 18 27 5 0 9 -4 9 -9z m5483 -46 c19 -40 21 -61 8 -69
-5 -4 -7 3 -4 14 3 11 0 20 -6 20 -6 0 -10 6 -8 13 1 6 -2 11 -8 10 -5 -1 -10
10 -10 23 0 33 8 30 28 -11z m-5663 1 c0 -3 -4 -8 -10 -11 -5 -3 -10 -1 -10 4
0 6 5 11 10 11 6 0 10 -2 10 -4z m3810 -31 c0 -7 -6 -18 -14 -24 -12 -10 -17
-9 -24 6 -5 10 -7 23 -5 29 5 15 43 5 43 -11z m528 -5 c6 0 15 8 21 17 14 26
21 12 8 -14 -11 -20 -15 -21 -36 -10 -14 7 -26 19 -28 27 -3 11 -1 11 10 -2 8
-10 19 -18 25 -18z m-358 16 c0 -3 -4 -8 -10 -11 -5 -3 -10 -1 -10 4 0 6 5 11
10 11 6 0 10 -2 10 -4z m580 -60 c0 -3 -4 -8 -10 -11 -5 -3 -10 -1 -10 4 0 6
5 11 10 11 6 0 10 -2 10 -4z m1187 -28 c-3 -8 -6 -5 -6 6 -1 11 2 17 5 13 3
-3 4 -12 1 -19z m-1995 -10 c-11 -11 -32 -3 -32 12 0 4 9 6 21 3 13 -4 17 -9
11 -15z m818 2 c0 -5 -5 -10 -11 -10 -5 0 -7 5 -4 10 3 6 8 10 11 10 2 0 4 -4
4 -10z m-4000 -9 c0 -13 -26 -32 -33 -24 -14 13 -6 33 13 33 11 0 20 -4 20 -9z
m5166 -8 c18 -24 17 -30 -4 -35 -14 -4 -18 1 -20 23 -3 33 5 37 24 12z m-5101
-21 c0 -18 -20 -15 -23 4 -3 10 1 15 10 12 7 -3 13 -10 13 -16z m3965 4 c0 -2
-7 -6 -15 -10 -8 -3 -15 -1 -15 4 0 6 7 10 15 10 8 0 15 -2 15 -4z m-923 -42
c-3 -3 -12 -4 -19 -1 -8 3 -5 6 6 6 11 1 17 -2 13 -5z m770 -26 c-3 -8 -6 -5
-6 6 -1 11 2 17 5 13 3 -3 4 -12 1 -19z m257 -4 c4 -10 1 -14 -6 -12 -15 5
-23 28 -10 28 5 0 13 -7 16 -16z m1227 -9 c-1 -15 -24 -12 -29 3 -3 9 2 13 12
10 10 -1 17 -7 17 -13z m-41 -5 c0 -5 -2 -10 -4 -10 -3 0 -8 5 -11 10 -3 6 -1
10 4 10 6 0 11 -4 11 -10z m170 -31 c0 -6 -4 -7 -10 -4 -5 3 -10 11 -10 16 0
6 5 7 10 4 6 -3 10 -11 10 -16z m-1114 -16 c-10 -10 -19 5 -10 18 6 11 8 11
12 0 2 -7 1 -15 -2 -18z m200 4 c4 -4 0 -7 -9 -7 -9 0 -18 4 -21 9 -7 10 20 9
30 -2z m-61 -27 c4 -6 -5 -10 -20 -10 -15 0 -24 4 -20 10 3 6 12 10 20 10 8 0
17 -4 20 -10z m150 -30 c3 -5 1 -10 -4 -10 -6 0 -11 5 -11 10 0 6 2 10 4 10 3
0 8 -4 11 -10z m-350 -21 c-8 -12 -35 -12 -35 0 0 11 22 20 33 14 4 -2 5 -9 2
-14z m935 7 c0 -8 -4 -17 -9 -21 -6 -3 -9 4 -8 15 1 23 17 28 17 6z m-618 -76
c4 0 8 7 8 15 0 25 40 17 50 -10 11 -29 5 -51 -16 -59 -14 -5 -29 7 -69 56
-11 14 -27 23 -35 21 -10 -3 -9 -1 3 7 17 11 25 36 7 25 -6 -4 -7 1 -3 11 5
14 11 9 27 -24 11 -23 24 -42 28 -42z m643 70 c3 -5 1 -10 -4 -10 -6 0 -11 5
-11 10 0 6 2 10 4 10 3 0 8 -4 11 -10z m-1082 -58 c4 -21 3 -31 -3 -27 -6 3
-10 20 -10 37 0 38 5 34 13 -10z m85 13 c0 -14 -4 -25 -9 -25 -10 0 -12 34 -2
43 10 10 11 9 11 -18z m115 -18 c-3 -4 -11 -3 -19 4 -7 6 -11 15 -8 20 3 5 11
3 18 -4 8 -6 12 -16 9 -20z m937 12 c0 -5 -4 -9 -10 -9 -5 0 -10 7 -10 16 0 8
5 12 10 9 6 -3 10 -10 10 -16z m-90 2 c0 -16 -58 -41 -63 -27 -2 6 3 16 12 23
19 15 51 17 51 4z m-789 -24 c18 -14 14 -37 -6 -37 -7 0 -16 7 -19 16 -13 35
-4 43 25 21z m-221 -27 c0 -5 -2 -10 -4 -10 -3 0 -8 5 -11 10 -3 6 -1 10 4 10
6 0 11 -4 11 -10z m73 -43 c3 -8 1 -20 -4 -28 -11 -19 -34 3 -26 25 8 20 23
21 30 3z m1722 -17 c-3 -5 -14 -10 -23 -9 -14 0 -13 2 3 9 27 11 27 11 20 0z
m-1653 -30 c-5 -30 -13 -40 -19 -22 -3 6 -13 12 -24 12 -13 0 -19 7 -19 21 0
17 5 20 33 17 28 -3 32 -6 29 -28z m139 8 c1 -13 3 -39 4 -58 3 -40 -9 -60
-37 -60 -16 0 -19 6 -16 33 2 24 7 31 21 29 9 -2 17 2 17 8 0 5 -7 10 -16 10
-11 0 -14 5 -10 16 3 9 6 22 6 30 0 24 30 16 31 -8z m889 10 c0 -9 4 -8 11 2
9 13 10 13 6 0 -5 -18 -29 -20 -34 -2 -3 6 0 12 6 12 6 0 11 -6 11 -12z m-435
-8 c3 -5 1 -10 -4 -10 -6 0 -11 5 -11 10 0 6 2 10 4 10 3 0 8 -4 11 -10z
m-185 -36 c0 -8 -7 -14 -15 -14 -15 0 -21 21 -9 33 10 9 24 -2 24 -19z m64 5
c-3 -5 -10 -7 -15 -3 -5 3 -7 10 -3 15 3 5 10 7 15 3 5 -3 7 -10 3 -15z m-286
0 c-2 -6 -8 -10 -13 -10 -5 0 -11 4 -13 10 -2 6 4 11 13 11 9 0 15 -5 13 -11z
m154 -23 c9 -22 6 -30 -28 -70 -42 -49 -57 -51 -103 -15 -13 11 -29 19 -37 19
-10 0 -9 6 2 30 13 25 19 28 45 23 18 -3 29 -1 29 6 0 6 11 11 24 11 14 0 28
5 31 10 10 17 25 11 37 -14z m588 14 c0 -5 -5 -10 -11 -10 -5 0 -7 5 -4 10 3
6 8 10 11 10 2 0 4 -4 4 -10z m765 0 c3 -5 1 -10 -4 -10 -6 0 -11 5 -11 10 0
6 2 10 4 10 3 0 8 -4 11 -10z m-1031 -43 c5 -22 2 -35 -10 -46 -11 -11 -14
-11 -9 -2 4 8 2 17 -6 22 -12 8 -12 11 1 19 13 8 8 14 -10 12 -3 0 -6 8 -7 18
-3 32 34 12 41 -23z m2874 27 c-3 -3 5 -16 18 -29 29 -29 31 -45 5 -38 -11 3
-25 19 -30 35 -14 38 -14 38 1 38 6 0 9 -3 6 -6z m-1873 -35 c4 -17 4 -33 1
-36 -11 -11 -36 19 -36 43 0 35 27 30 35 -7z m-1785 11 c0 -5 -4 -10 -10 -10
-5 0 -10 5 -10 10 0 6 5 10 10 10 6 0 10 -4 10 -10z m694 -15 c3 -8 1 -15 -4
-15 -6 0 -10 7 -10 15 0 8 2 15 4 15 2 0 6 -7 10 -15z m46 -5 c0 -5 -7 -10
-15 -10 -8 0 -15 5 -15 10 0 6 7 10 15 10 8 0 15 -4 15 -10z m-90 -20 c0 -5
-5 -10 -11 -10 -5 0 -7 5 -4 10 3 6 8 10 11 10 2 0 4 -4 4 -10z m-594 -38 c-9
-8 -26 10 -26 26 1 15 2 15 15 -2 8 -11 13 -21 11 -24z m451 16 c-2 -12 -9
-24 -15 -26 -13 -4 -15 8 -6 32 9 24 24 19 21 -6z m229 -13 c-5 -18 -1 -27 14
-35 11 -6 20 -8 20 -5 0 4 4 4 10 0 5 -3 2 -14 -8 -25 -16 -20 -17 -20 -24 1
-5 13 -14 19 -23 15 -17 -6 -18 -2 -9 43 4 17 11 31 16 31 6 0 7 -11 4 -25z
m-166 -27 c0 -5 6 -8 13 -5 9 3 13 -5 13 -29 0 -37 -19 -42 -24 -7 -2 15 -9
20 -25 17 -12 -2 -16 -1 -9 2 9 4 10 10 3 18 -7 8 -4 12 10 13 10 1 19 -3 19
-9z m-300 -16 c0 -11 -37 -32 -44 -25 -8 9 14 33 30 33 8 0 14 -3 14 -8z
m-515 -32 c3 -5 1 -10 -4 -10 -6 0 -11 5 -11 10 0 6 2 10 4 10 3 0 8 -4 11
-10z m1091 -34 c-6 -25 -26 -37 -26 -16 0 6 4 10 9 10 4 0 6 12 3 28 -3 21 -2
25 8 15 8 -7 10 -22 6 -37z m-926 -23 c0 -34 -41 -48 -57 -19 -18 30 -16 40
10 52 28 13 47 0 47 -33z m330 22 c0 -8 -2 -15 -4 -15 -2 0 -6 7 -10 15 -3 8
-1 15 4 15 6 0 10 -7 10 -15z m76 -27 c-3 -13 -5 -29 -5 -35 -1 -7 -7 -13 -14
-13 -8 0 -14 14 -15 35 -2 29 1 35 18 35 15 0 19 -5 16 -22z m265 -21 c-8 -8
-11 -7 -11 4 0 9 3 19 7 23 4 4 9 2 11 -4 3 -7 -1 -17 -7 -23z m-3637 -3 c21
-8 21 -53 0 -61 -24 -9 -44 18 -33 45 9 24 10 25 33 16z m3926 -15 c0 -5 -4
-9 -10 -9 -5 0 -10 7 -10 16 0 8 5 12 10 9 6 -3 10 -10 10 -16z m-54 -37 c-4
-3 -11 -1 -18 6 -8 8 -8 15 3 28 13 16 14 16 17 -5 2 -13 1 -25 -2 -29z m-651
-23 c4 -6 5 -12 3 -14 -7 -7 -48 7 -48 16 0 13 37 11 45 -2z m423 -12 c2 -12
-3 -17 -17 -17 -12 0 -21 5 -21 10 0 6 5 10 11 10 5 0 7 5 3 11 -4 7 -1 10 7
7 8 -3 15 -12 17 -21z m339 -18 c8 -8 8 -18 1 -35 -14 -30 -28 -21 -28 17 0
31 9 36 27 18z m-397 -110 c0 -4 -7 -12 -15 -19 -12 -10 -15 -10 -15 3 0 8 -3
23 -6 32 -6 15 -4 15 15 4 11 -8 21 -17 21 -20z m562 14 c3 -15 4 -15 19 0 19
18 29 13 29 -17 0 -12 4 -16 8 -11 13 19 52 13 52 -7 0 -12 -4 -17 -12 -12 -7
4 -2 -7 10 -24 13 -17 27 -34 32 -37 14 -8 40 6 33 19 -9 14 27 -13 45 -33 10
-13 9 -18 -8 -31 -12 -9 -22 -23 -24 -30 -6 -38 -19 -58 -38 -64 -12 -3 -25 0
-29 5 -4 8 -8 8 -13 1 -6 -10 -34 -9 -101 2 -14 2 -19 9 -17 25 2 12 -3 24
-11 27 -16 6 -10 51 12 92 14 25 4 28 -25 7 -12 -8 -24 -11 -28 -8 -3 3 -6 -3
-6 -15 0 -28 -11 -28 -29 0 -12 19 -11 23 3 33 9 7 16 19 16 28 0 10 5 14 15
11 8 -4 15 -12 15 -20 0 -8 6 -11 15 -8 17 7 20 40 5 49 -5 3 -10 13 -10 21 0
20 38 18 42 -3z m-67 -13 c-3 -5 -12 -10 -18 -10 -7 0 -6 4 3 10 19 12 23 12
15 0z m-6183 -15 c0 -5 -5 -11 -11 -13 -6 -2 -11 4 -11 13 0 9 5 15 11 13 6
-2 11 -8 11 -13z m6099 -38 c-8 -8 -11 -3 -11 19 1 25 2 27 11 11 8 -14 8 -22
0 -30z m-16 -16 c3 -6 -3 -9 -14 -8 -11 0 -17 5 -15 9 7 11 22 10 29 -1z m675
-11 c0 -6 -11 -8 -25 -4 -20 5 -25 3 -25 -14 0 -15 -5 -19 -20 -15 -26 7 -25
21 3 33 30 12 67 12 67 0z m-750 -61 c-16 -28 -32 -24 -18 6 6 13 15 22 19 19
5 -3 4 -14 -1 -25z m-1710 1 c0 -5 -4 -10 -10 -10 -5 0 -10 5 -10 10 0 6 5 10
10 10 6 0 10 -4 10 -10z m-5305 -40 c3 -5 2 -10 -4 -10 -5 0 -13 5 -16 10 -3
6 -2 10 4 10 5 0 13 -4 16 -10z m9419 -96 c25 -9 19 -24 -9 -24 -24 0 -32 10
-18 23 8 8 8 8 27 1z m-1094 -54 c0 -5 -5 -10 -11 -10 -5 0 -7 5 -4 10 3 6 8
10 11 10 2 0 4 -4 4 -10z m-642 -62 c-6 -18 -28 -21 -28 -4 0 9 7 16 16 16 9
0 14 -5 12 -12z m-233 -38 c-3 -5 -13 -10 -21 -10 -8 0 -14 5 -14 10 0 6 9 10
21 10 11 0 17 -4 14 -10z m225 -25 c0 -16 -6 -25 -16 -25 -11 0 -14 5 -10 16
3 9 6 20 6 25 0 5 5 9 10 9 6 0 10 -11 10 -25z m-220 -50 c0 -22 -2 -24 -14
-13 -10 9 -11 17 -4 26 15 17 18 15 18 -13z m670 3 c0 -5 -9 -4 -20 2 -11 6
-20 12 -20 14 0 2 9 2 20 -1 11 -3 20 -9 20 -15z m-380 -22 c0 -3 -4 -8 -10
-11 -5 -3 -10 -1 -10 4 0 6 5 11 10 11 6 0 10 -2 10 -4z m425 -6 c-3 -5 -14
-10 -23 -10 -15 0 -15 2 -2 10 20 13 33 13 25 0z m-730 -20 c3 -5 1 -10 -4
-10 -6 0 -11 5 -11 10 0 6 2 10 4 10 3 0 8 -4 11 -10z m65 -6 c0 -9 -7 -14
-17 -12 -24 4 -27 23 -3 25 12 1 20 -4 20 -13z m-130 -24 c0 -5 -4 -10 -10
-10 -5 0 -10 5 -10 10 0 6 5 10 10 10 6 0 10 -4 10 -10z m-5505 -20 c3 -5 -1
-10 -10 -10 -9 0 -13 5 -10 10 3 6 8 10 10 10 2 0 7 -4 10 -10z m-2045 -354
c0 -3 -4 -8 -10 -11 -5 -3 -10 -1 -10 4 0 6 5 11 10 11 6 0 10 -2 10 -4z m-20
-66 c0 -5 15 -8 33 -7 41 3 52 -17 12 -21 -16 -2 -34 -8 -39 -13 -17 -16 -23
-10 -22 21 1 16 4 30 9 30 4 0 7 -4 7 -10z m3154 -12 c15 -25 -4 -53 -35 -53
-17 0 -25 6 -27 23 -7 46 38 67 62 30z m-2900 -13 c-4 -8 -10 -12 -15 -9 -14
8 -10 24 6 24 9 0 12 -6 9 -15z m7041 -54 c3 -5 1 -12 -5 -16 -5 -3 -10 1 -10
9 0 18 6 21 15 7z m-7358 -16 c0 -11 -4 -12 -14 -4 -7 6 -13 13 -13 15 0 2 6
4 13 4 8 0 14 -7 14 -15z m9303 -15 c0 -5 -2 -10 -4 -10 -3 0 -8 5 -11 10 -3
6 -1 10 4 10 6 0 11 -4 11 -10z m-8844 -140 c-1 -61 -16 -67 -16 -7 0 37 6 57
16 57 1 0 1 -22 0 -50z m-119 -25 c0 -8 -9 -15 -19 -15 -23 0 -24 17 0 23 9 3
17 5 18 6 0 0 1 -6 1 -14z m163 -15 c0 -5 -4 -10 -10 -10 -5 0 -10 5 -10 10 0
6 5 10 10 10 6 0 10 -4 10 -10z m-70 -15 c0 -8 -4 -15 -10 -15 -5 0 -10 7 -10
15 0 8 5 15 10 15 6 0 10 -7 10 -15z m120 -55 c0 -5 -4 -10 -10 -10 -5 0 -10
5 -10 10 0 6 5 10 10 10 6 0 10 -4 10 -10z m-109 -43 c-6 -8 -8 -17 -4 -20 3
-4 1 -7 -5 -7 -14 0 -14 2 -6 24 3 9 11 16 16 16 7 0 6 -5 -1 -13z m-221 -17
c0 -5 -7 -10 -16 -10 -8 0 -12 5 -9 10 3 6 10 10 16 10 5 0 9 -4 9 -10z m180
-20 c0 -5 -2 -10 -4 -10 -3 0 -8 5 -11 10 -3 6 -1 10 4 10 6 0 11 -4 11 -10z
m-240 -10 c0 -5 -2 -10 -4 -10 -3 0 -8 5 -11 10 -3 6 -1 10 4 10 6 0 11 -4 11
-10z m8670 -150 c0 -5 -2 -10 -4 -10 -3 0 -8 5 -11 10 -3 6 -1 10 4 10 6 0 11
-4 11 -10z m-5240 -31 c0 -5 -7 -9 -15 -9 -9 0 -12 6 -9 15 6 15 24 11 24 -6z
m90 -19 c0 -5 -2 -10 -4 -10 -3 0 -8 5 -11 10 -3 6 -1 10 4 10 6 0 11 -4 11
-10z m5145 -30 c3 -5 1 -10 -4 -10 -6 0 -11 5 -11 10 0 6 2 10 4 10 3 0 8 -4
11 -10z m-5129 -32 c4 -7 4 -10 -1 -6 -4 4 -15 2 -24 -5 -14 -11 -14 -10 -2 6
16 20 18 21 27 5z m1804 -8 c0 -5 -7 -10 -15 -10 -8 0 -15 5 -15 10 0 6 7 10
15 10 8 0 15 -4 15 -10z m-5160 -30 c0 -5 -5 -10 -11 -10 -5 0 -7 5 -4 10 3 6
8 10 11 10 2 0 4 -4 4 -10z m8500 -57 c9 -10 14 -25 12 -35 -3 -14 -6 -13 -26
7 -23 23 -29 47 -19 75 4 11 7 9 12 -7 3 -13 13 -31 21 -40z m-1895 18 c3 -5
1 -13 -5 -16 -15 -9 -43 3 -35 15 8 13 32 13 40 1z m565 -52 c0 -4 -7 -6 -15
-3 -8 4 -15 10 -15 15 0 4 7 6 15 3 8 -4 15 -10 15 -15z m71 -2 c-8 -8 -14 -8
-22 0 -6 6 -19 9 -28 6 -12 -4 -13 -3 -3 5 19 13 67 3 53 -11z m-6564 -4 c2
-6 -3 -13 -12 -16 -10 -5 -15 0 -15 14 0 21 21 22 27 2z m2493 7 c0 -5 -4 -10
-10 -10 -5 0 -10 5 -10 10 0 6 5 10 10 10 6 0 10 -4 10 -10z m48 -15 c-3 -3
-9 2 -12 12 -6 14 -5 15 5 6 7 -7 10 -15 7 -18z m5322 -41 c0 -18 4 -23 13
-18 8 5 8 2 -2 -9 -7 -9 -19 -17 -25 -17 -6 0 -4 5 4 10 12 8 11 10 -7 10 -25
0 -31 23 -10 44 16 18 27 10 27 -20z m-870 16 c0 -5 -7 -7 -15 -4 -8 4 -15 8
-15 10 0 2 7 4 15 4 8 0 15 -4 15 -10z m140 -13 c8 -3 -3 -6 -24 -6 -37 -1
-38 0 -20 13 10 8 21 11 24 7 3 -5 12 -11 20 -14z m100 6 c12 3 18 1 14 -5 -4
-6 10 -9 36 -6 32 2 45 -1 48 -12 5 -13 3 -13 -11 -1 -12 9 -17 10 -17 2 0 -8
-8 -10 -22 -5 -20 6 -54 10 -105 13 -13 1 -23 5 -23 10 0 14 33 19 47 8 7 -5
22 -7 33 -4z m660 7 c0 -5 -5 -10 -11 -10 -5 0 -7 5 -4 10 3 6 8 10 11 10 2 0
4 -4 4 -10z m-5380 -14 c0 -2 -7 -7 -16 -10 -8 -3 -12 -2 -9 4 6 10 25 14 25
6z m5357 -105 c0 -14 -2 -20 -4 -13 -3 6 -10 12 -17 12 -7 0 -18 11 -24 24
-10 23 -10 23 17 13 21 -8 28 -17 28 -36z m-5507 -16 c0 -8 -2 -15 -4 -15 -2
0 -6 7 -10 15 -3 8 -1 15 4 15 6 0 10 -7 10 -15z m6407 -7 c-3 -8 -6 -5 -6 6
-1 11 2 17 5 13 3 -3 4 -12 1 -19z m-6424 -5 c15 -13 21 -15 24 -6 3 9 10 10
22 3 10 -5 21 -7 23 -4 3 3 8 -4 11 -16 3 -14 0 -20 -10 -20 -13 0 -13 -2 -2
-17 12 -14 12 -16 -1 -11 -9 3 -14 15 -12 32 3 24 1 26 -17 15 -10 -7 -17 -19
-14 -26 6 -15 -23 -18 -32 -3 -3 6 -1 10 4 10 6 0 11 5 11 10 0 6 -10 4 -22
-4 -13 -8 -27 -16 -33 -16 -5 -1 -9 -7 -7 -14 1 -8 -7 -13 -22 -13 -32 0 -50
37 -31 64 13 17 14 16 9 -7 -4 -20 -3 -22 5 -9 7 11 21 15 45 12 19 -2 37 1
41 7 6 10 -6 14 -35 11 -13 -2 -13 -1 0 8 20 14 20 14 43 -6z m-3228 -63 c3
-5 1 -10 -4 -10 -6 0 -11 5 -11 10 0 6 2 10 4 10 3 0 8 -4 11 -10z m3205 -5
c0 -12 -19 -12 -23 0 -4 9 -1 12 9 8 7 -3 14 -7 14 -8z m5650 5 c0 -5 -4 -10
-9 -10 -6 0 -13 5 -16 10 -3 6 1 10 9 10 9 0 16 -4 16 -10z m54 -25 c-4 -8
-11 -15 -16 -15 -6 0 -5 6 2 15 7 8 14 15 16 15 2 0 1 -7 -2 -15z m-1274 -9
c0 -3 -4 -8 -10 -11 -5 -3 -10 -1 -10 4 0 6 5 11 10 11 6 0 10 -2 10 -4z
m-4490 -16 c0 -5 -4 -10 -10 -10 -5 0 -10 5 -10 10 0 6 5 10 10 10 6 0 10 -4
10 -10z m-3190 -20 c0 -5 -5 -10 -11 -10 -5 0 -7 5 -4 10 3 6 8 10 11 10 2 0
4 -4 4 -10z m8610 -30 c0 -5 -4 -10 -10 -10 -5 0 -10 5 -10 10 0 6 5 10 10 10
6 0 10 -4 10 -10z m-7270 -1200 c0 -5 -4 -10 -10 -10 -5 0 -10 5 -10 10 0 6 5
10 10 10 6 0 10 -4 10 -10z m7870 -660 c0 -5 -7 -10 -16 -10 -8 0 -12 5 -9 10
3 6 10 10 16 10 5 0 9 -4 9 -10z m-5310 -299 c0 -6 -4 -13 -10 -16 -5 -3 -10
1 -10 9 0 9 5 16 10 16 6 0 10 -4 10 -9z m5030 -37 c0 -8 -5 -12 -10 -9 -6 4
-8 11 -5 16 9 14 15 11 15 -7z m-6260 -109 c0 -9 -7 -18 -16 -22 -18 -7 -39
11 -30 26 11 17 46 13 46 -4z m6315 -75 c3 -5 -1 -10 -9 -10 -9 0 -16 5 -16
10 0 6 4 10 9 10 6 0 13 -4 16 -10z m85 -50 c0 -5 -5 -10 -11 -10 -5 0 -7 5
-4 10 3 6 8 10 11 10 2 0 4 -4 4 -10z m-150 -9 c0 -5 3 -16 6 -25 4 -10 1 -16
-9 -16 -17 0 -27 18 -19 38 5 14 22 16 22 3z m80 -6 c0 -8 -4 -15 -8 -15 -5 0
-9 7 -9 15 0 8 4 15 9 15 4 0 8 -7 8 -15z m53 -8 c4 3 7 -1 7 -11 0 -14 -4
-15 -20 -6 -11 6 -20 16 -20 22 0 7 4 7 13 -1 8 -6 17 -8 20 -4z m-148 -68 c4
-6 5 -12 2 -15 -7 -7 -37 7 -37 17 0 13 27 11 35 -2z m-4575 -69 c-19 -12 -50
-13 -50 -1 0 9 50 20 60 13 2 -2 -2 -7 -10 -12z m1713 -136 c-4 -10 -9 -12
-15 -6 -12 12 -1 35 12 27 5 -3 6 -13 3 -21z m3832 -107 c13 -10 15 -16 6 -21
-12 -8 -41 10 -41 25 0 13 13 11 35 -4z m-255 -12 c0 -8 -4 -15 -9 -15 -13 0
-22 16 -14 24 11 11 23 6 23 -9z m-160 -64 c-1 -12 -6 -10 -20 8 -11 12 -17
28 -13 34 8 12 33 -20 33 -42z m105 -121 c3 -5 1 -10 -4 -10 -6 0 -11 5 -11
10 0 6 2 10 4 10 3 0 8 -4 11 -10z m-1485 -25 c0 -8 -4 -15 -9 -15 -13 0 -22
16 -14 24 11 11 23 6 23 -9z m1653 -40 c4 -8 2 -17 -4 -20 -5 -4 -7 -11 -4
-16 4 -5 2 -9 -3 -9 -11 0 -23 40 -16 52 8 13 21 9 27 -7z m-323 -4 c0 -12
-20 -25 -27 -18 -7 7 6 27 18 27 5 0 9 -4 9 -9z m-2446 -128 c-13 -21 -25 -25
-43 -14 -12 8 -12 13 3 36 17 25 19 26 34 11 13 -12 14 -21 6 -33z m-1371 15
c4 -10 8 -9 16 2 10 13 12 13 21 0 6 -10 5 -17 -4 -22 -18 -10 -56 2 -56 18 0
17 17 18 23 2z m-3562 -125 c10 -12 11 -15 1 -9 -7 4 -19 2 -27 -4 -11 -9 -14
-7 -12 9 2 25 20 27 38 4z m8049 -113 c0 -5 -4 -10 -10 -10 -5 0 -10 5 -10 10
0 6 5 10 10 10 6 0 10 -4 10 -10z m0 -480 c0 -5 -5 -10 -11 -10 -5 0 -7 5 -4
10 3 6 8 10 11 10 2 0 4 -4 4 -10z m-725 -40 c3 -5 1 -10 -4 -10 -6 0 -11 5
-11 10 0 6 2 10 4 10 3 0 8 -4 11 -10z m-535 -584 c0 -3 -4 -8 -10 -11 -5 -3
-10 -1 -10 4 0 6 5 11 10 11 6 0 10 -2 10 -4z m-710 -156 c0 -5 -7 -10 -15
-10 -8 0 -15 5 -15 10 0 6 7 10 15 10 8 0 15 -4 15 -10z m-1660 -590 c0 -5 -5
-10 -11 -10 -5 0 -7 5 -4 10 3 6 8 10 11 10 2 0 4 -4 4 -10z m-4460 -170 c0
-5 -4 -10 -10 -10 -5 0 -10 5 -10 10 0 6 5 10 10 10 6 0 10 -4 10 -10z"/>
<path d="M5973 10075 c-3 -9 -3 -19 1 -22 3 -4 6 1 6 11 0 9 5 14 10 11 6 -3
10 -1 10 4 0 17 -20 13 -27 -4z"/>
<path d="M6166 10044 c-10 -25 -1 -27 19 -4 15 17 16 20 3 20 -9 0 -19 -7 -22
-16z"/>
<path d="M5970 10026 c-17 -10 -30 -11 -42 -5 -14 8 -20 4 -30 -16 -10 -22 -9
-28 7 -43 10 -9 15 -11 11 -4 -5 8 1 12 19 12 15 0 24 4 20 10 -3 5 6 21 21
35 30 28 30 30 -6 11z m-35 -26 c3 -5 -1 -10 -9 -10 -9 0 -16 5 -16 10 0 6 4
10 9 10 6 0 13 -4 16 -10z"/>
<path d="M6196 10003 c6 -34 9 -37 29 -29 14 5 14 8 -1 31 -21 33 -34 32 -28
-2z"/>
<path d="M6020 10000 c0 -5 5 -10 11 -10 5 0 7 5 4 10 -3 6 -8 10 -11 10 -2 0
-4 -4 -4 -10z"/>
<path d="M6145 9969 c-4 -6 -5 -12 -2 -15 2 -3 7 2 10 11 7 17 1 20 -8 4z"/>
<path d="M6251 9964 c0 -11 3 -14 6 -6 3 7 2 16 -1 19 -3 4 -6 -2 -5 -13z"/>
<path d="M6225 9930 c3 -5 14 -10 23 -10 15 0 15 2 2 10 -20 13 -33 13 -25 0z"/>
<path d="M6115 9910 c3 -5 8 -10 11 -10 2 0 4 5 4 10 0 6 -5 10 -11 10 -5 0
-7 -4 -4 -10z"/>
<path d="M5790 9887 c0 -8 6 -20 13 -26 11 -8 13 -6 12 11 -2 24 -25 38 -25
15z"/>
<path d="M6391 9834 c0 -11 3 -14 6 -6 3 7 2 16 -1 19 -3 4 -6 -2 -5 -13z"/>
<path d="M6432 9737 c-7 -8 -6 -16 3 -24 10 -9 14 -8 18 8 6 23 -7 34 -21 16z"/>
<path d="M6640 9679 c0 -5 5 -7 10 -4 6 3 10 8 10 11 0 2 -4 4 -10 4 -5 0 -10
-5 -10 -11z"/>
<path d="M6494 9669 c-3 -6 -1 -16 5 -22 8 -8 11 -5 11 11 0 24 -5 28 -16 11z"/>
<path d="M6170 9635 c0 -8 5 -15 11 -15 5 0 8 -4 4 -9 -3 -5 0 -13 7 -17 7 -4
10 -4 6 1 -4 4 -3 14 3 21 8 9 5 15 -10 24 -17 9 -21 8 -21 -5z"/>
<path d="M6235 9641 c-3 -5 -1 -12 4 -15 5 -3 11 1 15 9 6 16 -9 21 -19 6z"/>
<path d="M6526 9624 c-3 -8 1 -14 9 -14 20 0 28 17 11 23 -8 3 -17 -1 -20 -9z"/>
<path d="M6243 9575 c-1 -19 3 -35 8 -35 15 0 22 29 10 44 -6 7 -8 16 -4 19 3
4 2 7 -3 7 -6 0 -10 -16 -11 -35z"/>
<path d="M6360 9590 c0 -6 7 -10 15 -10 8 0 15 2 15 4 0 2 -7 6 -15 10 -8 3
-15 1 -15 -4z"/>
<path d="M6542 9570 c0 -14 2 -19 5 -12 2 6 2 18 0 25 -3 6 -5 1 -5 -13z"/>
<path d="M6315 9550 c-3 -6 1 -7 9 -4 18 7 21 14 7 14 -6 0 -13 -4 -16 -10z"/>
<path d="M6125 9540 c3 -5 8 -10 11 -10 2 0 4 5 4 10 0 6 -5 10 -11 10 -5 0
-7 -4 -4 -10z"/>
<path d="M6690 9538 c0 -9 5 -20 11 -23 17 -11 20 0 4 21 -13 17 -14 17 -15 2z"/>
<path d="M5827 9465 c-5 -10 0 -15 14 -15 12 0 19 5 17 12 -6 18 -25 20 -31 3z"/>
<path d="M6110 9473 c0 -24 2 -28 12 -25 6 2 8 -4 5 -11 -3 -8 2 -25 10 -37
13 -18 13 -24 2 -30 -10 -7 -10 -11 0 -24 8 -9 21 -16 31 -16 9 0 21 -10 27
-22 10 -23 10 -22 26 9 17 32 14 63 -7 63 -8 0 -8 2 0 8 6 4 14 18 18 32 4 14
4 21 -1 15 -10 -13 -54 -15 -46 -2 3 5 -5 7 -18 5 -17 -2 -29 4 -41 22 -10 14
-18 19 -18 13z m90 -124 c0 -5 -4 -9 -10 -9 -5 0 -10 7 -10 16 0 8 5 12 10 9
6 -3 10 -10 10 -16z"/>
<path d="M6104 9422 c3 -5 0 -12 -6 -15 -10 -3 -10 -7 -1 -17 6 -7 9 -20 6
-29 -4 -13 -2 -13 10 2 15 19 12 53 -6 64 -5 3 -7 1 -3 -5z"/>
<path d="M6090 9320 c0 -5 5 -10 10 -10 6 0 10 5 10 10 0 6 -4 10 -10 10 -5 0
-10 -4 -10 -10z"/>
<path d="M6155 9310 c3 -5 8 -10 11 -10 2 0 4 5 4 10 0 6 -5 10 -11 10 -5 0
-7 -4 -4 -10z"/>
<path d="M6100 9255 c0 -8 4 -15 10 -15 5 0 7 7 4 15 -4 8 -8 15 -10 15 -2 0
-4 -7 -4 -15z"/>
<path d="M7230 8870 c0 -19 3 -21 12 -12 9 9 9 15 0 24 -9 9 -12 7 -12 -12z"/>
<path d="M6315 8760 c3 -5 8 -10 11 -10 2 0 4 5 4 10 0 6 -5 10 -11 10 -5 0
-7 -4 -4 -10z"/>
<path d="M7310 8450 c0 -5 5 -10 11 -10 5 0 7 5 4 10 -3 6 -8 10 -11 10 -2 0
-4 -4 -4 -10z"/>
<path d="M7283 8367 c5 -15 37 -22 37 -9 0 5 -9 12 -21 15 -13 3 -19 1 -16 -6z"/>
<path d="M8710 6225 c0 -2 9 -9 20 -15 16 -9 18 -8 14 5 -5 13 -34 22 -34 10z"/>
<path d="M6093 6147 c-36 -38 -84 -77 -93 -77 -15 0 -12 -11 5 -24 18 -13 11
-40 -35 -141 -15 -33 -35 -85 -45 -115 -9 -30 -26 -79 -36 -108 -11 -30 -19
-62 -19 -71 0 -10 -7 -33 -17 -51 -9 -18 -17 -64 -19 -101 l-3 -67 204 1 c126
0 205 4 205 10 0 5 6 4 14 -2 14 -12 128 -14 183 -3 23 4 24 8 18 41 -11 61
-110 348 -169 490 -46 111 -64 144 -103 183 -48 49 -69 57 -90 35z"/>
<path d="M3897 6139 c7 -7 15 -10 18 -7 3 3 -2 9 -12 12 -14 6 -15 5 -6 -5z"/>
<path d="M6391 5868 c-1 -21 15 -32 25 -17 4 7 3 9 -4 5 -6 -3 -13 2 -15 11
-4 16 -5 16 -6 1z"/>
<path d="M4665 5698 c4 -18 11 -39 15 -48 23 -46 74 -186 73 -200 -1 -8 7 -27
18 -40 17 -23 19 -23 19 -5 1 19 1 19 11 1 9 -14 8 -20 -2 -27 -7 -4 -10 -11
-6 -15 3 -4 14 -1 24 7 15 13 15 12 6 -5 -7 -13 -8 -29 -2 -44 5 -13 10 -42
11 -63 1 -22 7 -44 15 -50 7 -6 13 -21 13 -33 0 -36 12 -66 25 -66 8 0 11 -8
8 -19 -3 -10 0 -22 5 -25 6 -4 7 -17 3 -34 -8 -27 5 -52 28 -52 13 0 6 -89 -8
-103 -8 -8 -11 -7 -11 2 0 7 -4 10 -8 7 -12 -7 -26 23 -63 134 -17 52 -35 104
-39 115 -5 11 -22 52 -38 90 l-29 70 -84 -3 c-126 -4 -364 -21 -449 -32 -41
-5 -97 -12 -125 -15 -27 -3 -126 -21 -220 -40 -93 -18 -215 -41 -270 -50 -195
-33 -233 -49 -236 -99 -1 -12 -3 -52 -6 -91 -6 -101 -4 -147 9 -139 4 3 7 -12
7 -33 -4 -138 78 -449 162 -614 19 -39 34 -48 87 -55 19 -2 77 -15 130 -28 54
-13 117 -27 142 -31 71 -10 90 -13 170 -30 41 -8 127 -18 191 -21 114 -7 116
-6 159 21 25 16 57 30 73 31 16 2 41 12 55 23 15 10 38 22 52 26 20 7 23 5 14
-6 -7 -8 -8 -22 -3 -34 11 -29 11 -37 -3 -29 -9 5 -9 2 1 -9 15 -19 46 -23 56
-6 4 6 13 8 21 5 8 -3 11 0 7 10 -3 7 -1 14 5 14 5 0 13 -11 16 -25 4 -14 14
-25 23 -25 8 0 30 -9 47 -19 18 -11 58 -21 98 -24 37 -3 72 -8 77 -11 4 -3 46
-7 92 -10 46 -2 91 -7 99 -10 8 -2 85 -8 170 -11 85 -3 191 -8 235 -11 44 -3
118 -6 165 -9 90 -4 845 -4 943 0 102 4 310 16 367 20 30 3 170 14 310 26 304
25 330 30 330 65 0 19 4 25 14 21 35 -14 82 -17 96 -6 11 8 12 12 3 16 -14 5
-18 33 -5 33 4 0 13 -9 20 -20 16 -26 26 -25 39 3 9 20 8 26 -8 38 -23 16 -24
29 -4 55 14 19 15 18 40 -8 14 -16 32 -28 40 -28 7 0 35 -20 61 -45 68 -63
115 -71 282 -51 70 8 165 22 212 31 47 8 150 27 230 40 211 37 200 32 237 101
31 58 73 158 119 282 28 75 52 195 59 295 3 40 9 119 14 177 4 58 4 115 0 128
-10 27 -39 39 -111 47 -29 3 -78 12 -108 20 -83 21 -407 77 -475 81 -33 3 -67
7 -75 10 -8 3 -48 8 -89 10 -41 2 -79 8 -83 12 -5 5 -28 6 -51 1 -23 -4 -49
-3 -59 2 -10 5 -89 12 -175 15 -87 3 -162 9 -167 14 -11 11 -79 -98 -72 -115
2 -7 -5 -20 -16 -29 -13 -12 -16 -21 -10 -29 6 -7 6 -21 1 -34 -12 -33 -22
-28 -15 8 5 28 4 30 -17 23 -12 -4 -31 -13 -42 -22 -16 -12 -17 -13 -2 -8 20
6 57 -25 57 -50 0 -11 -6 -14 -22 -9 -21 6 -22 5 -5 -8 17 -14 16 -15 -2 -20
-11 -3 -22 0 -24 7 -3 8 -8 8 -18 -1 -10 -11 -9 -17 8 -35 23 -25 22 -80 -2
-108 -7 -8 -16 -25 -20 -38 -4 -14 -12 -21 -21 -18 -7 3 -16 1 -19 -4 -4 -6
-1 -10 5 -10 17 0 1 -46 -57 -165 -29 -60 -53 -111 -53 -112 0 -2 6 -3 14 -3
19 0 28 -27 10 -34 -7 -3 -13 0 -11 6 1 6 -3 12 -9 15 -7 2 -33 -31 -60 -73
-46 -74 -111 -136 -178 -171 -73 -38 -189 -10 -288 69 -42 33 -103 142 -144
258 -12 36 -36 103 -53 150 -17 47 -30 95 -31 106 0 12 -7 35 -15 50 -8 16
-15 43 -15 61 0 17 -4 34 -9 37 -6 4 -20 73 -23 116 0 3 -4 13 -10 24 -6 10
-11 28 -13 40 -4 31 -23 107 -27 112 -2 2 -159 6 -349 8 -386 6 -392 5 -388
-57 1 -18 -1 -39 -4 -47 -8 -23 -35 -148 -47 -220 -16 -94 -49 -236 -71 -302
-10 -31 -16 -64 -13 -72 3 -9 1 -16 -4 -16 -6 0 -18 -25 -27 -55 -33 -116
-111 -227 -184 -263 -24 -12 -25 -12 -7 2 23 18 14 21 -15 6 -13 -7 -19 -7
-19 0 0 5 -9 10 -21 10 -16 0 -19 -4 -14 -20 3 -11 4 -20 1 -20 -17 0 -95 43
-91 50 3 4 -5 10 -16 13 -14 4 -20 11 -16 21 4 10 1 13 -9 9 -13 -5 -19 8 -15
31 1 5 -5 6 -13 3 -18 -7 -31 9 -16 18 14 9 -12 46 -28 40 -7 -3 -11 -1 -7 4
3 5 2 17 -2 27 -6 16 -7 16 -14 -2 -6 -15 -8 -16 -8 -2 -1 10 -13 19 -31 23
-37 8 -43 17 -30 50 7 17 7 24 0 20 -6 -3 -10 -2 -10 3 0 5 -11 25 -24 45 -14
20 -34 71 -46 114 -12 43 -31 95 -42 116 -11 22 -17 42 -14 45 3 3 6 2 6 -2 0
-5 8 2 18 14 l18 22 1 -22 c1 -12 9 -30 17 -39 21 -23 20 -30 -4 -39 -19 -7
-19 -9 -5 -27 10 -14 13 -15 9 -4 -7 21 22 33 30 13 5 -14 8 -14 22 0 16 17
11 55 -10 68 -8 5 -7 8 2 8 9 0 10 5 3 18 -5 9 -21 62 -36 117 -14 55 -38 120
-53 145 -15 25 -25 49 -24 54 2 4 -3 15 -10 23 -7 9 -14 30 -15 49 -1 18 -8
43 -17 56 -8 13 -18 45 -22 72 -9 66 -43 143 -55 125 -6 -11 -9 -10 -15 5 -4
11 -1 22 7 28 10 7 8 8 -8 3 -14 -4 -23 -2 -23 4 0 6 5 11 10 11 18 0 9 34
-21 80 -16 25 -33 55 -39 68 -15 34 -33 28 -25 -10z m3295 -548 c0 -12 -28
-25 -36 -17 -9 9 6 27 22 27 8 0 14 -5 14 -10z m-3110 -321 c0 -6 -4 -7 -10
-4 -5 3 -10 11 -10 16 0 6 5 7 10 4 6 -3 10 -11 10 -16z m147 -261 c-3 -8 -6
-5 -6 6 -1 11 2 17 5 13 3 -3 4 -12 1 -19z m2505 -100 c-8 -10 -4 -13 14 -13
13 0 24 4 24 8 0 5 5 5 11 1 18 -11 -32 -34 -52 -24 -9 5 -26 6 -38 3 -16 -4
-20 -2 -15 10 3 9 12 13 19 11 7 -3 16 -1 20 5 3 6 11 11 17 11 7 0 7 -4 0
-12z m-2422 -28 c0 -5 -2 -10 -4 -10 -3 0 -8 5 -11 10 -3 6 -1 10 4 10 6 0 11
-4 11 -10z m2835 -20 c-5 -8 -11 -8 -21 1 -12 10 -12 14 -2 20 16 10 33 -5 23
-21z m-253 -69 c22 -22 37 -44 34 -50 -10 -16 -36 -1 -36 20 0 10 -4 19 -9 19
-12 0 -41 29 -41 41 0 16 11 10 52 -30z m-112 19 c0 -5 -2 -10 -4 -10 -3 0 -8
5 -11 10 -3 6 -1 10 4 10 6 0 11 -4 11 -10z m202 -142 c-9 -9 -15 -9 -24 0 -9
9 -7 12 12 12 19 0 21 -3 12 -12z m-62 -28 c0 -5 -4 -10 -10 -10 -5 0 -10 5
-10 10 0 6 5 10 10 10 6 0 10 -4 10 -10z m-2860 -16 c0 -8 -5 -12 -10 -9 -6 4
-8 11 -5 16 9 14 15 11 15 -7z m-380 -24 c0 -5 -4 -10 -10 -10 -5 0 -10 5 -10
10 0 6 5 10 10 10 6 0 10 -4 10 -10z m3090 -35 c0 -8 -2 -15 -4 -15 -2 0 -6 7
-10 15 -3 8 -1 15 4 15 6 0 10 -7 10 -15z m-3142 -21 c-3 -19 -34 -41 -43 -32
-4 3 -2 16 5 27 13 25 43 28 38 5z m2517 -14 c3 -5 -1 -10 -9 -10 -9 0 -16 5
-16 10 0 6 4 10 9 10 6 0 13 -4 16 -10z"/>
<path d="M6466 5586 c3 -9 11 -16 16 -16 13 0 5 23 -10 28 -7 2 -10 -2 -6 -12z"/>
<path d="M7246 5303 c-2 -2 -88 -3 -192 -3 -200 0 -375 -9 -393 -19 -10 -7 -9
-15 29 -151 11 -41 35 -127 51 -190 17 -63 59 -185 92 -270 55 -136 68 -161
111 -202 40 -40 54 -48 85 -48 62 0 124 71 208 237 39 76 82 172 97 213 15 41
31 83 37 92 5 10 9 24 9 32 0 18 42 29 52 13 6 -9 8 -9 8 0 0 6 -5 15 -10 18
-18 11 9 46 33 42 12 -2 16 -2 10 0 -7 3 -13 11 -13 19 0 8 -4 14 -9 14 -15 0
-43 -32 -38 -44 3 -6 -2 -17 -9 -24 -21 -19 -18 -1 13 94 15 46 31 80 36 77 5
-3 6 3 3 14 -8 25 3 55 16 47 5 -3 4 3 -4 15 -11 18 -23 21 -88 22 -41 0 -88
2 -103 3 -15 1 -29 0 -31 -1z"/>
<path d="M4970 5277 c0 -7 7 -40 16 -72 9 -33 18 -71 19 -85 4 -34 52 -174 80
-235 13 -27 31 -71 39 -97 8 -26 24 -66 35 -90 11 -24 35 -77 54 -118 35 -78
89 -150 113 -150 7 0 29 13 47 30 25 22 42 52 65 117 38 107 84 282 113 423
11 58 25 107 30 111 5 3 7 13 3 22 -3 9 -2 17 4 17 5 0 8 14 6 32 -5 38 4 70
17 63 5 -4 9 1 9 9 0 22 -38 30 -64 12 -22 -14 -23 -13 -22 2 1 16 -23 17
-281 20 -228 2 -283 0 -283 -11z m480 -257 c-15 -28 -24 -19 -16 16 5 19 10
24 17 17 8 -8 7 -18 -1 -33z m-187 -277 c-3 -7 -10 -10 -15 -7 -6 4 -14 1 -18
-6 -5 -9 -9 -9 -14 -1 -4 6 -2 11 3 11 6 0 11 9 11 20 0 17 3 18 19 8 10 -6
17 -17 14 -25z m2 -133 c3 -5 -3 -10 -15 -10 -12 0 -18 5 -15 10 3 6 10 10 15
10 5 0 12 -4 15 -10z"/>
<path d="M9110 5185 c0 -19 5 -26 17 -23 9 2 18 9 21 17 3 10 0 12 -12 8 -9
-4 -14 -3 -11 2 3 5 1 12 -5 16 -6 4 -10 -5 -10 -20z"/>
<path d="M9138 5092 c9 -6 11 -27 7 -76 -3 -38 -2 -73 3 -80 13 -16 21 -66 11
-66 -5 0 -9 -4 -9 -10 0 -5 7 -7 16 -3 14 5 15 17 8 87 -4 45 -8 92 -8 106 -2
30 -13 50 -29 50 -9 0 -8 -3 1 -8z"/>
<path d="M3103 5049 c-6 -8 -38 -23 -70 -33 -210 -68 -300 -105 -452 -187 -57
-31 -128 -94 -146 -130 -8 -15 -15 -46 -15 -69 0 -35 7 -48 45 -89 72 -77 325
-222 410 -236 6 -1 26 -9 46 -18 30 -13 200 -61 291 -81 l28 -6 -4 60 c-3 62
7 80 18 34 4 -15 10 -24 13 -20 4 3 -2 31 -12 61 -12 35 -22 50 -27 42 -6 -9
-8 -9 -8 0 0 6 4 14 10 18 5 3 7 12 4 20 -4 8 -9 13 -14 10 -4 -2 -7 8 -7 23
0 15 -7 61 -15 102 -25 115 -28 189 -9 201 14 9 14 10 -1 5 -19 -6 -26 10 -7
16 6 2 11 34 11 75 0 40 5 70 9 67 15 -9 10 13 -6 26 -10 8 -13 21 -9 33 4 13
2 17 -5 13 -7 -4 -11 1 -11 13 0 12 -4 21 -10 21 -5 0 -10 -4 -10 -10 0 -5 -6
-10 -14 -10 -9 0 -16 12 -18 32 -2 26 -5 29 -15 17z m67 -88 c0 -6 -4 -13 -10
-16 -5 -3 -10 1 -10 9 0 9 5 16 10 16 6 0 10 -4 10 -9z m-197 -361 c55 -27 19
-94 -37 -68 -18 8 -26 19 -26 38 0 25 17 52 29 47 3 -2 18 -9 34 -17z m205 -8
c6 -18 -15 -14 -22 4 -4 10 -1 14 6 12 6 -2 14 -10 16 -16z"/>
<path d="M7500 5046 c0 -2 7 -6 15 -10 8 -3 15 -1 15 4 0 6 -7 10 -15 10 -8 0
-15 -2 -15 -4z"/>
<path d="M9306 4916 c-10 -163 -14 -208 -20 -236 -3 -14 -8 -56 -11 -93 -3
-38 -10 -80 -16 -93 -5 -14 -7 -30 -3 -35 3 -5 0 -9 -5 -9 -6 0 -10 -3 -10 -7
1 -5 0 -10 -1 -13 -1 -3 -3 -22 -6 -43 -2 -21 -10 -61 -19 -89 -8 -29 -15 -56
-15 -61 0 -16 120 4 219 38 186 63 264 96 378 156 119 64 145 90 171 169 27
81 -25 159 -148 226 -19 10 -37 22 -41 26 -19 26 -267 123 -400 157 l-66 17
-7 -110z m2 -604 c6 -18 -15 -14 -22 4 -4 10 -1 14 6 12 6 -2 14 -10 16 -16z"/>
<path d="M9141 4914 c0 -11 3 -14 6 -6 3 7 2 16 -1 19 -3 4 -6 -2 -5 -13z"/>
<path d="M9161 4814 c0 -11 3 -14 6 -6 3 7 2 16 -1 19 -3 4 -6 -2 -5 -13z"/>
<path d="M9146 4764 c-9 -8 -14 -19 -11 -24 3 -5 1 -11 -5 -15 -7 -4 -7 -13 0
-26 6 -11 8 -24 5 -29 -3 -6 0 -10 8 -10 9 0 16 15 20 43 2 23 8 50 12 60 9
21 -8 22 -29 1z"/>
<path d="M3495 3970 c3 -5 14 -10 23 -10 15 0 15 2 2 10 -20 13 -33 13 -25 0z"/>
<path d="M3557 3962 c-25 -5 -16 -26 14 -31 13 -1 54 -32 91 -67 37 -35 80
-71 95 -81 16 -9 36 -25 46 -35 10 -10 25 -18 35 -19 19 -1 30 -3 112 -17 30
-6 60 -7 65 -3 6 4 35 18 66 30 52 21 84 45 103 79 6 10 1 11 -19 6 -24 -6
-26 -4 -21 13 9 28 -39 51 -54 25 -9 -16 -11 -15 -28 6 -9 12 -31 25 -47 27
-17 3 -43 7 -60 10 -16 3 -50 7 -75 11 -25 3 -58 9 -75 14 -16 5 -66 12 -110
16 -97 8 -98 8 -110 15 -5 3 -18 4 -28 1z"/>
<path d="M8730 3959 c0 -3 -26 -7 -57 -8 -31 -1 -59 -4 -62 -6 -3 -2 -31 -6
-61 -10 -174 -20 -389 -61 -342 -64 6 -1 12 -11 12 -24 0 -30 31 -58 100 -89
45 -20 70 -24 135 -23 44 0 91 6 105 13 14 7 39 20 55 29 33 18 185 168 185
182 0 5 -16 9 -35 8 -19 -1 -35 -5 -35 -8z"/>
<path d="M9876 2788 c7 -11 34 -10 34 1 0 6 -9 9 -19 8 -11 0 -17 -5 -15 -9z"/>
</g>
</svg>
